<svg width="165" height="54" viewBox="0 0 165 54" fill="none" xmlns="http://www.w3.org/2000/svg"><rect width="165" height="54" rx="12" fill="#000"/><path d="M33.395 26.802a6.949 6.949 0 0 1 3.309-5.83 7.11 7.11 0 0 0-5.604-3.029c-2.357-.247-4.643 1.411-5.844 1.411-1.224 0-3.074-1.386-5.066-1.345a7.463 7.463 0 0 0-6.28 3.83c-2.715 4.7-.69 11.61 1.912 15.41 1.3 1.86 2.822 3.938 4.812 3.865 1.947-.081 2.674-1.242 5.025-1.242 2.329 0 3.01 1.242 5.041 1.195 2.09-.034 3.406-1.87 4.662-3.748a15.391 15.391 0 0 0 2.132-4.341 6.714 6.714 0 0 1-4.099-6.176ZM29.562 15.444a6.84 6.84 0 0 0 1.564-4.9 6.96 6.96 0 0 0-4.503 2.33 6.508 6.508 0 0 0-1.605 4.719 5.756 5.756 0 0 0 4.544-2.149ZM58.009 36.403h-6.645l-1.596 4.712h-2.815l6.294-17.434h2.925l6.294 17.434h-2.863l-1.594-4.712Zm-5.957-2.174h5.267l-2.596-7.648h-.073l-2.598 7.648ZM76.063 34.76c0 3.95-2.114 6.488-5.305 6.488a4.309 4.309 0 0 1-3.999-2.224h-.06v6.296h-2.61V28.404h2.526v2.114h.048a4.509 4.509 0 0 1 4.047-2.247c3.227 0 5.353 2.55 5.353 6.49Zm-2.682 0c0-2.573-1.33-4.265-3.359-4.265-1.993 0-3.334 1.727-3.334 4.265 0 2.561 1.34 4.276 3.334 4.276 2.03 0 3.36-1.68 3.36-4.276ZM90.047 34.76c0 3.95-2.114 6.488-5.304 6.488a4.309 4.309 0 0 1-4-2.223h-.06v6.295h-2.609V28.405H80.6v2.114h.048a4.51 4.51 0 0 1 4.047-2.247c3.226 0 5.352 2.55 5.352 6.489Zm-2.681 0c0-2.573-1.33-4.265-3.36-4.265-1.993 0-3.334 1.728-3.334 4.266 0 2.56 1.341 4.276 3.335 4.276 2.029 0 3.359-1.68 3.359-4.276ZM99.296 36.257c.193 1.73 1.873 2.864 4.168 2.864 2.199 0 3.781-1.135 3.781-2.694 0-1.353-.954-2.163-3.214-2.718l-2.259-.545c-3.202-.773-4.688-2.27-4.688-4.7 0-3.008 2.622-5.074 6.344-5.074 3.684 0 6.209 2.066 6.294 5.075h-2.633c-.158-1.74-1.596-2.79-3.698-2.79s-3.54 1.062-3.54 2.608c0 1.233.919 1.958 3.166 2.514l1.92.471c3.577.846 5.064 2.283 5.064 4.833 0 3.262-2.598 5.305-6.731 5.305-3.866 0-6.476-1.995-6.645-5.149h2.67ZM115.634 25.396v3.008h2.417v2.066h-2.417v7.008c0 1.088.484 1.596 1.546 1.596.287-.005.573-.026.858-.06v2.053a7.15 7.15 0 0 1-1.449.12c-2.573 0-3.577-.966-3.577-3.431V30.47h-1.848v-2.066h1.848v-3.008h2.622ZM119.445 34.76c0-3.999 2.356-6.512 6.029-6.512 3.685 0 6.029 2.513 6.029 6.512 0 4.01-2.332 6.513-6.029 6.513s-6.029-2.502-6.029-6.513Zm9.4 0c0-2.743-1.257-4.362-3.371-4.362s-3.37 1.631-3.37 4.362c0 2.755 1.256 4.362 3.37 4.362s3.371-1.607 3.371-4.362ZM133.656 28.404h2.489v2.164h.06a3.029 3.029 0 0 1 3.057-2.297 4.02 4.02 0 0 1 .894.098v2.44a3.642 3.642 0 0 0-1.172-.157 2.63 2.63 0 0 0-2.719 2.924v7.54h-2.609V28.403ZM152.185 37.382c-.351 2.307-2.599 3.89-5.474 3.89-3.697 0-5.992-2.477-5.992-6.451 0-3.987 2.307-6.573 5.883-6.573 3.516 0 5.728 2.416 5.728 6.27v.894h-8.978v.157a3.308 3.308 0 0 0 3.42 3.6 2.876 2.876 0 0 0 2.935-1.787h2.478Zm-8.82-3.794h6.354a3.046 3.046 0 0 0-.854-2.294 3.041 3.041 0 0 0-2.263-.932 3.214 3.214 0 0 0-2.993 1.988 3.227 3.227 0 0 0-.244 1.238ZM51.729 10.56a3.705 3.705 0 0 1 3.942 4.162c0 2.676-1.447 4.214-3.942 4.214h-3.026V10.56h3.026Zm-1.725 7.192h1.58a2.633 2.633 0 0 0 2.762-3.013 2.641 2.641 0 0 0-2.762-2.996h-1.58v6.009ZM57.143 15.772a2.996 2.996 0 0 1 5.197-2.3 2.995 2.995 0 0 1 .766 2.3 2.997 2.997 0 0 1-5.2 2.303 2.995 2.995 0 0 1-.763-2.303Zm4.68 0c0-1.37-.616-2.171-1.697-2.171-1.084 0-1.694.801-1.694 2.171 0 1.382.61 2.177 1.694 2.177 1.08 0 1.696-.8 1.696-2.177ZM71.029 18.936h-1.294l-1.307-4.656h-.099l-1.3 4.656h-1.282l-1.743-6.322h1.265l1.133 4.824h.093l1.3-4.824h1.197l1.3 4.824h.098l1.127-4.824h1.248l-1.736 6.322ZM74.227 12.614h1.2v1.005h.094a1.893 1.893 0 0 1 1.886-1.127 2.057 2.057 0 0 1 2.189 2.352v4.092h-1.248v-3.78c0-1.015-.442-1.52-1.364-1.52a1.452 1.452 0 0 0-1.51 1.602v3.698h-1.247v-6.322ZM81.586 10.146h1.248v8.79h-1.248v-8.79ZM84.569 15.772a2.993 2.993 0 0 1 4.193-3.024 2.995 2.995 0 0 1 1.77 3.024 2.997 2.997 0 0 1-4.195 3.03 2.998 2.998 0 0 1-1.768-3.03Zm4.679 0c0-1.37-.616-2.171-1.696-2.171-1.084 0-1.694.801-1.694 2.171 0 1.382.61 2.177 1.694 2.177 1.08 0 1.696-.8 1.696-2.177ZM91.844 17.148c0-1.138.847-1.794 2.351-1.887l1.712-.099v-.545c0-.668-.441-1.045-1.294-1.045-.696 0-1.179.256-1.317.703h-1.208c.127-1.086 1.149-1.783 2.583-1.783 1.585 0 2.479.79 2.479 2.125v4.319h-1.201v-.889h-.1a2.128 2.128 0 0 1-1.898.993 1.91 1.91 0 0 1-2.107-1.892Zm4.063-.54v-.529l-1.543.1c-.87.057-1.266.354-1.266.91 0 .57.494.9 1.172.9a1.49 1.49 0 0 0 1.637-1.381ZM98.79 15.773c0-1.998 1.026-3.264 2.623-3.264a2.087 2.087 0 0 1 1.939 1.11h.093v-3.473h1.248v8.79h-1.196v-.999h-.099a2.186 2.186 0 0 1-1.985 1.103c-1.608 0-2.624-1.265-2.624-3.267Zm1.288 0c0 1.34.632 2.147 1.689 2.147 1.051 0 1.701-.818 1.701-2.142 0-1.318-.656-2.148-1.701-2.148-1.05 0-1.689.813-1.689 2.143ZM109.858 15.772a3.003 3.003 0 0 1 .765-2.3 3.002 3.002 0 0 1 2.216-.98 2.998 2.998 0 0 1 2.842 2.05c.132.396.179.815.139 1.23a2.993 2.993 0 0 1-4.194 3.03 2.997 2.997 0 0 1-1.768-3.03Zm4.679 0c0-1.37-.615-2.171-1.696-2.171-1.084 0-1.694.801-1.694 2.171 0 1.382.61 2.177 1.694 2.177 1.081 0 1.696-.8 1.696-2.177ZM117.492 12.614h1.201v1.005h.093a1.895 1.895 0 0 1 1.887-1.127 2.06 2.06 0 0 1 2.118 1.44c.091.295.115.606.07.912v4.092h-1.248v-3.78c0-1.015-.441-1.52-1.364-1.52a1.451 1.451 0 0 0-1.509 1.602v3.698h-1.248v-6.322ZM129.909 11.04v1.603h1.369v1.051h-1.369v3.25c0 .663.273.953.894.953.159 0 .318-.01.475-.029v1.04c-.224.04-.451.06-.678.063-1.388 0-1.94-.488-1.94-1.707v-3.57h-1.004v-1.05h1.004V11.04h1.249ZM132.984 10.146h1.237v3.484h.099a1.947 1.947 0 0 1 1.927-1.132 2.082 2.082 0 0 1 2.177 2.357v4.081h-1.248v-3.774c0-1.01-.471-1.52-1.352-1.52a1.476 1.476 0 0 0-1.592 1.602v3.692h-1.248v-8.79ZM145.706 17.23a2.566 2.566 0 0 1-2.739 1.828 2.868 2.868 0 0 1-2.822-2.032 2.882 2.882 0 0 1-.099-1.23 2.915 2.915 0 0 1 1.703-3.05c.381-.171.795-.257 1.212-.254 1.759 0 2.82 1.202 2.82 3.187v.435h-4.464v.07a1.68 1.68 0 0 0 .442 1.278 1.666 1.666 0 0 0 1.242.534 1.518 1.518 0 0 0 1.504-.767h1.201Zm-4.389-2.038h3.193a1.529 1.529 0 0 0-.415-1.164 1.524 1.524 0 0 0-1.141-.474 1.612 1.612 0 0 0-1.163.474 1.623 1.623 0 0 0-.474 1.164Z" fill="#fff"/></svg>