<svg width="719" height="319" viewBox="0 0 719 319" fill="none" xmlns="http://www.w3.org/2000/svg">
<path d="M269.725 237.975C262.679 226.811 255.959 216.164 244.64 209.201C227.67 198.762 215.07 197.75 203.591 196.83C191.697 195.874 181.005 195.017 167.9 183.866C153.415 171.542 147.567 159.867 141.555 147.867C136.88 138.533 132.106 129.003 123.092 118.817C106.421 99.9773 89.1006 93.4829 68.499 93.4829H0V318.072H718.984V93.4829H650.484C629.882 93.4829 612.565 99.9773 595.892 118.817C586.877 129.003 582.105 138.533 577.428 147.867C571.415 159.866 565.566 171.542 551.082 183.866C537.978 195.017 527.288 195.874 515.391 196.83C503.913 197.75 491.314 198.762 474.344 209.201C463.024 216.164 456.305 226.811 449.258 237.975C434.824 260.846 419.018 285.89 359.492 285.89C299.965 285.89 284.16 260.846 269.725 237.975Z" fill="#6D28D9"/>
<path d="M131.184 185.723L149.032 194.193C149.845 194.579 150.724 194.645 151.564 194.383L155.481 193.164C156.5 192.846 156.965 191.271 156.38 190.116L153.644 184.721C153.406 184.251 153.061 183.895 152.659 183.705L135.101 175.4C134.845 175.278 134.572 175.229 134.3 175.253L128.813 175.742C127.83 175.829 127.177 177.133 127.498 178.372L128.45 182.047C128.894 183.762 129.9 185.114 131.184 185.723Z" fill="#8B5CF6"/>
<path d="M227.481 1.53449C227.861 1.38795 227.826 0.751646 227.435 0.726364C225.02 0.571313 222.841 0.624561 221.046 0.861807C219.506 1.06525 218.322 1.39475 217.532 1.79164C216.87 2.12524 216.77 2.28018 216.739 2.46306C216.718 2.59348 216.752 2.82627 217.269 3.36373C217.623 3.73126 218.105 4.12151 218.715 4.52155C218.958 4.68118 219.251 4.70436 219.525 4.59842L227.481 1.53449Z" fill="#FFE700"/>
<path d="M532 194.624C535.236 195.262 545.1 195.623 548.292 195.685C574.586 196.201 589.238 190.619 589.319 183.217C589.376 178.166 579.502 173.572 564.865 171C561.351 175.188 557.212 179.413 552.162 183.706C545.052 189.759 538.32 192.571 532 194.624Z" fill="#8B5CF6"/>
</svg>
