<svg width="178" height="54" viewBox="0 0 178 54" fill="none" xmlns="http://www.w3.org/2000/svg"><g clip-path="url(#a)"><rect x=".004" width="178" height="54" rx="8.909" fill="#000"/><path d="M27.797 25.957 13.727 41.06l.002.009c.431 1.64 1.912 2.846 3.672 2.846.701 0 1.362-.192 1.928-.528l.044-.028 15.838-9.24-7.414-8.16Z" fill="#EB3131"/><path d="m42.03 23.388-.014-.009-6.837-4.008-7.702 6.93 7.73 7.817 6.8-3.97a3.85 3.85 0 0 0 2.004-3.389 3.842 3.842 0 0 0-1.981-3.371Z" fill="#F6B60B"/><path d="M13.727 12.402c-.085.315-.13.645-.13.989v26.68c0 .344.045.674.13.99l14.554-14.714-14.553-13.945Z" fill="#4285F4"/><path d="m27.899 26.727 7.282-7.36-15.819-9.275a3.768 3.768 0 0 0-1.964-.55c-1.757 0-3.24 1.209-3.671 2.851v.003l14.172 14.331Z" fill="#34A853"/><path d="M63.08 13.689c0 1.12-.328 2.011-.983 2.676-.746.79-1.718 1.188-2.912 1.188-1.143 0-2.119-.4-2.917-1.204-.801-.802-1.202-1.797-1.202-2.984s.401-2.182 1.202-2.983c.801-.802 1.774-1.204 2.917-1.204.57 0 1.111.111 1.628.335.516.223.93.522 1.24.896l-.696.704c-.525-.634-1.249-.952-2.172-.952-.834 0-1.555.296-2.165.891-.611.595-.915 1.363-.915 2.313 0 .947.304 1.718.915 2.313.61.595 1.331.891 2.165.891.887 0 1.625-.299 2.216-.897.384-.388.605-.93.666-1.623h-2.879v-.963h3.843c.03.206.05.407.05.603ZM69.176 10.34h-3.61v2.543h3.254v.963h-3.258v2.542h3.611v.986h-4.63V9.358h4.63v.983M73.47 17.375h-1.02v-7.032h-2.216v-.986h5.448v.986h-2.215l.002 7.032ZM79.629 17.375V9.357h1.02v8.018h-1.02ZM85.165 17.375h-1.02v-7.032H81.93v-.986h5.447v.986h-2.215l.003 7.032ZM92.63 15.664c.59.6 1.305.902 2.156.902.848 0 1.569-.299 2.155-.902.588-.6.88-1.369.88-2.302s-.295-1.701-.88-2.302c-.586-.6-1.304-.902-2.155-.902-.848 0-1.567.299-2.155.902-.586.6-.881 1.37-.881 2.302 0 .933.295 1.701.88 2.302Zm5.065.673c-.78.81-1.749 1.215-2.91 1.215-1.157 0-2.126-.405-2.906-1.215-.779-.81-1.168-1.801-1.168-2.972 0-1.17.39-2.162 1.168-2.972.78-.81 1.75-1.216 2.907-1.216 1.152 0 2.119.408 2.903 1.221.782.813 1.174 1.802 1.174 2.967-.002 1.17-.392 2.162-1.168 2.972ZM100.289 17.372V9.354h1.24l3.854 6.238h.045l-.045-1.545v-4.69h1.02v8.018h-1.064l-4.031-6.54h-.044l.044 1.545v4.995l-1.019-.003ZM141.731 40.091h2.465V23.386h-2.465V40.09Zm22.212-10.688-2.829 7.24h-.086l-2.934-7.243h-2.657l4.403 10.124-2.508 5.632h2.572l6.779-15.753h-2.74Zm-13.987 8.788c-.807 0-1.934-.407-1.934-1.419 0-1.29 1.403-1.785 2.613-1.785 1.083 0 1.594.238 2.252.559-.188 1.55-1.506 2.645-2.931 2.645Zm.298-9.154c-1.785 0-3.636.796-4.401 2.559l2.191.925c.467-.925 1.34-1.224 2.251-1.224 1.277 0 2.572.774 2.594 2.148v.173c-.447-.257-1.403-.645-2.572-.645-2.359 0-4.759 1.31-4.759 3.76 0 2.235 1.933 3.677 4.102 3.677 1.658 0 2.572-.752 3.147-1.635h.085v1.29h2.382V33.66c-.003-2.97-2.194-4.623-5.02-4.623Zm-15.239 2.4h-3.505V25.71h3.505c1.843 0 2.89 1.545 2.89 2.863 0 1.294-1.047 2.864-2.89 2.864Zm-.063-8.054h-5.909v16.705h2.467v-6.33h3.442c2.735 0 5.42-2 5.42-5.187 0-3.188-2.688-5.188-5.42-5.188Zm-32.22 14.814c-1.702 0-3.13-1.441-3.13-3.422 0-2.003 1.425-3.467 3.13-3.467 1.682 0 3.003 1.464 3.003 3.467-.003 1.978-1.324 3.422-3.003 3.422Zm2.831-7.858h-.085c-.553-.668-1.619-1.271-2.959-1.271-2.81 0-5.387 2.497-5.387 5.704 0 3.188 2.577 5.663 5.387 5.663 1.342 0 2.406-.604 2.959-1.29h.085v.818c0 2.173-1.149 3.338-3.003 3.338-1.511 0-2.447-1.098-2.831-2.023l-2.15.905c.62 1.506 2.257 3.358 4.981 3.358 2.896 0 5.343-1.72 5.343-5.92V29.418h-2.343v.922h.003Zm4.045 9.752h2.469V23.386h-2.469V40.09Zm6.111-5.511c-.064-2.196 1.682-3.316 2.939-3.316.981 0 1.81.494 2.086 1.206l-5.025 2.11Zm7.663-1.895c-.47-1.27-1.895-3.617-4.812-3.617-2.896 0-5.302 2.304-5.302 5.682 0 3.187 2.384 5.685 5.578 5.685 2.577 0 4.066-1.593 4.682-2.52l-1.917-1.29c-.638.946-1.511 1.572-2.768 1.572s-2.149-.581-2.724-1.724l7.514-3.142-.251-.646Zm-59.877-1.874v2.41h5.705c-.171 1.356-.616 2.347-1.298 3.037-.832.841-2.13 1.766-4.407 1.766-3.514 0-6.26-2.864-6.26-6.414 0-3.553 2.746-6.417 6.26-6.417 1.895 0 3.28.755 4.302 1.724l1.682-1.701c-1.425-1.378-3.32-2.434-5.984-2.434-4.812 0-8.857 3.962-8.857 8.828s4.045 8.828 8.857 8.828c2.597 0 4.556-.86 6.09-2.476 1.574-1.592 2.066-3.832 2.066-5.64a7.91 7.91 0 0 0-.127-1.505h-8.029v-.006Zm14.642 7.386c-1.704 0-3.171-1.422-3.171-3.444 0-2.045 1.47-3.445 3.171-3.445 1.702 0 3.172 1.4 3.172 3.445 0 2.022-1.467 3.444-3.172 3.444Zm0-9.13c-3.108 0-5.641 2.39-5.641 5.683 0 3.271 2.533 5.685 5.641 5.685s5.641-2.411 5.641-5.685c0-3.294-2.533-5.682-5.64-5.682Zm12.308 9.13c-1.705 0-3.172-1.422-3.172-3.444 0-2.045 1.47-3.445 3.172-3.445 1.701 0 3.171 1.4 3.171 3.445 0 2.022-1.467 3.444-3.171 3.444Zm0-9.13c-3.108 0-5.642 2.39-5.642 5.683 0 3.271 2.534 5.685 5.642 5.685 3.108 0 5.64-2.411 5.64-5.685 0-3.294-2.532-5.682-5.64-5.682Z" fill="#fff"/></g><defs><clipPath id="a"><rect x=".004" width="178" height="54" rx="12" fill="#fff"/></clipPath></defs></svg>