<svg xmlns="http://www.w3.org/2000/svg" width="39" height="36" viewBox="0 0 39 36" fill="none">
    <link xmlns="" type="text/css" rel="stylesheet" id="dark-mode-custom-link" />
    <link xmlns="" type="text/css" rel="stylesheet" id="dark-mode-general-link" />
    <style xmlns="" lang="en" type="text/css" id="dark-mode-custom-style" />
    <style xmlns="" lang="en" type="text/css" id="dark-mode-native-style" />
    <style xmlns="" lang="en" type="text/css" id="dark-mode-native-sheet" />
    <path fill-rule="evenodd" clip-rule="evenodd"
        d="M11.3222 17.9972L15.1047 14.1866C15.325 13.9798 15.4157 13.6683 15.3411 13.3744C15.2666 13.0804 15.0388 12.8509 14.747 12.7758C14.4553 12.7008 14.1461 12.7921 13.9408 13.0141L9 17.9917L10.2681 19.2693L13.9573 22.9859C14.1626 23.2079 14.4717 23.2992 14.7635 23.2242C15.0553 23.1491 15.2831 22.9196 15.3576 22.6257C15.4321 22.3317 15.3414 22.0202 15.1211 21.8134L11.3222 17.9972Z"
        fill="#25265E" />
    <path fill-rule="evenodd" clip-rule="evenodd"
        d="M22.417 10.4123L17.6253 25.2917L22.417 10.4123Z" fill="#25265E" />
    <path d="M22.417 10.4123L17.6253 25.2917" stroke="#25265E" stroke-width="1.91667"
        stroke-linecap="round" />
    <path fill-rule="evenodd" clip-rule="evenodd"
        d="M28.3956 17.9972L24.6131 14.1866C24.3928 13.9798 24.3021 13.6683 24.3766 13.3743C24.4511 13.0804 24.679 12.8509 24.9707 12.7758C25.2625 12.7008 25.5717 12.7921 25.777 13.0141L30.7178 17.9917L29.4496 19.2693L25.7605 22.9859C25.5552 23.2079 25.246 23.2992 24.9543 23.2242C24.6625 23.1491 24.4347 22.9196 24.3602 22.6257C24.2857 22.3317 24.3763 22.0202 24.5966 21.8134L28.3956 17.9972Z"
        fill="#25265E" />
    <path fill-rule="evenodd" clip-rule="evenodd"
        d="M37.5 1.5H1.5V34.5H37.5V12.6925C37.7506 12.4932 38.011 12.3753 38.2781 12.3753C38.5253 12.3753 38.7667 12.4763 39 12.6493V34.5C39 35.3284 38.3284 36 37.5 36H1.5C0.671574 36 0 35.3284 0 34.5V1.5C0 0.671574 0.671573 0 1.5 0H37.5C38.3284 0 39 0.671573 39 1.5V7.51943C38.7667 7.69241 38.5253 7.79338 38.2781 7.79338C38.011 7.79338 37.7506 7.67548 37.5 7.47625V1.5Z"
        fill="#25265E" />
</svg>