<svg xmlns="http://www.w3.org/2000/svg" width="41" height="36" viewBox="0 0 41 36" fill="none">
    <link xmlns="" type="text/css" rel="stylesheet" id="dark-mode-custom-link" />
    <link xmlns="" type="text/css" rel="stylesheet" id="dark-mode-general-link" />
    <style xmlns="" lang="en" type="text/css" id="dark-mode-custom-style" />
    <style xmlns="" lang="en" type="text/css" id="dark-mode-native-style" />
    <style xmlns="" lang="en" type="text/css" id="dark-mode-native-sheet" />
    <path fill-rule="evenodd" clip-rule="evenodd"
        d="M8.95328 17.3245C13.4288 17.3245 17.0569 13.6964 17.0569 9.22086C17.0569 4.74532 13.4288 1.11719 8.95328 1.11719C4.47775 1.11719 0.849609 4.74532 0.849609 9.22086C0.849609 13.6964 4.47775 17.3245 8.95328 17.3245Z"
        fill="white" />
    <mask id="path-2-inside-1" fill="white">
        <path fill-rule="evenodd" clip-rule="evenodd"
            d="M0 9C0 4.02944 4.02944 0 9 0C13.9706 0 18 4.02944 18 9C18 13.9706 13.9706 18 9 18C4.02944 18 0 13.9706 0 9ZM9 1.63636C4.93318 1.63636 1.63636 4.93318 1.63636 9C1.63636 13.0668 4.93318 16.3636 9 16.3636C13.0668 16.3636 16.3636 13.0668 16.3636 9C16.3636 4.93318 13.0668 1.63636 9 1.63636Z" />
    </mask>
    <path fill-rule="evenodd" clip-rule="evenodd"
        d="M0 9C0 4.02944 4.02944 0 9 0C13.9706 0 18 4.02944 18 9C18 13.9706 13.9706 18 9 18C4.02944 18 0 13.9706 0 9ZM9 1.63636C4.93318 1.63636 1.63636 4.93318 1.63636 9C1.63636 13.0668 4.93318 16.3636 9 16.3636C13.0668 16.3636 16.3636 13.0668 16.3636 9C16.3636 4.93318 13.0668 1.63636 9 1.63636Z"
        fill="#25265E" />
    <path
        d="M9 -0.554126C3.7234 -0.554126 -0.554126 3.7234 -0.554126 9H0.554126C0.554126 4.33547 4.33547 0.554126 9 0.554126V-0.554126ZM18.5541 9C18.5541 3.7234 14.2766 -0.554126 9 -0.554126V0.554126C13.6645 0.554126 17.4459 4.33547 17.4459 9H18.5541ZM9 18.5541C14.2766 18.5541 18.5541 14.2766 18.5541 9H17.4459C17.4459 13.6645 13.6645 17.4459 9 17.4459V18.5541ZM-0.554126 9C-0.554126 14.2766 3.7234 18.5541 9 18.5541V17.4459C4.33547 17.4459 0.554126 13.6645 0.554126 9H-0.554126ZM2.19049 9C2.19049 5.23921 5.23921 2.19049 9 2.19049V1.08224C4.62714 1.08224 1.08224 4.62714 1.08224 9H2.19049ZM9 15.8095C5.23921 15.8095 2.19049 12.7608 2.19049 9H1.08224C1.08224 13.3729 4.62714 16.9178 9 16.9178V15.8095ZM15.8095 9C15.8095 12.7608 12.7608 15.8095 9 15.8095V16.9178C13.3729 16.9178 16.9178 13.3729 16.9178 9H15.8095ZM9 2.19049C12.7608 2.19049 15.8095 5.23921 15.8095 9H16.9178C16.9178 4.62714 13.3729 1.08224 9 1.08224V2.19049Z"
        fill="#25265E" mask="url(#path-2-inside-1)" />
    <path fill-rule="evenodd" clip-rule="evenodd"
        d="M13.0097 6.27749C12.8288 6.10542 12.5359 6.10542 12.3551 6.27749L7.74227 10.6726L4.98199 8.0426C4.79951 7.88059 4.51514 7.88537 4.33877 8.05341C4.16241 8.22146 4.15739 8.4924 4.32743 8.66627L7.41499 11.6081C7.59581 11.7802 7.88874 11.7802 8.06955 11.6081L13.0097 6.90116C13.1903 6.72888 13.1903 6.44978 13.0097 6.27749Z"
        fill="#25265E" stroke="#25265E" stroke-width="0.609539" />
    <line x1="24.75" y1="4.5" x2="39.75" y2="4.5" stroke="#25265E" stroke-width="1.5"
        stroke-linecap="round" stroke-linejoin="round" />
    <line x1="24.75" y1="13.5" x2="39.75" y2="13.5" stroke="#25265E" stroke-width="1.5"
        stroke-linecap="round" stroke-linejoin="round" />
    <line x1="0.75" y1="26.25" x2="39.75" y2="26.25" stroke="#25265E" stroke-width="1.5"
        stroke-linecap="round" stroke-linejoin="round" />
    <line x1="0.75" y1="35.25" x2="39.75" y2="35.25" stroke="#25265E" stroke-width="1.5"
        stroke-linecap="round" stroke-linejoin="round" />
</svg>