<svg width="262" height="60" viewBox="0 0 262 60" fill="none" xmlns="http://www.w3.org/2000/svg">
<path d="M54.552 15.04C54.552 18.6667 53.272 21.8027 50.712 24.448C48.152 27.0507 44.4187 28.928 39.512 30.08C42.1573 30.8053 44.1627 32 45.528 33.664C46.8933 35.2853 47.576 37.1627 47.576 39.296C47.576 42.6667 46.5093 45.5893 44.376 48.064C42.2853 50.5387 39.2133 52.4587 35.16 53.824C31.1067 55.1467 26.2213 55.808 20.504 55.808C18.3707 55.808 16.664 55.744 15.384 55.616C15.3413 56.8107 14.8293 57.7067 13.848 58.304C12.8667 58.9013 11.608 59.2 10.072 59.2C8.536 59.2 7.46933 58.8587 6.872 58.176C6.31733 57.4933 6.08267 56.4907 6.168 55.168C6.552 49.1947 7.29867 42.944 8.408 36.416C9.51733 29.8453 10.9253 23.5093 12.632 17.408C12.9307 16.3413 13.528 15.5947 14.424 15.168C15.32 14.7413 16.4933 14.528 17.944 14.528C20.5467 14.528 21.848 15.2533 21.848 16.704C21.848 17.3013 21.72 17.984 21.464 18.752C20.3547 22.08 19.2453 26.6027 18.136 32.32C17.0267 37.9947 16.2373 43.4133 15.768 48.576C17.816 48.7467 19.48 48.832 20.76 48.832C26.7333 48.832 31.1067 47.9787 33.88 46.272C36.696 44.5227 38.104 42.304 38.104 39.616C38.104 37.7387 37.2933 36.16 35.672 34.88C34.0933 33.6 31.4267 32.896 27.672 32.768C26.8187 32.7253 26.2213 32.512 25.88 32.128C25.5387 31.744 25.368 31.1253 25.368 30.272C25.368 29.0347 25.624 28.032 26.136 27.264C26.648 26.496 27.5867 26.0907 28.952 26.048C31.9813 25.9627 34.712 25.5147 37.144 24.704C39.6187 23.8933 41.56 22.7627 42.968 21.312C44.376 19.8187 45.08 18.0907 45.08 16.128C45.08 13.6533 43.864 11.712 41.432 10.304C39 8.85333 35.2667 8.128 30.232 8.128C25.6667 8.128 21.2507 8.72533 16.984 9.92C12.7173 11.072 9.09067 12.544 6.104 14.336C4.73867 15.1467 3.58667 15.552 2.648 15.552C1.88 15.552 1.28267 15.296 0.856 14.784C0.472 14.2293 0.28 13.5467 0.28 12.736C0.28 11.6693 0.493333 10.752 0.92 9.984C1.38933 9.216 2.47733 8.34133 4.184 7.36C7.768 5.312 11.9707 3.712 16.792 2.56C21.6133 1.408 26.5413 0.831997 31.576 0.831997C39.2987 0.831997 45.0587 2.13333 48.856 4.736C52.6533 7.33867 54.552 10.7733 54.552 15.04ZM81.3035 41.728C81.8582 41.728 82.2848 41.984 82.5835 42.496C82.9248 43.008 83.0955 43.712 83.0955 44.608C83.0955 46.3147 82.6902 47.6373 81.8795 48.576C80.3008 50.496 78.0608 52.2667 75.1595 53.888C72.3008 55.5093 69.2288 56.32 65.9435 56.32C61.4635 56.32 57.9862 55.104 55.5115 52.672C53.0368 50.24 51.7995 46.912 51.7995 42.688C51.7995 39.744 52.4182 37.0133 53.6555 34.496C54.8928 31.936 56.5995 29.9093 58.7755 28.416C60.9942 26.9227 63.4902 26.176 66.2635 26.176C68.7382 26.176 70.7222 26.9227 72.2155 28.416C73.7088 29.8667 74.4555 31.8507 74.4555 34.368C74.4555 37.312 73.3888 39.8507 71.2555 41.984C69.1648 44.0747 65.6022 45.7387 60.5675 46.976C61.6342 48.9387 63.6608 49.92 66.6475 49.92C68.5675 49.92 70.7435 49.2587 73.1755 47.936C75.6502 46.5707 77.7835 44.8 79.5755 42.624C80.0875 42.0267 80.6635 41.728 81.3035 41.728ZM65.1755 32.448C63.5968 32.448 62.2528 33.3653 61.1435 35.2C60.0768 37.0347 59.5435 39.2533 59.5435 41.856V41.984C62.0608 41.3867 64.0448 40.4907 65.4955 39.296C66.9462 38.1013 67.6715 36.7147 67.6715 35.136C67.6715 34.3253 67.4368 33.6853 66.9675 33.216C66.5408 32.704 65.9435 32.448 65.1755 32.448ZM106.429 41.728C106.983 41.728 107.41 41.984 107.708 42.496C108.05 43.008 108.221 43.712 108.221 44.608C108.221 46.3147 107.815 47.6373 107.005 48.576C105.426 50.496 103.186 52.2667 100.285 53.888C97.4258 55.5093 94.3538 56.32 91.0685 56.32C86.5885 56.32 83.1112 55.104 80.6365 52.672C78.1618 50.24 76.9245 46.912 76.9245 42.688C76.9245 39.744 77.5432 37.0133 78.7805 34.496C80.0178 31.936 81.7245 29.9093 83.9005 28.416C86.1192 26.9227 88.6152 26.176 91.3885 26.176C93.8632 26.176 95.8472 26.9227 97.3405 28.416C98.8338 29.8667 99.5805 31.8507 99.5805 34.368C99.5805 37.312 98.5138 39.8507 96.3805 41.984C94.2898 44.0747 90.7272 45.7387 85.6925 46.976C86.7592 48.9387 88.7858 49.92 91.7725 49.92C93.6925 49.92 95.8685 49.2587 98.3005 47.936C100.775 46.5707 102.909 44.8 104.701 42.624C105.213 42.0267 105.789 41.728 106.429 41.728ZM90.3005 32.448C88.7218 32.448 87.3778 33.3653 86.2685 35.2C85.2018 37.0347 84.6685 39.2533 84.6685 41.856V41.984C87.1858 41.3867 89.1698 40.4907 90.6205 39.296C92.0712 38.1013 92.7965 36.7147 92.7965 35.136C92.7965 34.3253 92.5618 33.6853 92.0925 33.216C91.6658 32.704 91.0685 32.448 90.3005 32.448ZM149.474 41.728C150.028 41.728 150.455 41.984 150.754 42.496C151.095 43.008 151.266 43.712 151.266 44.608C151.266 46.272 150.86 47.5947 150.05 48.576C147.66 51.4347 145.335 53.44 143.074 54.592C140.855 55.744 138.167 56.32 135.01 56.32C132.791 56.32 130.743 56.0427 128.866 55.488C126.988 54.9333 124.706 54.1013 122.018 52.992C119.586 51.9253 117.239 51.0507 114.978 50.368C112.802 54.336 109.538 56.32 105.186 56.32C102.796 56.32 100.898 55.7867 99.4895 54.72C98.0388 53.6107 97.3135 52.2027 97.3135 50.496C97.3135 48.4053 98.3162 46.6773 100.322 45.312C102.327 43.904 104.994 43.2 108.322 43.2H109.154L110.306 24.576C110.562 20.3093 111.33 16.7893 112.61 14.016C113.89 11.2427 115.66 8.87467 117.922 6.912C119.884 5.20533 122.124 3.92533 124.642 3.072C127.159 2.176 129.826 1.728 132.642 1.728C137.25 1.728 140.791 2.92266 143.266 5.312C145.74 7.70133 146.978 10.816 146.978 14.656C146.978 17.2587 146.508 19.3707 145.57 20.992C144.631 22.5707 143.33 23.36 141.666 23.36C140.471 23.36 139.532 23.0827 138.85 22.528C138.167 21.9307 137.826 21.0987 137.826 20.032C137.826 19.648 137.911 18.944 138.082 17.92C138.338 16.7253 138.466 15.6587 138.466 14.72C138.466 12.928 137.932 11.52 136.866 10.496C135.842 9.42933 134.263 8.896 132.13 8.896C128.375 8.896 125.474 10.1333 123.426 12.608C121.378 15.04 120.076 18.88 119.522 24.128L118.05 38.656C117.836 40.704 117.559 42.4747 117.218 43.968C119.948 44.4373 123.362 45.184 127.458 46.208C129.847 46.8053 131.682 47.232 132.962 47.488C134.242 47.744 135.372 47.872 136.354 47.872C138.828 47.872 140.94 47.4667 142.69 46.656C144.482 45.8027 146.167 44.4587 147.746 42.624C148.258 42.0267 148.834 41.728 149.474 41.728ZM179.741 41.728C180.296 41.728 180.722 41.984 181.021 42.496C181.362 43.008 181.533 43.712 181.533 44.608C181.533 46.3147 181.128 47.6373 180.317 48.576C178.738 50.496 176.498 52.2667 173.597 53.888C170.738 55.5093 167.666 56.32 164.381 56.32C159.901 56.32 156.424 55.104 153.949 52.672C151.474 50.24 150.237 46.912 150.237 42.688C150.237 39.744 150.856 37.0133 152.093 34.496C153.33 31.936 155.037 29.9093 157.213 28.416C159.432 26.9227 161.928 26.176 164.701 26.176C167.176 26.176 169.16 26.9227 170.653 28.416C172.146 29.8667 172.893 31.8507 172.893 34.368C172.893 37.312 171.826 39.8507 169.693 41.984C167.602 44.0747 164.04 45.7387 159.005 46.976C160.072 48.9387 162.098 49.92 165.085 49.92C167.005 49.92 169.181 49.2587 171.613 47.936C174.088 46.5707 176.221 44.8 178.013 42.624C178.525 42.0267 179.101 41.728 179.741 41.728ZM163.613 32.448C162.034 32.448 160.69 33.3653 159.581 35.2C158.514 37.0347 157.981 39.2533 157.981 41.856V41.984C160.498 41.3867 162.482 40.4907 163.933 39.296C165.384 38.1013 166.109 36.7147 166.109 35.136C166.109 34.3253 165.874 33.6853 165.405 33.216C164.978 32.704 164.381 32.448 163.613 32.448ZM183.882 56.32C181.236 56.32 179.124 55.36 177.546 53.44C175.967 51.52 175.178 49.0027 175.178 45.888C175.178 42.4747 175.967 39.2533 177.546 36.224C179.124 33.152 181.215 30.6987 183.818 28.864C186.463 26.9867 189.258 26.048 192.202 26.048C193.14 26.048 193.759 26.24 194.058 26.624C194.399 26.9653 194.676 27.6053 194.89 28.544C195.786 28.3733 196.724 28.288 197.706 28.288C199.796 28.288 200.842 29.0347 200.842 30.528C200.842 31.424 200.522 33.5573 199.882 36.928C198.9 41.8347 198.41 45.248 198.41 47.168C198.41 47.808 198.559 48.32 198.858 48.704C199.199 49.088 199.626 49.28 200.138 49.28C200.948 49.28 201.93 48.768 203.082 47.744C204.234 46.6773 205.791 44.9707 207.754 42.624C208.266 42.0267 208.842 41.728 209.482 41.728C210.036 41.728 210.463 41.984 210.762 42.496C211.103 43.008 211.274 43.712 211.274 44.608C211.274 46.3147 210.868 47.6373 210.058 48.576C208.308 50.752 206.452 52.5867 204.49 54.08C202.527 55.5733 200.628 56.32 198.794 56.32C197.386 56.32 196.084 55.8507 194.89 54.912C193.738 53.9307 192.863 52.608 192.266 50.944C190.047 54.528 187.252 56.32 183.882 56.32ZM186.186 49.856C187.124 49.856 188.02 49.3013 188.874 48.192C189.727 47.0827 190.346 45.6107 190.73 43.776L193.098 32C191.306 32.0427 189.642 32.7253 188.106 34.048C186.612 35.328 185.418 37.0347 184.522 39.168C183.626 41.3013 183.178 43.5627 183.178 45.952C183.178 47.2747 183.434 48.256 183.946 48.896C184.5 49.536 185.247 49.856 186.186 49.856ZM210.616 56.32C208.995 56.32 207.843 55.4667 207.16 53.76C206.52 52.0533 206.2 49.3227 206.2 45.568C206.2 40.0213 206.989 34.752 208.568 29.76C208.952 28.5227 209.571 27.6267 210.424 27.072C211.32 26.4747 212.557 26.176 214.136 26.176C214.989 26.176 215.587 26.2827 215.928 26.496C216.269 26.7093 216.44 27.1147 216.44 27.712C216.44 28.3947 216.12 29.9307 215.48 32.32C215.053 34.0267 214.712 35.52 214.456 36.8C214.2 38.08 213.987 39.6587 213.816 41.536C215.224 37.8667 216.803 34.88 218.552 32.576C220.301 30.272 222.008 28.6293 223.672 27.648C225.379 26.6667 226.936 26.176 228.344 26.176C231.117 26.176 232.504 27.5627 232.504 30.336C232.504 30.8907 232.312 32.2347 231.928 34.368C231.587 36.0747 231.416 37.1413 231.416 37.568C231.416 39.0613 231.949 39.808 233.016 39.808C234.211 39.808 235.747 38.8693 237.624 36.992C238.179 36.4373 238.755 36.16 239.352 36.16C239.907 36.16 240.333 36.416 240.632 36.928C240.973 37.3973 241.144 38.0373 241.144 38.848C241.144 40.4267 240.717 41.664 239.864 42.56C238.669 43.7973 237.261 44.864 235.64 45.76C234.061 46.6133 232.376 47.04 230.584 47.04C228.323 47.04 226.595 46.464 225.4 45.312C224.248 44.16 223.672 42.6027 223.672 40.64C223.672 40 223.736 39.36 223.864 38.72C223.949 37.8667 223.992 37.2907 223.992 36.992C223.992 36.3093 223.757 35.968 223.288 35.968C222.648 35.968 221.795 36.6933 220.728 38.144C219.704 39.552 218.68 41.4293 217.656 43.776C216.632 46.1227 215.8 48.5973 215.16 51.2C214.691 53.2053 214.136 54.5707 213.496 55.296C212.899 55.9787 211.939 56.32 210.616 56.32ZM239.741 56.32C238.12 56.32 236.968 55.4667 236.285 53.76C235.645 52.0533 235.325 49.3227 235.325 45.568C235.325 40.0213 236.114 34.752 237.693 29.76C238.077 28.5227 238.696 27.6267 239.549 27.072C240.445 26.4747 241.682 26.176 243.261 26.176C244.114 26.176 244.712 26.2827 245.053 26.496C245.394 26.7093 245.565 27.1147 245.565 27.712C245.565 28.3947 245.245 29.9307 244.605 32.32C244.178 34.0267 243.837 35.52 243.581 36.8C243.325 38.08 243.112 39.6587 242.941 41.536C244.349 37.8667 245.928 34.88 247.677 32.576C249.426 30.272 251.133 28.6293 252.797 27.648C254.504 26.6667 256.061 26.176 257.469 26.176C258.834 26.176 259.858 26.5387 260.541 27.264C261.266 27.9467 261.629 28.9707 261.629 30.336C261.629 31.4453 261.394 33.536 260.925 36.608C260.498 39.2107 260.157 41.6853 259.901 44.032C259.645 46.336 259.517 48.9173 259.517 51.776C259.517 53.3973 259.176 54.5707 258.493 55.296C257.853 55.9787 256.786 56.32 255.293 56.32C253.885 56.32 252.861 55.9573 252.221 55.232C251.581 54.5067 251.261 53.4187 251.261 51.968C251.261 50.2613 251.56 47.4453 252.157 43.52C252.669 40.1067 252.925 37.9307 252.925 36.992C252.925 36.3093 252.69 35.968 252.221 35.968C251.666 35.968 250.877 36.6933 249.853 38.144C248.872 39.552 247.848 41.4293 246.781 43.776C245.757 46.1227 244.925 48.5973 244.285 51.2C243.816 53.2053 243.261 54.5707 242.621 55.296C242.024 55.9787 241.064 56.32 239.741 56.32Z" fill="white"/>
</svg>
