<svg width="600" height="555" viewBox="0 0 600 555" fill="none" xmlns="http://www.w3.org/2000/svg">
<mask id="mask0_32_150" style="mask-type:luminance" maskUnits="userSpaceOnUse" x="118" y="58" width="314" height="333">
<path d="M368.513 58.0405L118.763 114.761L181.394 390.534L431.143 333.813L368.513 58.0405Z" fill="white"/>
</mask>
<g mask="url(#mask0_32_150)">
<mask id="mask1_32_150" style="mask-type:alpha" maskUnits="userSpaceOnUse" x="134" y="72" width="282" height="304">
<path fill-rule="evenodd" clip-rule="evenodd" d="M204.523 95.2853L281.849 77.7227C311.983 70.8789 323.697 71.8619 336.191 75.8654C348.685 79.8691 359.499 87.4523 368.153 98.2786L368.67 98.9288C377.043 109.568 382.837 121.124 390.243 153.732L409.409 238.123L409.852 240.094C416.948 271.909 416.506 284.445 413.439 297.678C410.31 311.18 403.832 322.69 394.294 331.697L393.72 332.235C384.341 340.943 374.011 346.788 344.48 353.495L268.052 370.853L266.266 371.254C237.449 377.656 225.954 376.634 213.71 372.71C201.216 368.706 190.402 361.123 181.748 350.297L181.232 349.646C172.943 339.117 167.183 327.688 159.885 295.835L140.493 210.453C132.936 177.179 133.333 164.4 136.462 150.898C139.591 137.396 146.069 125.885 155.608 116.878L156.181 116.341C165.465 107.721 175.679 101.907 204.523 95.2853Z" fill="white"/>
</mask>
<g mask="url(#mask1_32_150)">
<path d="M360.682 23.5698L110.932 80.2906L181.391 390.535L431.141 333.814L360.682 23.5698Z" fill="#6D28D9"/>
</g>
</g>
<rect width="26.7445" height="53.9075" rx="13.3722" transform="matrix(0.482609 -0.860384 0.84882 0.554967 215.183 409.14)" fill="#6D28D9"/>
<rect width="25.9054" height="55.647" rx="12.9527" transform="matrix(0.927432 0.383647 -0.322705 0.94288 414.065 338.646)" fill="#6D28D9"/>
<path d="M390.799 153.983L430.37 129.966C430.37 129.966 462.91 109.125 476.57 123.25C489.964 137.101 484.971 161.858 480.648 180.749C475.571 202.933 474.198 209.189 461.321 231.613C447.329 255.979 413.884 283.033 413.884 283.033L390.799 153.983Z" fill="#6D28D9"/>
<path d="M142.757 218.343L96.7244 213.297C96.7244 213.297 58.4088 208.158 52.0174 226.727C45.7501 244.936 60.7655 265.258 72.6872 280.549C86.6874 298.505 90.5824 303.594 111.752 318.473C134.756 334.64 176.523 345.025 176.523 345.025L142.757 218.343Z" fill="#6D28D9"/>
</svg>
