<svg width="500" height="270" viewBox="0 0 500 270" fill="none" xmlns="http://www.w3.org/2000/svg">
<ellipse cx="22.2644" cy="71.6622" rx="22.2644" ry="71.6622" transform="matrix(0.575084 -0.818094 0.800704 0.59906 0 81.4285)" fill="#C4B8EE"/>
<ellipse cx="21.8768" cy="72.912" rx="21.8768" ry="72.912" transform="matrix(0.947782 -0.318921 0.301451 0.953482 76.3337 13.9543)" fill="#C4B8EE"/>
<ellipse cx="22.4997" cy="70.8817" rx="22.4997" ry="70.8817" transform="matrix(0.018173 -0.999835 0.999813 0.0193413 10.9043 191.243)" fill="#C4B8EE"/>
<ellipse cx="22.2696" cy="71.6452" rx="22.2696" ry="71.6452" transform="matrix(-0.568613 -0.822605 -0.805498 0.592598 500 93.2592)" fill="#C4B8EE"/>
<ellipse cx="21.8768" cy="72.912" rx="21.8768" ry="72.912" transform="matrix(-0.947782 -0.318921 -0.301451 0.953482 423.473 25.2051)" fill="#C4B8EE"/>
<ellipse cx="22.4377" cy="71.0889" rx="22.4377" ry="71.0889" transform="matrix(0.293859 -0.955849 -0.950416 -0.310981 478.594 224.921)" fill="#C4B8EE"/>
<mask id="mask0_24_65" style="mask-type:luminance" maskUnits="userSpaceOnUse" x="119" y="0" width="263" height="271">
<path d="M381.662 0.0012207H119.948V270H381.662V0.0012207Z" fill="white"/>
</mask>
<g mask="url(#mask0_24_65)">
<mask id="mask1_24_65" style="mask-type:alpha" maskUnits="userSpaceOnUse" x="119" y="0" width="263" height="271">
<path fill-rule="evenodd" clip-rule="evenodd" d="M209.816 0.00223788L290.847 0.0012207C322.425 0.0012207 333.875 3.39319 345.419 9.76258C356.963 16.132 366.023 25.4788 372.197 37.3886L372.565 38.1032C378.501 49.7792 381.659 61.7631 381.659 93.6888V176.313L381.655 178.242C381.526 209.363 378.248 220.942 372.197 232.613C366.023 244.523 356.963 253.869 345.419 260.239L344.726 260.618C333.409 266.742 321.792 270 290.847 270H210.758L208.887 269.996C178.722 269.863 167.499 266.481 156.185 260.239C144.641 253.869 135.581 244.523 129.407 232.613L129.04 231.898C123.163 220.342 120.01 208.483 119.946 177.284L119.945 93.6888C119.945 61.1116 123.233 49.2982 129.407 37.3886C135.581 25.4788 144.641 16.132 156.185 9.76258L156.878 9.38399C168.08 3.32137 179.575 0.0680017 209.816 0.00223788Z" fill="white"/>
</mask>
<g mask="url(#mask1_24_65)">
<path d="M381.659 -33.7484H119.945V270.001H381.659V-33.7484Z" fill="#6D28D9"/>
<path d="M169 114.782C177.897 114.782 185.11 107.341 185.11 98.1621C185.11 88.9829 177.897 81.5416 169 81.5416C160.102 81.5416 152.889 88.9829 152.889 98.1621C152.889 107.341 160.102 114.782 169 114.782Z" fill="black"/>
<path d="M332.078 114.782C340.976 114.782 348.189 107.341 348.189 98.1621C348.189 88.9829 340.976 81.5416 332.078 81.5416C323.18 81.5416 315.968 88.9829 315.968 98.1621C315.968 107.341 323.18 114.782 332.078 114.782Z" fill="black"/>
<mask id="mask2_24_65" style="mask-type:alpha" maskUnits="userSpaceOnUse" x="189" y="112" width="124" height="65">
<path d="M250.505 176.379C218.22 176.379 185.426 158.341 190.096 130.235C194.767 102.13 227.027 116.027 250.505 116.179H250.634L251.134 116.177L251.633 116.168L251.761 116.179C275.005 116.029 306.855 102.407 312.021 129.405L312.169 130.235C316.84 158.341 284.046 176.379 251.761 176.379L250.633 176.376H251.633L250.505 176.379Z" fill="white"/>
</mask>
<g mask="url(#mask2_24_65)">
<path d="M319.849 101.755H186.362V176.378H319.849V101.755Z" fill="black"/>
<path fill-rule="evenodd" clip-rule="evenodd" d="M237.32 211.656C252.391 211.656 264.61 199.202 264.61 183.842C264.61 168.481 252.391 156.027 237.32 156.027C222.249 156.027 210.031 168.481 210.031 183.842C210.031 199.202 222.249 211.656 237.32 211.656Z" fill="#F59E0B"/>
<path d="M258.036 114.305C258.036 107.374 252.589 101.755 245.87 101.755C239.152 101.755 233.705 107.374 233.705 114.305V117.697C233.705 124.628 239.152 130.248 245.87 130.248C252.589 130.248 258.036 124.628 258.036 117.697V114.305Z" fill="white"/>
<path fill-rule="evenodd" clip-rule="evenodd" d="M264.939 211.656C280.01 211.656 292.228 199.202 292.228 183.842C292.228 168.481 280.01 156.027 264.939 156.027C249.867 156.027 237.648 168.481 237.648 183.842C237.648 199.202 249.867 211.656 264.939 211.656Z" fill="#F59E0B"/>
</g>
</g>
</g>
</svg>
