<svg width="607" height="541" viewBox="0 0 607 541" fill="none" xmlns="http://www.w3.org/2000/svg">
<mask id="mask0_32_165" style="mask-type:luminance" maskUnits="userSpaceOnUse" x="120" y="57" width="316" height="322">
<path d="M376.173 57.0402L120.958 115.002L180.755 378.297L435.97 320.335L376.173 57.0402Z" fill="white"/>
</mask>
<g mask="url(#mask0_32_165)">
<mask id="mask1_32_165" style="mask-type:alpha" maskUnits="userSpaceOnUse" x="136" y="71" width="285" height="293">
<path fill-rule="evenodd" clip-rule="evenodd" d="M208.595 95.1L287.613 77.1532C318.407 70.1596 330.324 70.9315 342.993 74.5858C355.66 78.2405 366.565 85.3487 375.224 95.5953L375.74 96.2108C384.115 106.282 389.849 117.269 396.92 148.402L415.218 228.974L415.641 230.857C422.408 261.233 421.776 273.25 418.46 285.972C415.077 298.953 408.312 310.074 398.466 318.842L397.873 319.365C388.194 327.844 377.587 333.594 347.41 340.447L269.31 358.185L267.485 358.595C238.04 365.146 226.346 364.334 213.931 360.752C201.262 357.097 190.357 349.989 181.699 339.743L181.183 339.127C172.893 329.159 167.191 318.293 160.219 287.883L141.705 206.364C134.49 174.596 135.08 162.348 138.463 149.366C141.846 136.385 148.611 125.264 158.458 116.496L159.049 115.973C168.631 107.58 179.119 101.862 208.595 95.1Z" fill="white"/>
</mask>
<g mask="url(#mask1_32_165)">
<path d="M368.696 24.1293L113.481 82.0913L180.752 378.297L435.967 320.335L368.696 24.1293Z" fill="#6D28D9"/>
<path d="M194.213 216.07C202.89 214.099 208.275 205.245 206.242 196.294C204.21 187.343 195.528 181.684 186.851 183.654C178.174 185.625 172.789 194.479 174.822 203.43C176.855 212.381 185.536 218.04 194.213 216.07Z" fill="black"/>
<path d="M353.242 179.952C361.918 177.982 367.305 169.128 365.272 160.177C363.239 151.225 354.556 145.567 345.88 147.537C337.203 149.508 331.817 158.362 333.85 167.313C335.883 176.264 344.565 181.923 353.242 179.952Z" fill="black"/>
<mask id="mask2_32_165" style="mask-type:alpha" maskUnits="userSpaceOnUse" x="218" y="186" width="122" height="75">
<path d="M287.336 258.086C255.853 265.236 219.878 254.909 218.208 226.466C216.538 198.025 251.074 204.432 274.003 199.38L274.129 199.351L274.617 199.239L275.101 199.12L275.228 199.102C297.862 193.808 325.904 173.47 336.921 198.654L337.249 199.431C348.029 225.804 320.044 250.657 288.561 257.808L287.46 258.054L288.435 257.833L287.336 258.086Z" fill="white"/>
</mask>
<g mask="url(#mask2_32_165)">
<path d="M338.43 169.957L208.258 199.521L224.785 272.29L354.957 242.727L338.43 169.957Z" fill="black"/>
<path fill-rule="evenodd" clip-rule="evenodd" d="M282.291 295.407C296.988 292.069 306.145 277.218 302.743 262.239C299.341 247.26 284.668 237.822 269.971 241.159C255.274 244.497 246.118 259.348 249.519 274.327C252.921 289.306 267.594 298.745 282.291 295.407Z" fill="#FF9600"/>
<path d="M280.932 195.885C279.397 189.126 272.841 184.853 266.29 186.341C259.738 187.829 255.671 194.515 257.206 201.274L257.957 204.582C259.492 211.341 266.048 215.614 272.6 214.126C279.151 212.638 283.218 205.952 281.683 199.193L280.932 195.885Z" fill="white"/>
<path fill-rule="evenodd" clip-rule="evenodd" d="M309.224 289.29C323.921 285.952 333.078 271.102 329.676 256.123C326.274 241.143 311.601 231.705 296.904 235.043C282.207 238.38 273.05 253.231 276.452 268.21C279.854 283.189 294.527 292.628 309.224 289.29Z" fill="#FF9600"/>
</g>
</g>
</g>
<rect x="214.903" y="395.632" width="32" height="56" rx="16" transform="rotate(-58.7692 214.903 395.632)" fill="#FF9600"/>
<rect x="418.505" y="325.213" width="32" height="56" rx="16" transform="rotate(20.6597 418.505 325.213)" fill="#FF9600"/>
<path d="M397.482 148.634L438.137 125.052C438.137 125.052 471.584 104.612 485.293 117.947C498.736 131.023 493.29 154.814 488.613 172.974C483.121 194.301 481.631 200.315 468.19 221.985C453.584 245.532 419.126 271.935 419.126 271.935L397.482 148.634Z" fill="#C4B8EE"/>
<path d="M143.896 213.89L97.0807 209.723C97.0807 209.723 58.1273 205.355 51.3479 223.238C44.7001 240.774 59.7 260.026 71.6216 274.502C85.6217 291.502 89.5153 296.321 110.863 310.268C134.06 325.424 176.453 334.768 176.453 334.768L143.896 213.89Z" fill="#C4B8EE"/>
</svg>
