<svg width="201" height="249" viewBox="0 0 201 249" fill="none" xmlns="http://www.w3.org/2000/svg">
<rect x="113.549" y="248.436" width="124" height="216" rx="10" transform="rotate(-156.183 113.549 248.436)" fill="#E879F9"/>
<rect x="108.677" y="235.396" width="114" height="206" rx="8" transform="rotate(-156.183 108.677 235.396)" fill="#F5D0FE"/>
<rect x="107.827" y="231.892" width="110" height="200" rx="8" transform="rotate(-156.183 107.827 231.892)" fill="white"/>
<rect x="99.0481" y="24.9293" width="72" height="4" rx="2" transform="rotate(22.6869 99.0481 24.9293)" fill="#E2E8F0"/>
<path d="M98.2767 26.7746C98.7027 25.7555 99.8742 25.2747 100.893 25.7007L134.569 39.7786C135.588 40.2046 136.069 41.3761 135.643 42.3952V42.3952C135.217 43.4143 134.046 43.8951 133.026 43.4691L99.3506 29.3912C98.3315 28.9652 97.8507 27.7937 98.2767 26.7746V26.7746Z" fill="#10B981"/>
<rect x="16.8584" y="181.211" width="16" height="96" rx="4" transform="rotate(-67.3131 16.8584 181.211)" fill="#22C55E"/>
<rect x="57.8955" y="91.8026" width="7.9379" height="11.1546" rx="3.96895" transform="rotate(24.0523 57.8955 91.8026)" fill="#4338CA"/>
<rect x="134.007" y="125.773" width="7.9379" height="11.1546" rx="3.96895" transform="rotate(24.0523 134.007 125.773)" fill="#4338CA"/>
<rect x="125.407" y="115.827" width="7.9379" height="22.3092" rx="3.96895" transform="rotate(24.0523 125.407 115.827)" fill="#4338CA"/>
<rect x="71.042" y="91.5625" width="7.9379" height="22.3092" rx="3.96895" transform="rotate(24.0523 71.042 91.5625)" fill="#0EA5E9"/>
<rect x="92.7878" y="101.268" width="7.9379" height="22.3092" rx="3.96895" transform="rotate(24.0523 92.7878 101.268)" fill="#0EA5E9"/>
<rect x="83.0515" y="93.8689" width="7.9379" height="27.8865" rx="3.96895" transform="rotate(24.0523 83.0515 93.8689)" fill="#4338CA"/>
<rect x="104.798" y="103.574" width="7.9379" height="27.8865" rx="3.96895" transform="rotate(24.0523 104.798 103.574)" fill="#4338CA"/>
<rect x="120.217" y="98.2413" width="7.9379" height="50.1958" rx="3.96895" transform="rotate(24.0523 120.217 98.2413)" fill="#0EA5E9"/>
</svg>
