<svg width="140" height="229" viewBox="0 0 140 229" fill="none" xmlns="http://www.w3.org/2000/svg">
<rect x="12" width="116" height="206" rx="10" fill="#F59E0B"/>
<rect x="15" y="3" width="110" height="200" rx="8" fill="white"/>
<rect x="19" y="18" width="72" height="4" rx="2" fill="#E2E8F0"/>
<path d="M19 20C19 18.8954 19.8954 18 21 18H57.5C58.6046 18 59.5 18.8954 59.5 20C59.5 21.1046 58.6046 22 57.5 22H21C19.8954 22 19 21.1046 19 20Z" fill="#10B981"/>
<rect x="20" y="42" width="100" height="14" rx="4" fill="#E2E8F0"/>
<rect x="20" y="64" width="100" height="75" rx="4" fill="#E2E8F0"/>
<g clip-path="url(#clip0_7_276)">
<path d="M95.6776 209.685C95.7041 209.202 95.676 208.709 95.5968 208.268C95.5176 207.828 95.3911 207.46 95.2335 207.212C95.0756 206.963 94.8939 206.845 94.7111 206.872C94.5278 206.9 94.3523 207.071 94.2058 207.366C94.0596 207.66 93.9494 208.063 93.8894 208.524C93.8294 208.985 93.8221 209.484 93.8686 209.956C93.9151 210.428 94.0131 210.853 94.1502 211.176C94.2878 211.5 94.458 211.707 94.6396 211.772C94.8813 211.861 95.1262 211.692 95.3205 211.3C95.5151 210.909 95.6437 210.328 95.6776 209.685Z" fill="#525A66"/>
<path d="M77.2827 178.86C77.2961 178.618 77.2818 178.371 77.2423 178.151C77.2027 177.93 77.1394 177.746 77.0606 177.622C76.9814 177.498 76.8904 177.439 76.799 177.453C76.7072 177.467 76.6194 177.553 76.5463 177.701C76.4733 177.848 76.4182 178.05 76.3884 178.281C76.3586 178.512 76.3553 178.762 76.3786 178.998C76.4023 179.234 76.4516 179.446 76.5206 179.607C76.5896 179.769 76.6749 179.872 76.7659 179.903C76.8859 179.945 77.008 179.859 77.1047 179.664C77.2014 179.468 77.2651 179.18 77.2827 178.86Z" fill="#525A66"/>
<path d="M56.9268 173.903C56.9398 173.662 56.9255 173.415 56.8859 173.195C56.8467 172.975 56.7835 172.792 56.7047 172.667C56.6259 172.543 56.5349 172.484 56.4439 172.497C56.3525 172.511 56.2643 172.596 56.1912 172.743C56.1182 172.889 56.0631 173.09 56.0329 173.32C56.0027 173.551 55.9986 173.799 56.0214 174.036C56.0447 174.272 56.0933 174.484 56.1619 174.646C56.23 174.809 56.3149 174.913 56.4055 174.946C56.5263 174.988 56.6484 174.903 56.7459 174.708C56.8435 174.513 56.908 174.224 56.9268 173.903Z" fill="#FF7900"/>
<path d="M118.722 204.645C118.735 204.403 118.721 204.156 118.681 203.936C118.642 203.715 118.579 203.531 118.5 203.407C118.421 203.283 118.33 203.224 118.238 203.238C118.146 203.252 118.059 203.338 117.985 203.486C117.912 203.633 117.857 203.835 117.828 204.066C117.798 204.297 117.794 204.547 117.818 204.783C117.841 205.019 117.891 205.231 117.96 205.392C118.028 205.554 118.114 205.657 118.205 205.688C118.325 205.73 118.447 205.644 118.543 205.449C118.64 205.253 118.704 204.965 118.722 204.645Z" fill="#FF7900"/>
<path d="M108.561 169.99L108.749 173.632C108.749 173.632 107.942 172.046 106.657 173.736C105.372 175.427 105.411 179.016 104.017 179.277L103.723 175.343C104.101 175.331 104.473 175.108 104.817 174.689C105.16 174.271 105.467 173.665 105.717 172.912C106.285 171.012 107.006 169.072 108.561 169.99Z" fill="#FF7900"/>
<path d="M105.471 210.133L103.579 213.41C103.579 213.41 103.857 218.2 106.176 217.876C106.176 217.876 104.413 214.443 105.471 210.133Z" fill="#FFCF80"/>
<path d="M86.7827 181.594L85.3447 183.681C85.3447 183.681 84.1696 178.954 85.5839 176.574C85.568 176.627 85.2782 179.694 86.7827 181.594Z" fill="#FFCF80"/>
<path d="M85.6075 170.866L87.1349 172.379C87.1349 172.379 87.2251 175.875 85.5684 176.626C85.5684 176.626 86.6063 173.465 85.6075 170.866Z" fill="#FFCF80"/>
<path d="M33.8151 205.594C33.8283 205.353 33.8143 205.106 33.7747 204.885C33.7351 204.665 33.6718 204.481 33.5928 204.357C33.5139 204.232 33.4228 204.174 33.3312 204.188C33.2397 204.202 33.1517 204.288 33.0786 204.435C33.0055 204.583 32.9505 204.785 32.9207 205.016C32.8908 205.247 32.8874 205.497 32.911 205.733C32.9345 205.969 32.9839 206.181 33.0528 206.342C33.1217 206.503 33.2071 206.606 33.2981 206.638C33.4184 206.68 33.5401 206.594 33.6368 206.398C33.7336 206.203 33.7976 205.914 33.8151 205.594Z" fill="#FF7900"/>
<path d="M37.497 163.207C37.5233 162.724 37.4951 162.231 37.4161 161.791C37.337 161.35 37.2106 160.982 37.0528 160.734C36.8951 160.485 36.7132 160.367 36.5303 160.395C36.3473 160.422 36.1715 160.594 36.0253 160.888C35.879 161.182 35.7688 161.585 35.7088 162.046C35.6487 162.507 35.6415 163.006 35.6879 163.478C35.7344 163.95 35.8325 164.375 35.9698 164.698C36.1071 165.022 36.2773 165.229 36.459 165.294C36.7003 165.381 36.9447 165.21 37.1391 164.819C37.3334 164.428 37.462 163.849 37.497 163.207Z" fill="#525A66"/>
<path d="M42.0639 214.036L43.372 215.194C43.372 215.194 42.479 216.426 42.479 220.235C42.479 224.043 43.7051 225.546 43.1761 229L41.719 227.957C41.8822 227.05 41.9724 226.063 41.9839 225.059C41.9953 224.054 41.9275 223.054 41.7855 222.123C41.3977 219.922 41.0492 217.323 42.0639 214.036Z" fill="#525A66"/>
<path d="M123.603 225.857C123.616 225.615 123.602 225.369 123.562 225.148C123.523 224.928 123.459 224.744 123.381 224.619C123.301 224.495 123.21 224.436 123.119 224.45C123.027 224.464 122.939 224.551 122.866 224.698C122.793 224.846 122.738 225.048 122.708 225.279C122.679 225.51 122.675 225.759 122.699 225.996C122.722 226.232 122.772 226.444 122.841 226.605C122.909 226.766 122.995 226.869 123.086 226.901C123.146 226.923 123.206 226.913 123.264 226.873C123.323 226.832 123.377 226.761 123.426 226.665C123.474 226.568 123.514 226.446 123.544 226.308C123.575 226.169 123.594 226.016 123.603 225.857Z" fill="#FF7900"/>
<path d="M114.523 225.638L113.231 226.932C113.231 226.932 113.622 224.48 112.729 221.527C111.836 218.574 110.524 219.44 110.117 215.892L111.495 214.243C111.583 215.224 111.746 216.145 111.976 216.947C112.205 217.749 112.495 218.413 112.827 218.897C113.646 219.951 114.531 221.381 114.523 225.638Z" fill="#525A66"/>
<path d="M118.699 175.331L118.887 178.962C118.887 178.962 118.08 177.376 116.799 179.067C115.518 180.757 115.554 184.347 114.159 184.618L113.861 180.674C114.239 180.662 114.612 180.44 114.955 180.021C115.298 179.602 115.605 178.996 115.855 178.242C116.427 176.353 117.148 174.36 118.699 175.331Z" fill="#FF7900"/>
<path d="M46.7132 196.323L45.2598 198.41C45.2598 198.41 44.0847 193.683 45.499 191.304C45.499 191.314 45.2206 194.382 46.7132 196.323Z" fill="#525A66"/>
<path d="M45.5377 185.555L47.0655 187.068C47.0655 187.068 47.1557 190.563 45.4985 191.315C45.4985 191.315 46.5365 188.153 45.5377 185.555Z" fill="#525A66"/>
<path d="M136.702 197.401L134.5 195.731C134.5 195.731 133.451 203.036 135.633 205.123C135.633 205.102 134.892 201.23 136.702 197.401Z" fill="#FFCF80"/>
<path d="M2.65797 194.487L0.456562 192.817C0.456562 192.817 -0.593226 200.122 1.58859 202.209C1.58859 202.188 0.848268 198.316 2.65797 194.487Z" fill="#FFCF80"/>
<path d="M136.342 212.876L138.234 209.599C138.234 209.599 137.956 204.81 135.633 205.133C135.633 205.102 137.396 208.566 136.342 212.876Z" fill="#FFCF80"/>
<path d="M2.29738 209.962L4.18932 206.685C4.18932 206.685 3.91122 201.896 1.58838 202.219C1.58838 202.188 3.35108 205.652 2.29738 209.962Z" fill="#FFCF80"/>
</g>
<rect x="22" y="178" width="96" height="16" rx="4" fill="#22C55E"/>
<path fill-rule="evenodd" clip-rule="evenodd" d="M90.4744 85.7921H50.3907L50.9324 90.9001C42.5148 91.8785 36.7136 97.8862 37.9594 104.337C39.2269 110.88 45.8244 115.934 54.0795 117.066C55.9212 121.859 61.235 125.466 67.7242 126.258V130.984H65.0159V133.472H53.6408V138.447H87.2244V133.472H75.8493V130.984H73.141V126.258C79.6302 125.466 84.9439 121.859 86.7802 117.066C95.0353 115.934 101.638 110.88 102.9 104.337C103.014 103.765 103.068 103.185 103.068 102.604C103.068 96.6714 97.3645 91.7583 89.9274 90.9001L90.4744 85.7921ZM51.3766 95.0503C46.1115 95.8132 42.5256 99.6359 43.3165 103.732C44.1452 108.007 48.1049 111.407 53.2562 112.646L51.3766 95.0503ZM87.609 112.646L89.4886 95.0461C94.1361 95.7219 97.6516 98.8481 97.6516 102.604C97.6516 102.982 97.6191 103.359 97.5433 103.732C96.7145 108.007 92.7603 111.407 87.609 112.646Z" fill="#FFCE00"/>
<defs>
<clipPath id="clip0_7_276">
<rect width="140" height="70" fill="white" transform="translate(0 159)"/>
</clipPath>
</defs>
</svg>
