<svg width="688" height="587" viewBox="0 0 688 587" fill="none" xmlns="http://www.w3.org/2000/svg">
<path d="M635 254C635 393.651 511.958 507 360 507C208.042 507 85 393.651 85 254C85 114.349 208.042 1 360 1C511.958 1 635 114.349 635 254Z" stroke="black" stroke-width="2"/>
<ellipse cx="365" cy="279.5" rx="256" ry="249.5" fill="#C4B5FD"/>
<path fill-rule="evenodd" clip-rule="evenodd" d="M310.316 64.1062C312.364 50.2089 318.672 36.3464 330.089 28.2451C332.132 26.7911 334.649 25.4913 337.053 26.1985C344.333 28.3446 338.06 41.3905 343.523 46.6935C353.094 41.5897 362.664 36.4859 372.234 31.387C378.907 27.8268 387.905 24.5402 393.27 29.8932C398.616 35.2311 395.462 44.2735 392.022 51.0056C400.383 51.9865 408.744 52.9774 417.105 53.9583C426.399 55.0538 435.935 56.219 444.231 60.5709C452.533 64.9179 459.463 73.2134 459.458 82.6293C459.458 92.0403 450.307 101.192 441.235 98.8819C453.836 105.38 465.563 113.591 475.993 123.231C484.29 130.899 492.28 140.898 491.259 152.186C490.237 163.474 474.685 172.247 467.222 163.758C481.111 175.444 491.101 191.737 495.257 209.463C497.226 217.858 497.665 227.478 492.443 234.325C485.351 243.621 470.534 243.357 460.786 236.939C451.033 230.526 445.135 219.77 439.621 209.438C432.139 217.978 426.754 228.215 419.267 236.75C411.779 245.289 401.128 252.285 389.875 251.07C382.076 250.224 375.117 244.099 372.916 236.57C370.453 228.145 372.925 229.485 364.406 228.275C356.667 227.169 350.093 223.893 343.361 220.004C340.774 218.51 338.158 216.987 336.041 214.871C325.849 204.663 330.523 190.616 330.538 178.023C330.587 137.985 304.369 104.494 310.316 64.1062Z" fill="#2A0952"/>
<path fill-rule="evenodd" clip-rule="evenodd" d="M374.031 90.3161C375.507 90.6845 377.042 91.1526 378.123 92.2331C380.398 94.4987 379.746 98.293 378.932 101.41C381.923 100.18 384.914 98.9502 387.9 97.7253C395.901 94.4389 405.432 91.2572 412.707 95.9477C415.91 98.0091 418.245 102.177 416.72 105.687C414.696 110.333 387.397 105.568 382.436 104.741C385.324 106.927 409.824 112.384 413.171 113.734C416.517 115.088 419.903 117.468 420.584 121.044C421.389 125.301 417.801 129.399 413.699 130.703C412.643 131.042 411.483 131.241 410.432 130.893C409.222 130.499 408.349 129.469 407.539 128.483C404.489 124.768 387.258 110.562 384.208 106.847C388.69 118.061 401.587 130.211 404.672 140.025C406.996 147.429 401.439 164.623 394.243 167.366C387.046 170.11 390.087 161.287 382.959 158.374C377.604 156.188 372.55 153.265 367.975 149.71C364.303 146.851 360.912 143.575 356.86 141.309C349.012 136.918 339.382 136.689 331.559 132.257C324.723 128.388 318.208 120.655 315.064 113.405C311.594 105.398 319.822 101.161 325.997 97.5411C340.315 89.1409 357.901 86.2529 374.031 90.3161Z" fill="#F376DA"/>
<path fill-rule="evenodd" clip-rule="evenodd" d="M380.575 189.334C380.575 189.334 395.792 177.154 394.114 144.405C392.426 111.646 367.738 97.7287 354.525 96.3246C341.307 94.9254 314.244 96.0059 298.786 119.922C298.786 119.922 281.703 123.153 277.513 148.782C273.323 174.415 302.211 182.641 302.211 182.641C302.211 182.641 306.387 224.821 327.196 225.254C348 225.688 380.575 189.334 380.575 189.334Z" fill="#2A0952"/>
<path d="M318.313 121.661L317.356 122.049L317.618 122.642C317.737 122.896 317.889 123.203 318.075 123.56C318.691 124.742 319.477 126.057 320.447 127.471C323.212 131.504 326.904 135.532 331.644 139.29C339.073 145.177 348.37 149.833 359.738 152.81L362.039 153.383L362.274 152.37C350 149.469 340.087 144.658 332.282 138.471C327.625 134.78 324.004 130.828 321.295 126.879C320.349 125.501 319.585 124.221 318.988 123.076L318.554 122.206L318.313 121.661Z" fill="#4165E3"/>
<path d="M338.586 125.706L337.831 126.416L338.414 127.019C339 127.603 339.833 128.385 340.902 129.313C343.392 131.473 346.276 133.632 349.522 135.646C354.704 138.864 360.292 141.394 366.228 142.989L368.47 143.544L368.695 142.528C362.039 141.027 355.8 138.323 350.062 134.76C346.865 132.775 344.025 130.649 341.575 128.523L340.432 127.506C340.088 127.193 339.783 126.906 339.517 126.649L338.586 125.706Z" fill="#4165E3"/>
<path d="M330.867 158.152L329.962 152.919L328.016 153.236C326.613 153.449 325.006 153.666 323.232 153.884C321.596 154.084 319.881 154.279 318.138 154.463L312.004 155.065L312.46 160.358L316.027 160.02C317.808 159.843 319.589 159.655 321.319 159.459L323.868 159.158C326.154 158.877 328.179 158.597 329.884 158.319L330.867 158.152Z" fill="#2A0952"/>
<path fill-rule="evenodd" clip-rule="evenodd" d="M329.353 244.401L330.35 282.587C330.676 295.996 339.037 302.968 352.117 302.544C363.286 302.181 373.587 296.021 374.614 284.798L370.182 224.782L329.353 244.401Z" fill="#FFDBAC"/>
<path fill-rule="evenodd" clip-rule="evenodd" d="M329.973 263.024C356.463 263.051 373.279 228.169 373.279 228.169L329.178 238.161L329.973 263.024Z" fill="#00023C" fill-opacity="0.18"/>
<path fill-rule="evenodd" clip-rule="evenodd" d="M348.547 243.144C326.731 246.724 305.962 232.284 302.467 214.408L294.466 172.183C290.083 149.781 301.302 128.36 323.355 123.201C345.931 117.928 375.234 130.735 380.466 153.506L386.532 187.539C391.221 213.86 374.37 237.104 348.547 243.144Z" fill="#FFDBAC"/>
<path fill-rule="evenodd" clip-rule="evenodd" d="M407.035 190.044C409.182 199.38 403.417 208.701 394.163 210.867C384.908 213.028 375.669 207.212 373.522 197.876C371.375 188.54 377.139 179.218 386.394 177.057C395.648 174.891 404.888 180.707 407.035 190.044Z" fill="#FFDBAC"/>
<path fill-rule="evenodd" clip-rule="evenodd" d="M385.575 200.357C385.575 200.357 382.761 188.098 394.819 187.311L385.575 200.357Z" fill="#00023C" fill-opacity="0.18"/>
<path fill-rule="evenodd" clip-rule="evenodd" d="M310.31 151.944C310.088 158.407 308.78 164.826 306.455 170.851C312.447 169.87 318.439 168.879 324.431 167.893C328.592 167.211 333.098 166.339 335.877 163.143C340.334 158.019 338.088 149.803 340.96 143.634C346.809 151.043 349.963 160.563 349.711 170.034C356.33 171.364 363.156 169.935 369.75 168.505C375.145 167.34 381.325 165.543 383.457 160.414C384.775 157.232 384.118 153.597 383.279 150.256C379.839 136.573 372.692 122.611 359.938 116.81C350.225 112.388 338.873 113.484 328.641 116.496C315.102 120.48 301.598 128.726 296.722 142.075C295.478 145.471 294.846 149.061 294.224 152.631C293.301 157.914 286.396 179.017 297.146 171.966C301.86 168.864 311.317 158.298 310.31 151.944Z" fill="#2A0952"/>
<path fill-rule="evenodd" clip-rule="evenodd" d="M331.254 200.597C330.903 201.324 330.528 202.036 330.183 202.768C330.074 202.992 329.97 203.226 329.867 203.46C329.837 203.525 329.645 203.983 329.798 203.619C329.753 203.724 329.714 203.824 329.669 203.928C329.487 204.401 329.314 204.874 329.196 205.367C329.166 205.472 329.141 205.581 329.117 205.686C329.107 205.736 329.043 206.124 329.087 205.85C329.122 205.576 329.082 205.93 329.082 205.98C329.077 206.069 329.092 206.159 329.082 206.249C329.072 206.328 328.978 205.865 329.077 206.164C329.176 206.478 328.978 205.99 329.023 206.084C329.176 206.348 328.682 205.756 329.003 206.064C329.122 206.174 329.23 206.293 329.349 206.398C329.423 206.463 329.418 206.458 329.324 206.383C329.398 206.438 329.472 206.493 329.546 206.537C329.679 206.627 329.817 206.712 329.961 206.781C330.005 206.806 330.42 207.005 330.178 206.901C330.326 206.961 330.479 207.02 330.637 207.07C331.278 207.294 331.945 207.434 332.606 207.553C333.347 207.698 333.835 208.639 333.613 209.341C333.356 210.137 332.636 210.496 331.846 210.352C330.237 210.048 328.643 209.575 327.369 208.489C326.866 208.056 326.441 207.538 326.293 206.876C326.155 206.263 326.214 205.666 326.323 205.054C326.698 202.957 327.863 201.03 328.776 199.138C329.107 198.451 330.124 198.212 330.74 198.62C331.436 199.068 331.609 199.87 331.254 200.597Z" fill="#00023C" fill-opacity="0.18"/>
<path fill-rule="evenodd" clip-rule="evenodd" d="M343.99 188.926C343.99 188.926 342.727 194.553 346.853 193.179C350.984 191.804 365.342 187.408 365.342 187.408C365.342 187.408 358.032 175.567 343.99 188.926Z" fill="#EFF2F9"/>
<path fill-rule="evenodd" clip-rule="evenodd" d="M342.478 187.351C342.537 187.202 342.581 187.042 342.65 186.888C346.476 178.498 357.867 178.189 364.846 182.332C365.394 182.66 366.026 182.999 366.643 182.835C367.072 182.715 367.408 182.377 367.719 182.048C368.77 180.928 370.157 178.587 371.974 179.125C372.916 179.404 373.054 179.767 373.212 180.455C373.479 181.62 371.006 183.094 370.34 183.716C368.983 184.976 367.679 186.221 366.08 187.231C365.858 187.366 365.626 187.5 365.375 187.54C364.945 187.6 364.535 187.376 364.19 187.117C362.28 185.693 361.169 184.015 358.78 183.173C357.532 182.73 355.77 182.431 354.546 183.084C354.975 185.285 356.994 187.764 358.089 189.761L345.587 193.67C345.587 193.67 340.745 191.31 342.478 187.351Z" fill="#2A0952"/>
<path fill-rule="evenodd" clip-rule="evenodd" d="M305.872 197.533L325.945 195.542C325.945 195.542 318.216 185.145 310.442 188.262C302.669 191.374 305.872 197.533 305.872 197.533Z" fill="#EFF2F9"/>
<mask id="mask0_4_341" style="mask-type:alpha" maskUnits="userSpaceOnUse" x="297" y="185" width="31" height="13">
<path fill-rule="evenodd" clip-rule="evenodd" d="M327.937 185.647H297.082V197.534H327.937V185.647Z" fill="white"/>
</mask>
<g mask="url(#mask0_4_341)">
<path fill-rule="evenodd" clip-rule="evenodd" d="M297.959 188.567C298.793 188.118 299.578 188.412 300.274 188.945C301.429 189.831 302.895 191.559 304.262 190.494C305.526 189.503 306.197 188.198 307.742 187.396C310.476 185.972 313.793 185.464 316.843 185.703C321.152 186.032 325.742 188.034 327.628 192.201C327.993 193.018 328.082 194.009 327.633 194.781C327.183 195.548 326.107 195.951 325.357 195.483C325.027 195.279 324.8 194.945 324.587 194.621C322.386 191.35 317.593 187.367 313.363 189.219C314 191.639 316.053 194.158 317.213 196.404L305.876 197.534C305.876 197.534 303.907 196.255 303.729 194.213C303.487 194.079 303.245 193.964 302.994 193.909C301.789 192.45 299.741 192.51 298.398 191.305C297.959 190.872 297.52 190.439 297.081 190.001C297.095 189.348 297.155 189 297.959 188.567Z" fill="#2A0952"/>
</g>
<path fill-rule="evenodd" clip-rule="evenodd" d="M345.884 211.883C345.114 212.396 344.206 213.497 343.707 213.895C341.56 215.608 339.132 217.017 336.466 217.729C334.487 218.257 332.414 218.381 330.386 218.112C329.399 217.983 328.416 217.759 327.469 217.435C326.748 217.196 325.81 216.748 325.05 216.728C324.685 216.718 324.3 216.848 324.058 217.126C323.782 217.435 323.55 217.799 323.382 218.177C323.357 218.949 323.727 219.561 324.167 220.149C325.267 220.687 326.565 220.736 327.77 220.901C329.117 221.07 330.465 221.21 331.822 221.309C332.72 221.374 333.623 221.424 334.522 221.379C337.054 221.249 339.759 220.418 342.034 219.288C343.08 218.775 344.057 217.983 344.995 217.281C345.484 216.912 345.968 216.534 346.436 216.136C346.782 215.847 347.651 215.309 347.804 214.891C347.937 214.542 348.06 214.194 348.194 213.85C348.248 213.696 347.69 212.69 347.596 212.516C347.394 212.147 347.088 211.659 346.619 211.614C346.407 211.589 346.155 211.704 345.884 211.883Z" fill="#2A0952"/>
<path fill-rule="evenodd" clip-rule="evenodd" d="M349.986 176.186C346.314 175.688 346.354 170.211 350.021 169.653C353.209 169.175 357.276 169.18 359.675 171.57C364.073 175.942 354.034 176.639 350.1 176.201C350.065 176.196 350.026 176.196 349.986 176.186Z" fill="#2A0952"/>
<path fill-rule="evenodd" clip-rule="evenodd" d="M312.839 180.898C315.711 179.718 314.532 175.281 311.447 175.61C308.757 175.899 305.465 176.77 304.014 179.215C301.368 183.697 309.65 182.123 312.745 180.938C312.775 180.923 312.809 180.913 312.839 180.898Z" fill="#2A0952"/>
<path fill-rule="evenodd" clip-rule="evenodd" d="M352.072 205.703C353.355 207.515 355.374 208.775 357.536 209.298C360.033 209.895 362.684 209.572 365.098 208.7C366.677 208.123 368.207 207.286 369.308 206.011C371.213 203.811 371.341 199.757 370.704 197.024C370.324 195.386 369.382 193.817 367.931 192.986C365.798 191.766 363.479 191.676 361.139 192.109C359.071 192.498 356.978 192.941 355.132 193.957C351.455 195.988 349.491 200.952 351.534 204.826C351.692 205.135 351.875 205.424 352.072 205.703Z" fill="#FF37B8" fill-opacity="0.5"/>
<path fill-rule="evenodd" clip-rule="evenodd" d="M367.353 202.454C367.604 202.454 367.861 202.375 368.078 202.215C368.631 201.807 368.749 201.03 368.35 200.477L365.107 195.996C364.702 195.443 363.927 195.324 363.384 195.722C362.831 196.13 362.713 196.912 363.113 197.465L366.356 201.941C366.597 202.28 366.973 202.454 367.353 202.454Z" fill="#FFD0F6"/>
<path fill-rule="evenodd" clip-rule="evenodd" d="M357.956 206.194H358.025C358.707 206.154 359.225 205.566 359.19 204.879L358.879 199.342C358.845 198.655 358.292 198.227 357.581 198.167C356.9 198.207 356.382 198.795 356.416 199.477L356.722 205.019C356.762 205.681 357.305 206.194 357.956 206.194Z" fill="#FFD0F6"/>
<path fill-rule="evenodd" clip-rule="evenodd" d="M363.503 204.793C363.695 204.793 363.888 204.748 364.065 204.659C364.672 204.34 364.914 203.593 364.598 202.981L361.736 197.354C361.43 196.741 360.68 196.502 360.077 196.811C359.47 197.13 359.228 197.877 359.544 198.489L362.407 204.116C362.624 204.544 363.058 204.793 363.503 204.793Z" fill="#FFD0F6"/>
<path fill-rule="evenodd" clip-rule="evenodd" d="M318.989 211.314C317.913 212.838 316.22 213.893 314.409 214.321C312.321 214.824 310.1 214.556 308.077 213.824C306.754 213.341 305.47 212.648 304.548 211.578C302.953 209.731 302.845 206.335 303.378 204.044C303.699 202.67 304.488 201.36 305.702 200.663C307.489 199.637 309.434 199.563 311.393 199.926C313.126 200.25 314.878 200.623 316.423 201.47C319.508 203.173 321.151 207.331 319.439 210.582C319.305 210.836 319.157 211.08 318.989 211.314Z" fill="#FF37B8" fill-opacity="0.5"/>
<path fill-rule="evenodd" clip-rule="evenodd" d="M306.189 208.795C306.569 208.795 306.944 208.621 307.186 208.282L309.9 204.533C310.305 203.975 310.187 203.198 309.634 202.79C309.091 202.392 308.316 202.496 307.911 203.064L305.192 206.818C304.792 207.371 304.91 208.148 305.463 208.556C305.68 208.715 305.937 208.795 306.189 208.795Z" fill="#FFD0F6"/>
<path fill-rule="evenodd" clip-rule="evenodd" d="M314.059 211.927C314.711 211.927 315.254 211.414 315.293 210.752L315.55 206.111C315.589 205.424 315.066 204.836 314.385 204.797C313.615 204.866 313.121 205.289 313.087 205.977L312.825 210.612C312.791 211.3 313.309 211.887 313.99 211.927H314.059Z" fill="#FFD0F6"/>
<path fill-rule="evenodd" clip-rule="evenodd" d="M309.415 210.755C309.859 210.755 310.293 210.506 310.51 210.078L312.909 205.367C313.22 204.755 312.983 204.008 312.376 203.689C311.764 203.385 311.024 203.619 310.718 204.227L308.319 208.942C308.003 209.555 308.245 210.302 308.852 210.62C309.03 210.71 309.222 210.755 309.415 210.755Z" fill="#FFD0F6"/>
<path fill-rule="evenodd" clip-rule="evenodd" d="M434.562 511.849V538L383.871 528.768L380.269 494.247L434.562 511.849Z" fill="#6D28D9"/>
<path fill-rule="evenodd" clip-rule="evenodd" d="M182.774 353.76C182.774 353.76 150.627 360.915 128.402 382.45L169.891 372.487L182.774 353.76Z" fill="#C4B8EE"/>
<path fill-rule="evenodd" clip-rule="evenodd" d="M280.596 409.529C284.234 401.781 290.734 392.435 287.961 383.98C285.616 376.83 278.612 370.989 272.3 367.513C266.599 364.366 260.192 362.3 253.692 362.415C237.918 362.708 235.948 373.105 230.109 385.21C227.711 390.189 225.223 394.935 222.587 399.087C219.966 403.22 217.247 406.84 214.823 409.255C213.629 410.465 212.523 411.341 211.714 411.944C210.895 412.532 210.381 412.771 210.159 412.895C210.051 412.95 209.996 412.985 209.824 413.099L210.06 413.114L210.534 413.144C211.842 413.263 212.765 413.438 213.614 413.652C213.984 413.746 214.34 413.846 214.665 413.956C214.932 414.035 215.248 414.16 215.465 414.234C216.388 414.603 216.817 414.857 217.049 415.006C217.276 415.151 217.267 415.176 217.178 415.131C217.079 415.081 216.891 414.976 216.635 414.792C215.593 414.065 213.876 412.586 212.124 410.928C210.357 409.24 203.555 417.262 201.675 415.21C197.864 411.122 194.034 406.566 190.175 401.926C174.777 383.213 148.662 332.977 148.662 332.977L115.559 352.725C116.255 354.373 116.896 355.852 117.577 357.39C118.254 358.919 118.92 360.448 119.621 361.946C121.003 364.969 122.429 367.952 123.885 370.934C126.792 376.884 129.838 382.765 132.996 388.611C139.334 400.292 146.13 411.77 153.756 423.147C157.571 428.864 161.638 434.495 166.159 440.232C168.45 443.085 170.868 445.953 173.568 448.896C176.302 451.853 179.234 454.846 183.25 458.097C184.247 458.909 185.357 459.751 186.586 460.612C187.82 461.478 189.163 462.36 190.801 463.286C192.435 464.202 194.316 465.163 196.744 466.074C197.331 466.303 198.032 466.537 198.684 466.747C199.389 466.966 200.13 467.175 200.89 467.369C202.519 467.757 204.226 468.091 206.339 468.26L207.109 468.315L207.662 468.345L208.244 468.365L209.424 468.395C210.204 468.425 210.993 468.395 211.783 468.385C213.357 468.345 214.937 468.235 216.506 468.056C219.646 467.703 222.745 467.075 225.702 466.224C231.634 464.516 236.95 461.936 241.525 459.048C246.116 456.155 249.99 452.924 253.416 449.657C260.212 443.075 265.281 436.323 269.595 429.601C273.899 422.879 277.467 416.206 280.596 409.529Z" fill="#FFDBAC"/>
<path fill-rule="evenodd" clip-rule="evenodd" d="M148.603 358.345C143.747 364.948 135.499 368.03 127.459 366.695C123.629 366.058 119.191 364.823 114.695 362.518C111.581 360.919 107.731 358.066 105.016 358.37C98.274 359.107 95.816 354.411 94.1033 353.978C92.5091 354.755 90.2584 355.437 87.4994 355.128C83.9901 354.75 81.078 353.46 79.3752 352.524H79.3653C72.6577 352.44 66.804 352.699 64.9136 351.369C61.1328 348.715 57.4558 322.688 63.8969 321.612C72.4258 320.193 68.0922 339.384 75.8807 343.019C75.8807 343.019 70.022 318.754 79.622 316.962C86.1766 315.742 87.2229 339.936 94.1921 344.318C94.1921 344.318 87.5882 321.842 94.6709 318.237C101.754 314.631 101.734 341.729 108.965 342.431C110.44 342.566 103.101 323.236 111.59 322.19C120.08 321.149 115.337 344.249 140.435 343.726C150.602 343.517 154.728 350.01 148.603 358.345Z" fill="#FFDBAC"/>
<path fill-rule="evenodd" clip-rule="evenodd" d="M231.613 346.529H48.0238C43.325 346.529 39.5146 342.69 39.5146 337.945C39.5146 333.204 43.325 329.36 48.0238 329.36H231.613C236.312 329.36 240.122 333.204 240.122 337.945C240.122 342.69 236.312 346.529 231.613 346.529Z" fill="#8A60E2"/>
<path fill-rule="evenodd" clip-rule="evenodd" d="M185.457 346.529H46.4247C43.1375 346.529 40.1514 344.597 38.7842 341.585L0.774432 257.842C-1.77732 252.235 2.28975 245.842 8.41001 245.842H147.449C150.736 245.842 153.717 247.774 155.089 250.786L193.098 334.524C195.645 340.141 191.578 346.529 185.457 346.529Z" fill="#432C82"/>
<path fill-rule="evenodd" clip-rule="evenodd" d="M87.6919 281.107C84.8835 286.938 81.2114 291.828 77.2677 296.518C76.4385 297.504 76.2608 298.127 77.4997 298.983C81.8135 301.976 85.2339 305.884 88.067 310.286C88.9209 311.611 89.4787 311.556 90.293 310.421C93.7974 305.496 97.5534 300.81 102.139 296.842C103.674 295.512 102.4 294.661 101.344 293.959C96.1863 290.548 92.1785 285.902 87.6919 281.107Z" fill="#FF67FF"/>
<path fill-rule="evenodd" clip-rule="evenodd" d="M330.034 267.411C293.602 272.173 277.035 300.822 264.014 317.303C250.722 334.139 197.313 405.263 197.313 405.263C197.313 405.263 190.403 387.378 179.461 359.767L133.07 381.826C136.402 403.038 140.069 426.455 141.752 437.579C145.227 460.529 154.482 507.626 194.218 507.626C204.48 507.626 278.791 431.455 278.791 431.455V528.041H298.734L311.347 365.757C311.347 365.757 330.805 267.311 330.034 267.411Z" fill="#6D28D9"/>
<path fill-rule="evenodd" clip-rule="evenodd" d="M390.439 267.142L383.865 528.768L298.734 528.041C298.734 528.041 289.884 387.966 298.166 351.308C307.283 310.955 324.153 268.432 324.153 268.432L330.096 267.141C331.967 278.415 356.995 291.038 376.091 262.765L390.439 267.142Z" fill="#F59E0B"/>
<path fill-rule="evenodd" clip-rule="evenodd" d="M380.269 453.721H292.478C292.458 455.598 292.458 457.395 292.478 459.103H379.874L380.269 453.721Z" fill="#EFF2F9"/>
<path fill-rule="evenodd" clip-rule="evenodd" d="M379.182 263.709C379.182 263.709 419.31 274.549 434.995 288.018C450.681 301.482 485.675 381.032 498.404 414.607C516.587 462.578 526.434 537.153 461.692 525.706C396.951 514.258 386.625 510.897 386.625 510.897V478.238L362.579 467.797L359.237 366.124L379.182 263.709Z" fill="#6D28D9"/>
<path fill-rule="evenodd" clip-rule="evenodd" d="M374.672 442.887C374.672 442.887 364.238 474.381 371.143 504.678L383.98 463.656L374.672 442.887Z" fill="#C4B8EE"/>
<path fill-rule="evenodd" clip-rule="evenodd" d="M319.999 454.864C323.883 442.077 337.303 434.876 349.983 438.795L350.669 439.009L366.478 443.899C371.804 445.537 377.13 447.136 382.455 448.679C385.422 449.566 388.378 450.362 391.339 451.199C392.874 470.041 393.314 489.143 390.466 507.756C387.657 506.785 384.8 505.853 382.036 504.848C376.414 502.756 370.851 500.58 365.348 498.36C359.85 496.114 354.401 493.808 348.981 491.423L340.882 487.759L332.713 483.87C322.072 478.819 316.45 466.525 319.999 454.864Z" fill="#FFDBAC"/>
<path fill-rule="evenodd" clip-rule="evenodd" d="M348.007 450.351C348.007 450.351 348.782 440.343 341.926 435.279C335.065 430.21 314.622 417.039 310.175 412.951C305.733 408.868 301.414 416.741 306.843 424.11C312.272 431.484 316.256 436.115 316.256 436.115C316.256 436.115 299.163 424.259 290.97 419.534C282.782 414.804 272.402 406.677 269.258 408.958C266.119 411.233 271.958 420.605 294.218 434.308C294.218 434.308 267.061 423.119 262.748 422.671C258.069 422.183 256.469 426.435 268.009 433.531C279.554 440.626 291.523 446.532 291.523 446.532C291.523 446.532 286.217 443.679 282.219 447.179C278.216 450.685 285.6 456.446 285.6 456.446C285.6 456.446 276.464 460.658 287.16 467.729C297.855 474.795 328.827 482.092 336.675 478.405C344.517 474.71 348.007 450.351 348.007 450.351Z" fill="#FFDBAC"/>
<path fill-rule="evenodd" clip-rule="evenodd" d="M390.444 497.677L402.694 499.027C404.19 480.095 401.816 460.184 400.602 451.789C400.241 449.329 398.376 447.382 395.952 446.924L374.675 442.886C375.805 470.531 372.735 494.5 371.146 504.678C370.691 507.611 372.572 510.389 375.445 511.017L394.733 515.224C397.66 515.862 400.592 513.98 401.15 511.017C401.653 508.353 402.048 505.609 402.349 502.826L390.444 497.677Z" fill="#F59E0B"/>
<path fill-rule="evenodd" clip-rule="evenodd" d="M144.275 395.554L149.418 406.857C166.288 398.417 182.008 386.133 188.518 380.775C190.428 379.202 191.124 376.583 190.27 374.253L182.773 353.758C159.847 368.94 137.878 378.599 128.407 382.449C125.677 383.559 124.28 386.616 125.228 389.425L131.556 408.286C132.518 411.144 135.623 412.713 138.431 411.672C140.953 410.746 143.49 409.671 146.012 408.505L144.275 395.554Z" fill="#F59E0B"/>
<rect x="497" y="72" width="191" height="72" rx="16" fill="#E2E8F0"/>
<path d="M540.777 86.6667H521.223C512.73 86.6667 507.667 91.73 507.667 100.223V119.753C507.667 128.27 512.73 133.333 521.223 133.333H540.753C549.247 133.333 554.31 128.27 554.31 119.777V100.223C554.333 91.73 549.27 86.6667 540.777 86.6667ZM542.667 122.763C538.677 122.763 534.943 121.037 531.957 117.84C528.573 120.897 524.163 122.763 519.333 122.763C518.377 122.763 517.583 121.97 517.583 121.013C517.583 120.057 518.377 119.263 519.333 119.263C527.43 119.263 534.127 112.847 534.99 104.633H531H519.357C518.4 104.633 517.607 103.84 517.607 102.883C517.607 101.927 518.4 101.157 519.357 101.157H529.25V98.9867C529.25 98.03 530.043 97.2367 531 97.2367C531.957 97.2367 532.75 98.03 532.75 98.9867V101.157H536.693C536.74 101.157 536.787 101.133 536.833 101.133C536.88 101.133 536.927 101.157 536.973 101.157H542.643C543.6 101.157 544.393 101.95 544.393 102.907C544.393 103.863 543.6 104.657 542.643 104.657H538.49C538.14 108.647 536.647 112.31 534.36 115.297C536.693 117.887 539.61 119.287 542.667 119.287C543.623 119.287 544.417 120.08 544.417 121.037C544.417 121.993 543.623 122.763 542.667 122.763Z" fill="#6D28D9"/>
<path d="M570.56 96.808V112H567.176V100.672C566.968 100.816 566.656 101.008 566.24 101.248C565.664 101.584 565.24 101.856 564.968 102.064C564.76 101.696 564.416 101.112 563.936 100.312L563.84 100.168C563.696 99.928 563.552 99.688 563.408 99.448C563.952 99.032 564.768 98.456 565.856 97.72L566.12 97.552C566.568 97.232 566.92 96.984 567.176 96.808H570.56Z" fill="black"/>
<path d="M564.26 128V119.138H565.296V127.118H568.782V128H564.26ZM575.303 128H574.603L574.463 127.314C573.893 127.883 573.184 128.168 572.335 128.168C571.691 128.168 571.177 127.991 570.795 127.636C570.412 127.272 570.221 126.791 570.221 126.194C570.221 124.738 571.285 124.01 573.413 124.01H574.379V123.926C574.379 122.815 573.837 122.26 572.755 122.26C572.139 122.26 571.546 122.465 570.977 122.876L570.669 122.358C571.313 121.77 572.097 121.476 573.021 121.476C573.758 121.476 574.323 121.705 574.715 122.162C575.107 122.619 575.303 123.277 575.303 124.136V128ZM574.379 124.696H573.525C571.994 124.696 571.229 125.167 571.229 126.11C571.229 126.511 571.345 126.829 571.579 127.062C571.821 127.286 572.157 127.398 572.587 127.398C572.96 127.398 573.319 127.305 573.665 127.118C574.01 126.931 574.248 126.698 574.379 126.418V124.696ZM582.811 128H581.887V124.276C581.887 122.951 581.308 122.288 580.151 122.288C579.815 122.288 579.484 122.367 579.157 122.526C578.83 122.685 578.578 122.885 578.401 123.128V128H577.463V121.644H578.247L578.331 122.316H578.373C578.924 121.756 579.614 121.476 580.445 121.476C582.022 121.476 582.811 122.386 582.811 124.206V128ZM589.408 122.288L589.548 121.644H590.276V127.482C590.276 129.61 589.347 130.674 587.49 130.674C586.613 130.674 585.838 130.38 585.166 129.792L585.488 129.274C586.067 129.675 586.683 129.876 587.336 129.876C588.027 129.876 588.535 129.685 588.862 129.302C589.189 128.919 589.352 128.313 589.352 127.482V127.356C588.895 127.897 588.269 128.168 587.476 128.168C586.552 128.168 585.819 127.823 585.278 127.132C584.811 126.535 584.578 125.793 584.578 124.906C584.578 123.786 584.905 122.909 585.558 122.274C586.099 121.742 586.767 121.476 587.56 121.476C587.915 121.476 588.265 121.555 588.61 121.714C588.965 121.863 589.231 122.055 589.408 122.288ZM589.352 126.306V123.268C589.231 122.979 589.011 122.736 588.694 122.54C588.377 122.335 588.041 122.232 587.686 122.232C587.07 122.232 586.566 122.475 586.174 122.96C585.782 123.436 585.586 124.052 585.586 124.808C585.586 125.667 585.801 126.334 586.23 126.81C586.603 127.202 587.07 127.398 587.63 127.398C588.003 127.398 588.344 127.3 588.652 127.104C588.969 126.899 589.203 126.633 589.352 126.306ZM597.585 121.644V128H596.857L596.773 127.272L596.731 127.286C596.162 127.874 595.471 128.168 594.659 128.168C593.978 128.168 593.441 127.93 593.049 127.454C592.657 126.969 592.461 126.301 592.461 125.452V121.644H593.399V125.284C593.399 126.656 593.912 127.342 594.939 127.342C595.256 127.342 595.574 127.263 595.891 127.104C596.218 126.945 596.474 126.74 596.661 126.488V121.644H597.585ZM604.438 128H603.738L603.598 127.314C603.028 127.883 602.319 128.168 601.47 128.168C600.826 128.168 600.312 127.991 599.93 127.636C599.547 127.272 599.356 126.791 599.356 126.194C599.356 124.738 600.42 124.01 602.548 124.01H603.514V123.926C603.514 122.815 602.972 122.26 601.89 122.26C601.274 122.26 600.681 122.465 600.112 122.876L599.804 122.358C600.448 121.77 601.232 121.476 602.156 121.476C602.893 121.476 603.458 121.705 603.85 122.162C604.242 122.619 604.438 123.277 604.438 124.136V128ZM603.514 124.696H602.66C601.129 124.696 600.364 125.167 600.364 126.11C600.364 126.511 600.48 126.829 600.714 127.062C600.956 127.286 601.292 127.398 601.722 127.398C602.095 127.398 602.454 127.305 602.8 127.118C603.145 126.931 603.383 126.698 603.514 126.418V124.696ZM611.078 122.288L611.218 121.644H611.946V127.482C611.946 129.61 611.017 130.674 609.16 130.674C608.283 130.674 607.508 130.38 606.836 129.792L607.158 129.274C607.737 129.675 608.353 129.876 609.006 129.876C609.697 129.876 610.205 129.685 610.532 129.302C610.859 128.919 611.022 128.313 611.022 127.482V127.356C610.565 127.897 609.939 128.168 609.146 128.168C608.222 128.168 607.489 127.823 606.948 127.132C606.481 126.535 606.248 125.793 606.248 124.906C606.248 123.786 606.575 122.909 607.228 122.274C607.769 121.742 608.437 121.476 609.23 121.476C609.585 121.476 609.935 121.555 610.28 121.714C610.635 121.863 610.901 122.055 611.078 122.288ZM611.022 126.306V123.268C610.901 122.979 610.681 122.736 610.364 122.54C610.047 122.335 609.711 122.232 609.356 122.232C608.74 122.232 608.236 122.475 607.844 122.96C607.452 123.436 607.256 124.052 607.256 124.808C607.256 125.667 607.471 126.334 607.9 126.81C608.273 127.202 608.74 127.398 609.3 127.398C609.673 127.398 610.014 127.3 610.322 127.104C610.639 126.899 610.873 126.633 611.022 126.306ZM619.297 125.144H614.761C614.798 125.825 615.032 126.371 615.461 126.782C615.9 127.193 616.464 127.398 617.155 127.398C617.734 127.398 618.298 127.225 618.849 126.88L619.171 127.44C618.555 127.925 617.813 128.168 616.945 128.168C615.937 128.168 615.134 127.837 614.537 127.174C613.986 126.577 613.711 125.802 613.711 124.85C613.711 123.861 614.005 123.035 614.593 122.372C615.125 121.775 615.783 121.476 616.567 121.476C617.51 121.476 618.228 121.859 618.723 122.624C619.106 123.221 619.297 123.959 619.297 124.836V125.144ZM614.747 124.388H618.331C618.303 123.707 618.135 123.175 617.827 122.792C617.528 122.409 617.113 122.218 616.581 122.218C616.077 122.218 615.652 122.419 615.307 122.82C614.971 123.221 614.784 123.744 614.747 124.388ZM624.048 127.272L624.496 126.642C625.177 127.034 625.901 127.23 626.666 127.23C627.254 127.23 627.716 127.095 628.052 126.824C628.388 126.544 628.556 126.152 628.556 125.648C628.556 124.789 627.991 124.164 626.862 123.772C625.901 123.445 625.205 123.081 624.776 122.68C624.347 122.279 624.132 121.789 624.132 121.21C624.132 120.519 624.403 119.964 624.944 119.544C625.439 119.161 626.087 118.97 626.89 118.97C627.767 118.97 628.565 119.213 629.284 119.698L628.822 120.328C628.243 120.02 627.623 119.866 626.96 119.866C626.419 119.866 625.989 119.983 625.672 120.216C625.355 120.449 625.196 120.767 625.196 121.168C625.196 121.793 625.681 122.288 626.652 122.652C627.753 123.072 628.523 123.506 628.962 123.954C629.41 124.393 629.634 124.967 629.634 125.676C629.634 126.488 629.321 127.127 628.696 127.594C628.183 127.977 627.557 128.168 626.82 128.168C625.896 128.168 624.972 127.869 624.048 127.272ZM636.632 121.644V128H635.904L635.82 127.272L635.778 127.286C635.209 127.874 634.518 128.168 633.706 128.168C633.025 128.168 632.488 127.93 632.096 127.454C631.704 126.969 631.508 126.301 631.508 125.452V121.644H632.446V125.284C632.446 126.656 632.959 127.342 633.986 127.342C634.303 127.342 634.621 127.263 634.938 127.104C635.265 126.945 635.521 126.74 635.708 126.488V121.644H636.632ZM638.822 121.644H639.564L639.69 122.33C640.213 121.761 640.904 121.476 641.762 121.476C642.677 121.476 643.4 121.821 643.932 122.512C644.38 123.1 644.604 123.828 644.604 124.696C644.604 125.844 644.278 126.74 643.624 127.384C643.092 127.907 642.448 128.168 641.692 128.168C640.871 128.168 640.227 127.916 639.76 127.412V130.548H638.822V121.644ZM639.76 123.366V126.376C639.872 126.665 640.092 126.908 640.418 127.104C640.754 127.3 641.1 127.398 641.454 127.398C642.098 127.398 642.616 127.165 643.008 126.698C643.4 126.231 643.596 125.611 643.596 124.836C643.596 123.968 643.382 123.301 642.952 122.834C642.598 122.442 642.131 122.246 641.552 122.246C641.188 122.246 640.834 122.353 640.488 122.568C640.143 122.783 639.9 123.049 639.76 123.366ZM646.369 121.644H647.111L647.237 122.33C647.76 121.761 648.451 121.476 649.309 121.476C650.224 121.476 650.947 121.821 651.479 122.512C651.927 123.1 652.151 123.828 652.151 124.696C652.151 125.844 651.825 126.74 651.171 127.384C650.639 127.907 649.995 128.168 649.239 128.168C648.418 128.168 647.774 127.916 647.307 127.412V130.548H646.369V121.644ZM647.307 123.366V126.376C647.419 126.665 647.639 126.908 647.965 127.104C648.301 127.3 648.647 127.398 649.001 127.398C649.645 127.398 650.163 127.165 650.555 126.698C650.947 126.231 651.143 125.611 651.143 124.836C651.143 123.968 650.929 123.301 650.499 122.834C650.145 122.442 649.678 122.246 649.099 122.246C648.735 122.246 648.381 122.353 648.035 122.568C647.69 122.783 647.447 123.049 647.307 123.366ZM659.614 124.836C659.614 125.844 659.297 126.67 658.662 127.314C658.093 127.883 657.393 128.168 656.562 128.168C655.601 128.168 654.826 127.804 654.238 127.076C653.744 126.46 653.496 125.713 653.496 124.836C653.496 123.809 653.804 122.979 654.42 122.344C654.98 121.765 655.694 121.476 656.562 121.476C657.542 121.476 658.322 121.845 658.9 122.582C659.376 123.198 659.614 123.949 659.614 124.836ZM654.504 124.836C654.504 125.648 654.714 126.292 655.134 126.768C655.508 127.188 655.979 127.398 656.548 127.398C657.164 127.398 657.659 127.165 658.032 126.698C658.415 126.222 658.606 125.601 658.606 124.836C658.606 124.033 658.401 123.389 657.99 122.904C657.617 122.456 657.141 122.232 656.562 122.232C655.946 122.232 655.447 122.475 655.064 122.96C654.691 123.436 654.504 124.061 654.504 124.836ZM665.525 122.19L664.755 122.722C664.438 122.442 664.097 122.302 663.733 122.302C663.201 122.302 662.73 122.577 662.319 123.128V128H661.381V121.644H662.179L662.263 122.316H662.291C662.842 121.756 663.406 121.476 663.985 121.476C664.666 121.476 665.18 121.714 665.525 122.19ZM668.263 122.414L668.249 126.39C668.249 127.071 668.525 127.412 669.075 127.412C669.383 127.412 669.687 127.333 669.985 127.174L670.321 127.692C669.864 128.009 669.383 128.168 668.879 128.168C668.385 128.168 668.002 128.014 667.731 127.706C667.461 127.398 667.325 126.969 667.325 126.418V122.414H666.359V121.644H667.339V120.258L668.263 119.782V121.644H670.209V122.414H668.263Z" fill="black"/>
<rect x="384" y="515" width="148" height="72" rx="16" fill="#E2E8F0"/>
<path d="M442.528 546.408C444.544 543.32 446.648 540.12 448.84 536.808H452.152V546.408H454.6V549.096H452.152V552H448.792V549.096H442.528V546.408ZM445.408 546.408H448.792V541.104C448.408 541.696 447.928 542.448 447.352 543.36C446.504 544.688 445.856 545.704 445.408 546.408Z" fill="black"/>
<path d="M448.972 560.852L448.552 561.454C447.927 561.062 447.287 560.866 446.634 560.866C445.738 560.866 445.033 561.235 444.52 561.972C444.044 562.644 443.806 563.54 443.806 564.66C443.806 565.827 444.114 566.737 444.73 567.39C445.253 567.959 445.925 568.244 446.746 568.244C447.418 568.244 448.057 568.025 448.664 567.586L449.084 568.216C448.356 568.851 447.53 569.168 446.606 569.168C445.327 569.168 444.324 568.673 443.596 567.684C442.999 566.872 442.7 565.864 442.7 564.66C442.7 563.316 443.064 562.187 443.792 561.272C444.483 560.404 445.365 559.97 446.438 559.97C447.39 559.97 448.235 560.264 448.972 560.852ZM456.214 565.836C456.214 566.844 455.896 567.67 455.262 568.314C454.692 568.883 453.992 569.168 453.162 569.168C452.2 569.168 451.426 568.804 450.838 568.076C450.343 567.46 450.096 566.713 450.096 565.836C450.096 564.809 450.404 563.979 451.02 563.344C451.58 562.765 452.294 562.476 453.162 562.476C454.142 562.476 454.921 562.845 455.5 563.582C455.976 564.198 456.214 564.949 456.214 565.836ZM451.104 565.836C451.104 566.648 451.314 567.292 451.734 567.768C452.107 568.188 452.578 568.398 453.148 568.398C453.764 568.398 454.258 568.165 454.632 567.698C455.014 567.222 455.206 566.601 455.206 565.836C455.206 565.033 455 564.389 454.59 563.904C454.216 563.456 453.74 563.232 453.162 563.232C452.546 563.232 452.046 563.475 451.664 563.96C451.29 564.436 451.104 565.061 451.104 565.836ZM467.487 569H466.549V565.36C466.549 563.979 465.97 563.288 464.813 563.288C464.187 563.288 463.609 563.559 463.077 564.1C463.17 564.427 463.217 564.791 463.217 565.192V569H462.293V565.304C462.293 563.96 461.728 563.288 460.599 563.288C460.3 563.288 459.987 563.372 459.661 563.54C459.343 563.699 459.096 563.899 458.919 564.142V569H457.981V562.644H458.765L458.849 563.302H458.891C459.479 562.751 460.155 562.476 460.921 562.476C461.835 562.476 462.475 562.817 462.839 563.498C463.455 562.817 464.225 562.476 465.149 562.476C465.914 562.476 466.502 562.723 466.913 563.218C467.295 563.685 467.487 564.343 467.487 565.192V569ZM479.108 569H478.17V565.36C478.17 563.979 477.591 563.288 476.434 563.288C475.808 563.288 475.23 563.559 474.698 564.1C474.791 564.427 474.838 564.791 474.838 565.192V569H473.914V565.304C473.914 563.96 473.349 563.288 472.22 563.288C471.921 563.288 471.608 563.372 471.282 563.54C470.964 563.699 470.717 563.899 470.54 564.142V569H469.602V562.644H470.386L470.47 563.302H470.512C471.1 562.751 471.776 562.476 472.542 562.476C473.456 562.476 474.096 562.817 474.46 563.498C475.076 562.817 475.846 562.476 476.77 562.476C477.535 562.476 478.123 562.723 478.534 563.218C478.916 563.685 479.108 564.343 479.108 565.192V569ZM486.347 562.644V569H485.619L485.535 568.272L485.493 568.286C484.924 568.874 484.233 569.168 483.421 569.168C482.74 569.168 482.203 568.93 481.811 568.454C481.419 567.969 481.223 567.301 481.223 566.452V562.644H482.161V566.284C482.161 567.656 482.674 568.342 483.701 568.342C484.018 568.342 484.336 568.263 484.653 568.104C484.98 567.945 485.236 567.74 485.423 567.488V562.644H486.347ZM493.885 569H492.961V565.276C492.961 563.951 492.383 563.288 491.225 563.288C490.889 563.288 490.558 563.367 490.231 563.526C489.905 563.685 489.653 563.885 489.475 564.128V569H488.537V562.644H489.321L489.405 563.316H489.447C489.998 562.756 490.689 562.476 491.519 562.476C493.097 562.476 493.885 563.386 493.885 565.206V569ZM496.996 562.644V569H496.072V562.644H496.996ZM495.932 560.572C495.932 560.413 495.993 560.273 496.114 560.152C496.235 560.031 496.38 559.97 496.548 559.97C496.716 559.97 496.861 560.031 496.982 560.152C497.103 560.273 497.164 560.413 497.164 560.572C497.164 560.749 497.103 560.899 496.982 561.02C496.861 561.132 496.716 561.188 496.548 561.188C496.371 561.188 496.221 561.132 496.1 561.02C495.988 560.899 495.932 560.749 495.932 560.572ZM500.656 563.414L500.642 567.39C500.642 568.071 500.917 568.412 501.468 568.412C501.776 568.412 502.079 568.333 502.378 568.174L502.714 568.692C502.257 569.009 501.776 569.168 501.272 569.168C500.777 569.168 500.395 569.014 500.124 568.706C499.853 568.398 499.718 567.969 499.718 567.418V563.414H498.752V562.644H499.732V561.258L500.656 560.782V562.644H502.602V563.414H500.656ZM505.391 562.644V569H504.467V562.644H505.391ZM504.327 560.572C504.327 560.413 504.387 560.273 504.509 560.152C504.63 560.031 504.775 559.97 504.943 559.97C505.111 559.97 505.255 560.031 505.377 560.152C505.498 560.273 505.559 560.413 505.559 560.572C505.559 560.749 505.498 560.899 505.377 561.02C505.255 561.132 505.111 561.188 504.943 561.188C504.765 561.188 504.616 561.132 504.495 561.02C504.383 560.899 504.327 560.749 504.327 560.572ZM512.817 566.144H508.281C508.318 566.825 508.551 567.371 508.981 567.782C509.419 568.193 509.984 568.398 510.675 568.398C511.253 568.398 511.818 568.225 512.369 567.88L512.691 568.44C512.075 568.925 511.333 569.168 510.465 569.168C509.457 569.168 508.654 568.837 508.057 568.174C507.506 567.577 507.231 566.802 507.231 565.85C507.231 564.861 507.525 564.035 508.113 563.372C508.645 562.775 509.303 562.476 510.087 562.476C511.029 562.476 511.748 562.859 512.243 563.624C512.625 564.221 512.817 564.959 512.817 565.836V566.144ZM508.267 565.388H511.851C511.823 564.707 511.655 564.175 511.347 563.792C511.048 563.409 510.633 563.218 510.101 563.218C509.597 563.218 509.172 563.419 508.827 563.82C508.491 564.221 508.304 564.744 508.267 565.388ZM517.914 563.596C517.448 563.353 516.939 563.232 516.388 563.232C516.015 563.232 515.721 563.316 515.506 563.484C515.301 563.643 515.198 563.862 515.198 564.142C515.198 564.441 515.292 564.674 515.478 564.842C515.674 565.001 516.043 565.159 516.584 565.318C517.35 565.551 517.882 565.813 518.18 566.102C518.479 566.391 518.628 566.797 518.628 567.32C518.628 567.871 518.418 568.319 517.998 568.664C517.588 569 517.056 569.168 516.402 569.168C515.544 569.168 514.797 568.935 514.162 568.468C514.19 568.421 514.237 568.342 514.302 568.23C514.368 568.109 514.424 568.015 514.47 567.95C515.012 568.249 515.595 568.398 516.22 568.398C517.2 568.398 517.69 568.029 517.69 567.292C517.69 566.993 517.583 566.76 517.368 566.592C517.163 566.424 516.776 566.265 516.206 566.116C514.881 565.743 514.218 565.094 514.218 564.17C514.218 563.675 514.41 563.269 514.792 562.952C515.184 562.635 515.684 562.476 516.29 562.476C517.009 562.476 517.653 562.677 518.222 563.078L517.914 563.596Z" fill="black"/>
<path d="M423.27 557.493C424.833 556.467 426.887 557.587 426.887 559.453V562.463C426.887 565.427 424.577 568.6 421.8 569.533L414.357 572.007C413.05 572.45 410.927 572.45 409.643 572.007L402.2 569.533C399.4 568.6 397.113 565.427 397.113 562.463V559.43C397.113 557.587 399.167 556.467 400.707 557.47L405.513 560.597C407.357 561.833 409.69 562.44 412.023 562.44C414.357 562.44 416.69 561.833 418.533 560.597L423.27 557.493Z" fill="#6D28D9"/>
<path d="M430.62 536.073L416.643 526.903C414.123 525.247 409.97 525.247 407.45 526.903L393.403 536.073C388.9 538.99 388.9 545.593 393.403 548.533L397.137 550.96L407.45 557.68C409.97 559.337 414.123 559.337 416.643 557.68L426.887 550.96L430.083 548.86V556C430.083 556.957 430.877 557.75 431.833 557.75C432.79 557.75 433.583 556.957 433.583 556V544.52C434.517 541.51 433.56 538.01 430.62 536.073Z" fill="#6D28D9"/>
<rect x="51" y="141" width="172" height="72" rx="16" fill="#E2E8F0"/>
<path d="M131.8 164.496H126.568V167.304C126.76 167.256 126.976 167.232 127.216 167.232C129.088 167.232 130.496 167.68 131.44 168.576C132.32 169.408 132.76 170.576 132.76 172.08C132.76 173.616 132.184 174.896 131.032 175.92C130.008 176.832 128.768 177.288 127.312 177.288C125.312 177.288 123.592 176.56 122.152 175.104L123.544 172.968C124.744 173.88 125.888 174.336 126.976 174.336C128.544 174.336 129.328 173.656 129.328 172.296C129.328 170.696 128.264 169.896 126.136 169.896C125.368 169.896 124.544 170 123.664 170.208L123.568 170.232C123.408 170.28 123.296 170.312 123.232 170.328V161.808H131.8V164.496ZM140.658 161.52C142.514 161.52 144.018 162.408 145.17 164.184C146.13 165.656 146.609 167.408 146.609 169.44C146.609 171.872 146.002 173.824 144.786 175.296C143.698 176.624 142.322 177.288 140.658 177.288C138.722 177.288 137.218 176.44 136.146 174.744C135.234 173.32 134.778 171.552 134.778 169.44C134.778 167.072 135.378 165.128 136.578 163.608C137.65 162.216 139.01 161.52 140.658 161.52ZM140.706 164.4C139.09 164.4 138.282 166.032 138.282 169.296C138.282 170.944 138.514 172.24 138.978 173.184C139.394 174.032 139.946 174.456 140.634 174.456C141.402 174.456 142.002 174 142.434 173.088C142.882 172.176 143.106 170.912 143.106 169.296C143.106 166.032 142.306 164.4 140.706 164.4ZM151.852 172.872H148.18V170.28H151.852V166.104H154.9V170.28H158.596V172.872H154.9V177H151.852V172.872Z" fill="black"/>
<path d="M125.508 194.168C124.229 194.168 123.235 193.641 122.526 192.586C121.975 191.765 121.7 190.766 121.7 189.59C121.7 188.227 122.064 187.107 122.792 186.23C123.483 185.39 124.388 184.97 125.508 184.97C126.787 184.97 127.781 185.502 128.49 186.566C129.041 187.406 129.316 188.414 129.316 189.59C129.316 190.953 128.952 192.068 128.224 192.936C127.533 193.757 126.628 194.168 125.508 194.168ZM122.806 189.59C122.806 190.766 123.063 191.685 123.576 192.348C124.052 192.955 124.696 193.258 125.508 193.258C126.441 193.258 127.146 192.866 127.622 192.082C128.014 191.438 128.21 190.607 128.21 189.59C128.21 188.414 127.953 187.49 127.44 186.818C126.964 186.183 126.32 185.866 125.508 185.866C124.584 185.866 123.879 186.272 123.394 187.084C123.002 187.737 122.806 188.573 122.806 189.59ZM136.45 194H135.526V190.276C135.526 188.951 134.947 188.288 133.79 188.288C133.454 188.288 133.122 188.367 132.796 188.526C132.469 188.685 132.217 188.885 132.04 189.128V194H131.102V187.644H131.886L131.97 188.316H132.012C132.562 187.756 133.253 187.476 134.084 187.476C135.661 187.476 136.45 188.386 136.45 190.206V194ZM139.505 184.97V194H138.567V185.474L139.505 184.97ZM142.678 187.644V194H141.754V187.644H142.678ZM141.614 185.572C141.614 185.413 141.674 185.273 141.796 185.152C141.917 185.031 142.062 184.97 142.23 184.97C142.398 184.97 142.542 185.031 142.664 185.152C142.785 185.273 142.846 185.413 142.846 185.572C142.846 185.749 142.785 185.899 142.664 186.02C142.542 186.132 142.398 186.188 142.23 186.188C142.052 186.188 141.903 186.132 141.782 186.02C141.67 185.899 141.614 185.749 141.614 185.572ZM150.286 194H149.362V190.276C149.362 188.951 148.783 188.288 147.626 188.288C147.29 188.288 146.958 188.367 146.632 188.526C146.305 188.685 146.053 188.885 145.876 189.128V194H144.938V187.644H145.722L145.806 188.316H145.848C146.398 187.756 147.089 187.476 147.92 187.476C149.497 187.476 150.286 188.386 150.286 190.206V194ZM157.569 191.144H153.033C153.07 191.825 153.303 192.371 153.733 192.782C154.171 193.193 154.736 193.398 155.427 193.398C156.005 193.398 156.57 193.225 157.121 192.88L157.443 193.44C156.827 193.925 156.085 194.168 155.217 194.168C154.209 194.168 153.406 193.837 152.809 193.174C152.258 192.577 151.983 191.802 151.983 190.85C151.983 189.861 152.277 189.035 152.865 188.372C153.397 187.775 154.055 187.476 154.839 187.476C155.781 187.476 156.5 187.859 156.995 188.624C157.377 189.221 157.569 189.959 157.569 190.836V191.144ZM153.019 190.388H156.603C156.575 189.707 156.407 189.175 156.099 188.792C155.8 188.409 155.385 188.218 154.853 188.218C154.349 188.218 153.924 188.419 153.579 188.82C153.243 189.221 153.056 189.744 153.019 190.388ZM168.577 185.852L168.157 186.454C167.532 186.062 166.893 185.866 166.239 185.866C165.343 185.866 164.639 186.235 164.125 186.972C163.649 187.644 163.411 188.54 163.411 189.66C163.411 190.827 163.719 191.737 164.335 192.39C164.858 192.959 165.53 193.244 166.351 193.244C167.023 193.244 167.663 193.025 168.269 192.586L168.689 193.216C167.961 193.851 167.135 194.168 166.211 194.168C164.933 194.168 163.929 193.673 163.201 192.684C162.604 191.872 162.305 190.864 162.305 189.66C162.305 188.316 162.669 187.187 163.397 186.272C164.088 185.404 164.97 184.97 166.043 184.97C166.995 184.97 167.84 185.264 168.577 185.852ZM175.819 190.836C175.819 191.844 175.502 192.67 174.867 193.314C174.298 193.883 173.598 194.168 172.767 194.168C171.806 194.168 171.031 193.804 170.443 193.076C169.949 192.46 169.701 191.713 169.701 190.836C169.701 189.809 170.009 188.979 170.625 188.344C171.185 187.765 171.899 187.476 172.767 187.476C173.747 187.476 174.527 187.845 175.105 188.582C175.581 189.198 175.819 189.949 175.819 190.836ZM170.709 190.836C170.709 191.648 170.919 192.292 171.339 192.768C171.713 193.188 172.184 193.398 172.753 193.398C173.369 193.398 173.864 193.165 174.237 192.698C174.62 192.222 174.811 191.601 174.811 190.836C174.811 190.033 174.606 189.389 174.195 188.904C173.822 188.456 173.346 188.232 172.767 188.232C172.151 188.232 171.652 188.475 171.269 188.96C170.896 189.436 170.709 190.061 170.709 190.836ZM182.71 187.644V194H181.982L181.898 193.272L181.856 193.286C181.287 193.874 180.596 194.168 179.784 194.168C179.103 194.168 178.566 193.93 178.174 193.454C177.782 192.969 177.586 192.301 177.586 191.452V187.644H178.524V191.284C178.524 192.656 179.037 193.342 180.064 193.342C180.381 193.342 180.699 193.263 181.016 193.104C181.343 192.945 181.599 192.74 181.786 192.488V187.644H182.71ZM189.045 188.19L188.275 188.722C187.957 188.442 187.617 188.302 187.253 188.302C186.721 188.302 186.249 188.577 185.839 189.128V194H184.901V187.644H185.699L185.783 188.316H185.811C186.361 187.756 186.926 187.476 187.505 187.476C188.186 187.476 188.699 187.714 189.045 188.19ZM193.51 188.596C193.043 188.353 192.535 188.232 191.984 188.232C191.611 188.232 191.317 188.316 191.102 188.484C190.897 188.643 190.794 188.862 190.794 189.142C190.794 189.441 190.887 189.674 191.074 189.842C191.27 190.001 191.639 190.159 192.18 190.318C192.945 190.551 193.477 190.813 193.776 191.102C194.075 191.391 194.224 191.797 194.224 192.32C194.224 192.871 194.014 193.319 193.594 193.664C193.183 194 192.651 194.168 191.998 194.168C191.139 194.168 190.393 193.935 189.758 193.468C189.786 193.421 189.833 193.342 189.898 193.23C189.963 193.109 190.019 193.015 190.066 192.95C190.607 193.249 191.191 193.398 191.816 193.398C192.796 193.398 193.286 193.029 193.286 192.292C193.286 191.993 193.179 191.76 192.964 191.592C192.759 191.424 192.371 191.265 191.802 191.116C190.477 190.743 189.814 190.094 189.814 189.17C189.814 188.675 190.005 188.269 190.388 187.952C190.78 187.635 191.279 187.476 191.886 187.476C192.605 187.476 193.249 187.677 193.818 188.078L193.51 188.596ZM201.018 191.144H196.482C196.519 191.825 196.752 192.371 197.182 192.782C197.62 193.193 198.185 193.398 198.876 193.398C199.454 193.398 200.019 193.225 200.57 192.88L200.892 193.44C200.276 193.925 199.534 194.168 198.666 194.168C197.658 194.168 196.855 193.837 196.258 193.174C195.707 192.577 195.432 191.802 195.432 190.85C195.432 189.861 195.726 189.035 196.314 188.372C196.846 187.775 197.504 187.476 198.288 187.476C199.23 187.476 199.949 187.859 200.444 188.624C200.826 189.221 201.018 189.959 201.018 190.836V191.144ZM196.468 190.388H200.052C200.024 189.707 199.856 189.175 199.548 188.792C199.249 188.409 198.834 188.218 198.302 188.218C197.798 188.218 197.373 188.419 197.028 188.82C196.692 189.221 196.505 189.744 196.468 190.388ZM206.115 188.596C205.649 188.353 205.14 188.232 204.589 188.232C204.216 188.232 203.922 188.316 203.707 188.484C203.502 188.643 203.399 188.862 203.399 189.142C203.399 189.441 203.493 189.674 203.679 189.842C203.875 190.001 204.244 190.159 204.785 190.318C205.551 190.551 206.083 190.813 206.381 191.102C206.68 191.391 206.829 191.797 206.829 192.32C206.829 192.871 206.619 193.319 206.199 193.664C205.789 194 205.257 194.168 204.603 194.168C203.745 194.168 202.998 193.935 202.363 193.468C202.391 193.421 202.438 193.342 202.503 193.23C202.569 193.109 202.625 193.015 202.671 192.95C203.213 193.249 203.796 193.398 204.421 193.398C205.401 193.398 205.891 193.029 205.891 192.292C205.891 191.993 205.784 191.76 205.569 191.592C205.364 191.424 204.977 191.265 204.407 191.116C203.082 190.743 202.419 190.094 202.419 189.17C202.419 188.675 202.611 188.269 202.993 187.952C203.385 187.635 203.885 187.476 204.491 187.476C205.21 187.476 205.854 187.677 206.423 188.078L206.115 188.596Z" fill="black"/>
<path d="M110.333 163.317V191.06C110.333 193.323 108.49 195.4 106.227 195.68L105.503 195.773C101.677 196.287 96.2867 197.873 91.9467 199.693C90.43 200.323 88.75 199.18 88.75 197.523V165.067C88.75 164.203 89.24 163.41 90.01 162.99C94.28 160.68 100.743 158.627 105.13 158.253H105.27C108.07 158.253 110.333 160.517 110.333 163.317Z" fill="#6D28D9"/>
<path d="M83.9902 162.99C79.7202 160.68 73.2569 158.627 68.8702 158.253H68.7069C65.9069 158.253 63.6436 160.517 63.6436 163.317V191.06C63.6436 193.323 65.4869 195.4 67.7502 195.68L68.4736 195.773C72.3002 196.287 77.6902 197.873 82.0302 199.693C83.5469 200.323 85.2269 199.18 85.2269 197.523V165.067C85.2269 164.18 84.7602 163.41 83.9902 162.99ZM70.6669 170.06H75.9169C76.8736 170.06 77.6669 170.853 77.6669 171.81C77.6669 172.79 76.8736 173.56 75.9169 173.56H70.6669C69.7102 173.56 68.9169 172.79 68.9169 171.81C68.9169 170.853 69.7102 170.06 70.6669 170.06ZM77.6669 180.56H70.6669C69.7102 180.56 68.9169 179.79 68.9169 178.81C68.9169 177.853 69.7102 177.06 70.6669 177.06H77.6669C78.6236 177.06 79.4169 177.853 79.4169 178.81C79.4169 179.79 78.6236 180.56 77.6669 180.56Z" fill="#6D28D9"/>
</svg>
