<svg width="313" height="348" viewBox="0 0 313 348" fill="none" xmlns="http://www.w3.org/2000/svg">
<path d="M126.802 29.4904C128.063 14.53 141.501 3.62172 156.402 5.45175L173.062 7.49746C187.238 9.23598 197.48 21.9154 196.199 36.1439L195.388 45.111C194.833 51.2808 189.304 55.784 183.147 55.0781L135.834 49.6403C129.913 48.9606 125.599 43.6927 126.102 37.7517L126.802 29.4904Z" fill="#F3B6A1"/>
<path d="M141.931 80.457L169.63 82.189L168.414 101.626C168.362 102.43 167.669 103.045 166.865 102.992L142.081 101.443C141.277 101.391 140.663 100.698 140.715 99.8945L141.931 80.457Z" fill="#DA7157"/>
<path d="M169.623 82.189C162.76 92.8097 148.46 91.0973 141.29 90.6463L141.931 80.457L169.623 82.189Z" fill="#AE4935"/>
<path d="M230.65 270.975L216.866 126.73C213.931 106.887 195.624 91.6786 173.18 90.4368L140.985 88.6525C118.417 87.4042 98.0316 100.62 92.4369 120.122L60.0652 270.969H230.65V270.975Z" fill="#7035BC"/>
<path d="M41.1362 189.546C47.025 189.546 52.9203 187.344 57.4888 182.926L123.834 118.679C133.16 109.646 133.402 94.764 124.37 85.4375C115.337 76.1109 100.455 75.869 91.1286 84.9015L24.7837 149.148C15.4571 158.181 15.2153 173.063 24.2477 182.39C28.8555 187.154 34.9926 189.546 41.1362 189.546Z" fill="#7035BC"/>
<path d="M278.659 181.977C285.705 181.977 292.672 178.821 297.306 172.808C305.227 162.52 303.305 147.756 293.018 139.841L224.987 87.4632C214.7 79.5418 199.935 81.4633 192.02 91.7507C184.105 102.038 186.021 116.802 196.308 124.717L264.339 177.095C268.607 180.383 273.653 181.977 278.659 181.977Z" fill="#7035BC"/>
<path d="M162.643 9.98799C145.428 8.65468 130.396 21.5237 129.056 38.739L127.958 52.8759C126.624 70.0912 139.493 85.1236 156.709 86.4634C173.924 87.7967 188.956 74.9277 190.296 57.7124L191.394 43.5755C192.728 26.3602 179.852 11.3278 162.643 9.98799Z" fill="#DA7157"/>
<path d="M127.88 54.1699C122.159 54.1699 117.521 49.5319 117.521 43.8107C117.521 38.0894 122.159 33.4514 127.88 33.4514C133.601 33.4514 138.239 38.0894 138.239 43.8107C138.239 49.5319 133.601 54.1699 127.88 54.1699Z" fill="#DA7157"/>
<path d="M193.439 62.248C187.718 62.248 183.08 57.61 183.08 51.8888C183.08 46.1675 187.718 41.5295 193.439 41.5295C199.16 41.5295 203.798 46.1675 203.798 51.8888C203.798 57.61 199.16 62.248 193.439 62.248Z" fill="#DA7157"/>
<path d="M163.386 44.6608C163.216 42.8046 160.641 42.4909 160.027 44.249L155.484 57.2749C155.118 58.3206 155.818 59.4317 156.916 59.5624L162.7 60.2487C163.791 60.3794 164.726 59.4709 164.628 58.3729L163.386 44.6608Z" fill="#923827"/>
<path d="M173.581 48.3663C171.98 48.2225 170.561 49.4055 170.418 51.0068L170.222 53.1832C170.078 54.7845 171.261 56.2028 172.862 56.3465C174.463 56.4903 175.882 55.3073 176.025 53.7061L176.221 51.5297C176.365 49.9284 175.182 48.5101 173.581 48.3663Z" fill="#111111"/>
<path d="M148.505 45.4971C146.904 45.3076 145.459 46.4513 145.27 48.0461L145.008 50.216C144.819 51.8172 145.963 53.2616 147.557 53.4512C149.159 53.6407 150.603 52.497 150.792 50.9022L151.054 48.7323C151.243 47.1376 150.1 45.6932 148.505 45.4971Z" fill="#111111"/>
<path d="M181.842 49.6146C181.431 47.5036 179.346 43.0919 174.326 42.3337" stroke="#7A3322" stroke-width="1.96074" stroke-linecap="round"/>
<path d="M141.001 44.7259C141.897 42.7717 144.962 38.9678 150.021 39.4123" stroke="#7A3322" stroke-width="1.96074" stroke-linecap="round"/>
<path d="M179.183 69.0259C175.793 69.0259 173.046 66.2783 173.046 62.8888C173.046 59.4994 175.793 56.7517 179.183 56.7517C182.572 56.7517 185.32 59.4994 185.32 62.8888C185.32 66.2783 182.572 69.0259 179.183 69.0259Z" fill="#B14646"/>
<path d="M140.111 65.0653C136.722 65.0653 133.974 62.3176 133.974 58.9281C133.974 55.5387 136.722 52.791 140.111 52.791C143.501 52.791 146.248 55.5387 146.248 58.9281C146.248 62.3176 143.501 65.0653 140.111 65.0653Z" fill="#B14646"/>
<path d="M167.194 70.1829L166.972 72.026C166.809 73.3789 166.26 74.5945 165.443 75.5618C164.031 77.235 161.835 78.1958 159.502 77.9147L155.626 77.4572C153.286 77.1827 151.378 75.7383 150.397 73.7776C149.829 72.6403 149.574 71.3332 149.737 69.9803L149.959 68.1372C150.103 66.928 151.201 66.0588 152.41 66.2026L165.266 67.7254C166.475 67.8757 167.338 68.9737 167.194 70.1829Z" fill="#111111"/>
<path d="M165.443 75.5683C164.031 77.2415 161.835 78.2022 159.502 77.9212L155.626 77.4637C153.286 77.1892 151.378 75.7448 150.397 73.784C152.476 72.4703 155.26 71.8298 158.221 72.1762C161.175 72.5291 163.73 73.8036 165.443 75.5683Z" fill="#A91818"/>
<path d="M155.264 89.5347C151.976 148.494 146.8 213.931 143.251 272.609" stroke="#844BDD" stroke-width="3.92148" stroke-miterlimit="10"/>
<path d="M156.675 88.7508L165.132 99.6199C165.753 100.417 165.609 101.581 164.812 102.202C164.015 102.822 162.851 102.679 162.231 101.881L153.773 91.0122C153.152 90.2149 153.296 89.0515 154.093 88.4306C154.891 87.8097 156.054 87.9535 156.675 88.7508Z" fill="#844BDD"/>
<path d="M93.0607 223.803L134.275 236.659C138.393 237.946 142.811 235.626 144.099 231.509L164.517 166.046C165.804 161.928 163.484 157.51 159.366 156.223L118.152 143.367C114.034 142.079 109.616 144.399 108.328 148.517L87.904 213.979C86.6229 218.097 88.9432 222.515 93.0607 223.803Z" fill="#F1F1F1"/>
<path d="M160.996 156.732L161.44 156.87C164.414 157.798 166.094 160.994 165.165 163.968L143.447 233.58C142.519 236.554 139.323 238.234 136.349 237.306L135.905 237.169L160.996 156.732Z" fill="#7FD4F4"/>
<path d="M94.7632 214.078L132.991 226.006C133.834 226.267 134.736 225.796 134.998 224.953C135.259 224.11 134.788 223.208 133.945 222.947L95.7174 211.019C94.8743 210.758 93.9724 211.228 93.711 212.071C93.4495 212.908 93.9201 213.81 94.7632 214.078Z" fill="#B2B2B2"/>
<path d="M97.4365 205.503L135.664 217.43C136.508 217.692 137.41 217.221 137.671 216.378C137.932 215.535 137.462 214.633 136.619 214.372L98.3907 202.444C97.5476 202.182 96.6457 202.653 96.3842 203.496C96.1228 204.339 96.5934 205.241 97.4365 205.503Z" fill="#B2B2B2"/>
<path d="M100.109 196.934L138.337 208.862C139.18 209.123 140.082 208.653 140.344 207.81C140.605 206.966 140.135 206.064 139.292 205.803L101.064 193.875C100.221 193.614 99.3185 194.084 99.0571 194.927C98.7957 195.771 99.2662 196.673 100.109 196.934Z" fill="#B2B2B2"/>
<path d="M102.783 188.366L141.011 200.294C141.854 200.555 142.756 200.085 143.017 199.241C143.279 198.398 142.808 197.496 141.965 197.235L103.737 185.307C102.894 185.046 101.992 185.516 101.731 186.359C101.469 187.202 101.94 188.104 102.783 188.366Z" fill="#B2B2B2"/>
<path d="M105.456 179.797L143.684 191.725C144.527 191.987 145.429 191.516 145.69 190.673C145.952 189.83 145.481 188.928 144.638 188.666L106.41 176.738C105.567 176.477 104.665 176.948 104.404 177.791C104.142 178.634 104.613 179.536 105.456 179.797Z" fill="#B2B2B2"/>
<path d="M108.128 171.229L146.356 183.157C147.199 183.418 148.101 182.948 148.362 182.104C148.624 181.261 148.153 180.359 147.31 180.098L109.082 168.17C108.239 167.909 107.337 168.379 107.076 169.222C106.814 170.059 107.285 170.961 108.128 171.229Z" fill="#B2B2B2"/>
<path d="M110.803 162.654L149.03 174.582C149.874 174.843 150.775 174.373 151.037 173.529C151.298 172.686 150.828 171.784 149.985 171.523L111.757 159.595C110.914 159.334 110.012 159.804 109.75 160.647C109.489 161.491 109.959 162.392 110.803 162.654Z" fill="#B2B2B2"/>
<path d="M113.475 154.086L151.703 166.013C152.546 166.275 153.448 165.804 153.709 164.961C153.97 164.118 153.5 163.216 152.657 162.955L114.429 151.027C113.586 150.765 112.684 151.236 112.422 152.079C112.161 152.922 112.632 153.824 113.475 154.086Z" fill="#B2B2B2"/>
<path d="M141.577 207.631C140.499 209.154 140.858 211.258 142.381 212.336L158.178 223.519C160.42 225.107 160.923 228.369 159.335 230.617C157.747 232.859 154.642 233.395 152.4 231.807L141.91 224.375L154.387 233.212C156.629 234.8 157.158 237.905 155.57 240.153C153.982 242.395 150.877 242.931 148.636 241.342L136.159 232.506L148.636 241.342C150.877 242.931 151.407 246.035 149.819 248.283C148.23 250.525 145.126 251.061 142.884 249.473L130.407 240.636L141.296 248.349C143.538 249.937 144.067 253.041 142.472 255.29C140.884 257.532 137.78 258.067 135.538 256.479L115.754 242.473C115.702 242.434 115.65 242.401 115.604 242.362L114.414 241.519L90.2317 224.441L112.388 193.448L122.492 200.605L122.499 200.631C125.839 200.644 129.616 200.559 131.969 198.186L138.61 191.487C140.649 189.428 143.878 189.147 146.244 190.821C148.91 192.709 149.544 196.409 147.649 199.082L141.577 207.631Z" fill="#DA7157"/>
<path d="M117.383 191.964L90.2597 230.264L26.8885 186.964C16.1828 179.657 13.4312 165.05 20.7383 154.344C28.0453 143.638 42.6529 140.887 53.3585 148.194C75.7937 163.514 95.4137 175.986 117.383 191.964Z" fill="#7035BC"/>
<path d="M112.6 188.645L85.574 227.036L90.9735 230.722C92.4459 231.727 94.4522 231.366 95.4826 229.911L118.833 196.945C119.887 195.457 119.519 193.394 118.016 192.362L112.6 188.645Z" fill="#844BDD"/>
<path d="M198.675 77.5748L186.832 61.3399C185.153 59.0393 185.734 55.6537 188.042 53.974C190.349 52.2878 193.584 52.791 195.264 55.0982L203.133 65.8823L193.773 53.059C192.094 50.7584 192.604 47.5232 194.911 45.837C197.218 44.1507 200.453 44.654 202.133 46.9611L211.492 59.7844L202.133 46.9611C200.453 44.6605 200.963 41.4253 203.27 39.739C205.577 38.0528 208.812 38.5561 210.492 40.8632L219.851 53.6864L211.688 42.4971C210.008 40.1965 210.518 36.9613 212.825 35.2816C215.132 33.5954 218.368 34.0987 220.047 36.4058L234.884 56.7387C234.923 56.791 234.962 56.8432 234.995 56.9021L235.884 58.1243L254.034 82.9342L221.969 106.104C221.956 106.091 199.813 79.1369 198.675 77.5748Z" fill="#DA7157"/>
<path d="M129.664 31.2818L191.774 38.8502C190.499 24.1904 179.179 11.8901 163.997 9.93585C148.657 7.96203 134.468 17.1971 129.664 31.2818Z" fill="#F3B6A1"/>
<path d="M178.552 38.5364L170.317 27.5105L170.251 38.1835L178.552 38.5364Z" fill="#DA7157"/>
<path d="M156.422 35.6605L157.004 30.1965L151.108 35.2095L156.422 35.6605Z" fill="#DA7157"/>
<path d="M142.858 33.4058L144.302 28.6543L137.27 33.5169L142.858 33.4058Z" fill="#DA7157"/>
<path d="M194.929 70.3329L196.138 70.4441C199.504 70.7447 202.504 68.2415 202.811 64.8756L204.778 43.0198C205.079 39.6539 202.576 36.6539 199.21 36.3468L198.001 36.2357C194.635 35.935 191.635 38.4382 191.328 41.8042L189.361 63.6599C189.053 67.0324 191.563 70.0323 194.929 70.3329Z" fill="#7FD4F4"/>
<path d="M119.213 60.4447L120.854 60.7976C124.161 61.51 127.442 59.3859 128.154 56.0853L133.017 33.4845C133.729 30.1774 131.605 26.8964 128.305 26.184L126.664 25.831C123.357 25.1186 120.076 27.2428 119.364 30.5434L114.501 53.1442C113.788 56.4447 115.913 59.7323 119.213 60.4447Z" fill="#7FD4F4"/>
<path d="M127.004 28.955C129.637 14.5174 143.291 3.1843 157.898 5.36072L175.055 7.9162C190.401 10.2037 200.786 24.7067 197.93 39.8567" stroke="#7FD4F4" stroke-width="5.91052" stroke-miterlimit="10"/>
<path d="M117.769 52.0847L141.213 67.4765" stroke="#7FD4F4" stroke-width="5.91052" stroke-miterlimit="10"/>
<path d="M142.077 73.7968L147.593 75.2673C150.514 76.0451 153.541 74.2935 154.318 71.372C155.096 68.4505 153.344 65.4244 150.423 64.6467L144.907 63.1761C141.985 62.3983 138.959 64.1499 138.181 67.0714C137.397 69.9929 139.155 73.019 142.077 73.7968Z" fill="#7FD4F4"/>
<path d="M230.647 270.976L241.033 347.137H44.6645L57.5596 283.635L230.647 270.976Z" fill="#4E64CE"/>
<path d="M230.649 270.976L232.302 283.635H57.5608L60.064 270.976H230.649Z" fill="#844BDD"/>
<path d="M253.086 74.1501L213.178 102.117L260.151 171.645C267.687 182.795 282.837 185.729 293.987 178.194C305.137 170.658 308.072 155.508 300.536 144.358L253.406 74.6011C253.308 74.4442 253.191 74.3005 253.086 74.1501Z" fill="#7035BC"/>
<path d="M211.686 99.8801C210.888 98.6982 211.185 97.095 212.353 96.2767L247.978 71.3109C249.175 70.472 250.827 70.7775 251.645 71.9889L256.745 79.5422L216.706 107.319L211.686 99.8801Z" fill="#844BDD"/>
</svg>
