<svg width="872" height="829" viewBox="0 0 872 829" fill="none" xmlns="http://www.w3.org/2000/svg">
<rect width="180.967" height="340" rx="10" transform="matrix(-0.850783 -0.525517 0.55071 -0.834697 287.875 535.19)" fill="#8B5CF6"/>
<rect width="171.919" height="327.969" rx="8" transform="matrix(-0.850783 -0.525517 0.55071 -0.834697 283.409 524.097)" fill="#C4B5FD"/>
<rect width="165.887" height="318.416" rx="8" transform="matrix(-0.850783 -0.525517 0.55071 -0.834697 283.107 518.556)" fill="white"/>
<rect width="108.583" height="6.36819" rx="3.1841" transform="matrix(0.862063 0.508027 -0.534723 0.844367 328.471 199.057)" fill="#E2E8F0"/>
<path d="M326.769 201.745C327.709 200.26 329.7 199.781 331.216 200.674L378.379 228.468C379.895 229.362 380.362 231.29 379.422 232.775V232.775C378.481 234.259 376.49 234.739 374.974 233.845L327.811 206.051C326.295 205.158 325.828 203.23 326.769 201.745V201.745Z" fill="#10B981"/>
<rect width="25.4731" height="144.775" rx="4" transform="matrix(0.559053 -0.829486 0.844694 0.534637 159.689 421.292)" fill="#8B5CF6"/>
<path d="M263.425 323.143L281.888 340.08C293.691 328.111 301.635 317.34 312.8 323.822C323.965 330.303 324.716 335.744 327.177 353.934C329.637 372.124 300.6 389.812 291.466 384.509C272.046 393.447 263.826 370.285 255.941 363.886L263.425 323.143Z" fill="#FCD34D"/>
<path fill-rule="evenodd" clip-rule="evenodd" d="M339.092 321.657C343.805 330.193 345.696 340.02 344.513 349.823C343.329 359.626 339.128 368.935 332.472 376.505C325.815 384.075 317.021 389.543 307.268 392.177C297.515 394.811 287.269 394.485 277.901 391.243C268.534 388 260.493 381.997 254.856 374.036C249.22 366.075 246.256 356.537 246.362 346.7C246.468 336.863 249.639 327.197 255.451 318.996C261.262 310.795 269.436 304.452 278.877 300.815C281.041 299.983 283.211 301.559 283.464 303.795C283.811 306.857 284.504 309.859 285.536 312.75C286.514 315.504 290.408 315.181 291.922 312.59C295.28 306.802 299.976 301.841 305.618 298.121C312.991 293.27 321.642 290.728 330.385 290.843C332.381 290.863 333.727 292.653 333.538 294.607C332.613 304.048 334.545 313.459 339.092 321.657ZM315.756 365.496C311.802 371.822 305.495 376.428 298.223 378.302C290.951 380.176 283.309 379.165 276.979 375.49C265.563 368.863 261.184 354.96 265.506 342.972C266.55 340.092 270.528 340.662 271.903 343.329C273.698 346.803 276.238 349.839 279.354 352.238C281.021 353.514 283.417 352.647 284.425 350.761C289.41 341.356 297.802 334.048 307.895 330.322C308.433 330.121 309.012 330.064 309.57 330.159C310.128 330.254 310.644 330.497 311.064 330.861C315.845 335.074 318.928 340.835 319.784 347.154C320.64 353.473 319.216 359.958 315.756 365.496Z" fill="#F59E0B"/>
<rect width="102.171" height="166.106" rx="10" transform="matrix(-0.649174 -0.76064 0.775257 -0.631646 121.416 369.111)" fill="#8B5CF6"/>
<rect width="97.0624" height="162.942" rx="8" transform="matrix(-0.649174 -0.76064 0.775257 -0.631646 121.302 361.845)" fill="#C4B5FD"/>
<rect width="93.6567" height="158.196" rx="8" transform="matrix(-0.649174 -0.76064 0.775257 -0.631646 121.845 358.995)" fill="white"/>
<path d="M141.704 261.66L146.608 271.488C153.103 268.739 157.875 265.813 161.395 270.266C164.914 274.72 164.414 277.002 162.718 284.624C161.023 292.247 146.777 294.351 143.897 290.708C134.795 290.97 134.915 280.405 132.698 276.539L141.704 261.66Z" fill="#FCD34D"/>
<path fill-rule="evenodd" clip-rule="evenodd" d="M172.252 273.848C172.883 278.026 172.192 282.239 170.273 285.923C168.353 289.607 165.297 292.586 161.513 294.461C157.729 296.336 153.398 297.018 149.1 296.414C144.803 295.811 140.744 293.952 137.467 291.085C134.191 288.219 131.853 284.483 130.767 280.377C129.681 276.271 129.899 271.992 131.392 268.112C132.885 264.233 135.581 260.939 139.119 258.671C142.657 256.403 146.869 255.27 151.189 255.424C152.179 255.459 152.816 256.45 152.588 257.379C152.276 258.65 152.111 259.957 152.099 261.276C152.085 262.533 153.693 263.062 154.682 262.291C156.881 260.565 159.495 259.393 162.305 258.871C165.975 258.194 169.818 258.648 173.305 260.17C174.102 260.515 174.378 261.451 174.014 262.193C172.251 265.778 171.638 269.832 172.252 273.848ZM156.436 287.277C153.918 289.115 150.711 289.875 147.52 289.39C144.329 288.905 141.415 287.213 139.42 284.688C135.821 280.135 136.115 273.888 139.615 269.868C140.458 268.903 141.968 269.801 142.126 271.09C142.334 272.769 142.904 274.401 143.8 275.877C144.279 276.664 145.368 276.725 146.05 276.149C149.435 273.264 153.875 271.785 158.471 272.014C158.716 272.025 158.956 272.1 159.166 272.232C159.375 272.364 159.546 272.547 159.661 272.762C160.956 275.239 161.343 278.042 160.755 280.69C160.166 283.338 158.639 285.667 156.436 287.277Z" fill="#F59E0B"/>
<path d="M76.8077 292.069C76.0462 291.2 76.0746 289.949 76.8711 289.276L83.1069 284.004C83.9033 283.331 85.1663 283.489 85.9277 284.359L129.879 334.532C130.641 335.401 130.612 336.652 129.816 337.325L123.58 342.597C122.784 343.271 121.521 343.112 120.759 342.243L76.8077 292.069Z" fill="#8B5CF6"/>
<rect width="58.5835" height="3.35035" rx="1.67518" transform="matrix(0.694032 0.78368 -0.718964 0.611629 185.143 206.843)" fill="#E2E8F0"/>
<path d="M183.939 207.868C184.604 207.302 185.664 207.431 186.306 208.156L206.851 231.355C207.493 232.08 207.475 233.127 206.81 233.693V233.693C206.144 234.259 205.085 234.129 204.443 233.404L183.897 210.205C183.255 209.48 183.274 208.434 183.939 207.868V207.868Z" fill="#10B981"/>
<rect width="208" height="367.217" rx="10" transform="matrix(-0.961724 -0.274019 0.299755 -0.954016 569.014 636.033)" fill="#8B5CF6"/>
<rect width="197.234" height="350.216" rx="8" transform="matrix(-0.961724 -0.274019 0.299755 -0.954016 564.914 624.264)" fill="#C4B5FD"/>
<rect width="190.314" height="340.016" rx="8" transform="matrix(-0.961724 -0.274019 0.299755 -0.954016 562.724 618.582)" fill="white"/>
<rect width="123.724" height="6.84775" rx="3.42388" transform="matrix(0.973951 0.257225 -0.278455 0.952684 504.983 273.816)" fill="#E2E8F0"/>
<path d="M504.029 277.078C504.556 275.276 506.476 274.21 508.317 274.697L569.43 290.837C571.272 291.323 572.338 293.178 571.811 294.979V294.979C571.285 296.781 569.365 297.847 567.523 297.361L506.411 281.22C504.569 280.734 503.503 278.879 504.029 277.078V277.078Z" fill="#10B981"/>
<path d="M482.475 426.943L508.513 439.058C517.065 423.231 521.857 409.773 536.267 413.211C550.678 416.649 553.425 422.055 562.552 440.143C571.679 458.231 546.467 485.007 534.676 482.195C516.787 497.112 499.648 475.567 488.824 471.256L482.475 426.943Z" fill="#FCD34D"/>
<path fill-rule="evenodd" clip-rule="evenodd" d="M564.015 403.288C572.157 410.735 577.698 420.343 579.895 430.825C582.092 441.306 580.841 452.16 576.309 461.932C571.778 471.705 564.181 479.929 554.539 485.504C544.896 491.078 533.667 493.736 522.356 493.122C511.045 492.508 500.193 488.651 491.253 482.068C482.312 475.485 475.711 466.49 472.334 456.288C468.956 446.086 468.963 435.165 472.354 424.987C475.745 414.809 482.358 405.861 491.307 399.341C493.358 397.847 496.271 398.843 497.34 401.081C498.803 404.145 500.621 407.047 502.766 409.734C504.805 412.295 508.914 410.823 509.636 407.701C511.223 400.736 514.555 394.234 519.353 388.738C525.627 381.567 534.108 376.409 543.631 373.973C545.803 373.411 547.898 374.867 548.387 376.943C550.736 386.975 556.172 396.14 564.015 403.288ZM554.271 455.436C552.228 463.132 547.024 469.739 539.802 473.802C532.58 477.866 523.933 479.053 515.762 477.104C501.028 473.589 491.343 460.495 491.773 446.837C491.883 443.554 496.4 442.98 498.838 445.336C502.019 448.403 505.851 450.8 510.083 452.369C512.343 453.202 514.635 451.604 515.058 449.36C517.125 438.178 523.632 428.169 533.257 421.366C533.768 421.001 534.376 420.773 535.015 420.708C535.654 420.643 536.3 420.743 536.884 420.997C543.566 423.956 548.955 429.01 552.127 435.294C555.3 441.577 556.057 448.699 554.271 455.436Z" fill="#F59E0B"/>
<rect width="27.3919" height="164.96" rx="4" transform="matrix(0.283084 -0.951416 0.972655 0.261737 397.55 553.159)" fill="#8B5CF6"/>
</svg>
