<svg width="271" height="250" viewBox="0 0 271 250" fill="none" xmlns="http://www.w3.org/2000/svg">
<rect x="233.346" y="231.88" width="116" height="214" rx="10" transform="rotate(-169.986 233.346 231.88)" fill="#1D4ED8"/>
<rect x="232.612" y="225.965" width="114" height="204" rx="8" transform="rotate(-169.986 232.612 225.965)" fill="#93C5FD"/>
<rect x="230.966" y="223.591" width="110" height="200" rx="8" transform="rotate(-169.986 230.966 223.591)" fill="white"/>
<rect x="172.313" y="17.4578" width="72" height="4" rx="2" transform="rotate(8.88464 172.313 17.4578)" fill="#E2E8F0"/>
<path d="M172.004 19.4338C172.174 18.3425 173.197 17.5961 174.289 17.7667L210.351 23.4039C211.442 23.5745 212.189 24.5975 212.018 25.6888C211.847 26.7801 210.824 27.5265 209.733 27.3559L173.671 21.7187C172.58 21.5481 171.833 20.5251 172.004 19.4338Z" fill="#10B981"/>
<path opacity="0.75" fill-rule="evenodd" clip-rule="evenodd" d="M196.018 96.705C191.967 102.98 186.047 106.118 178.257 106.118C166.572 106.118 162.062 87.8923 165.052 76.0664C168.041 64.2405 187.156 47.2782 196.018 44.3684C204.855 47.2782 225.84 68.7361 225.84 83.6978C225.84 98.6596 217.365 106.118 209.951 106.118C205.009 106.118 200.364 102.98 196.018 96.705Z" fill="#FF0057"/>
<g clip-path="url(#clip0_9_468)">
<path opacity="0.75" fill-rule="evenodd" clip-rule="evenodd" d="M192.508 145.86C190.482 148.997 187.522 150.566 183.627 150.566C177.785 150.566 175.53 141.453 177.025 135.54C178.519 129.627 188.077 121.146 192.508 119.691C196.927 121.146 207.419 131.875 207.419 139.356C207.419 146.837 203.182 150.566 199.475 150.566C197.003 150.566 194.681 148.997 192.508 145.86Z" fill="#FF0057"/>
</g>
<g clip-path="url(#clip1_9_468)">
<path opacity="0.75" fill-rule="evenodd" clip-rule="evenodd" d="M195.508 189.86C193.482 192.997 190.522 194.566 186.627 194.566C180.785 194.566 178.53 185.453 180.025 179.54C181.519 173.627 191.077 165.146 195.508 163.691C199.927 165.146 210.419 175.875 210.419 183.356C210.419 190.837 206.182 194.566 202.475 194.566C200.003 194.566 197.681 192.997 195.508 189.86Z" fill="#FF0057"/>
</g>
<rect x="155.246" y="228.877" width="120" height="210" rx="10" transform="rotate(170 155.246 228.877)" fill="#F59E0B"/>
<rect x="148.526" y="225.866" width="114" height="204" rx="10" transform="rotate(170 148.526 225.866)" fill="#FCD34D"/>
<rect x="145.885" y="224.602" width="110" height="200" rx="8" transform="rotate(170 145.885 224.602)" fill="white"/>
<rect x="20.2229" y="50.9924" width="72" height="4" rx="2" transform="rotate(-11.1298 20.2229 50.9924)" fill="#E2E8F0"/>
<path d="M20.609 52.9548C20.3957 51.871 21.1015 50.8196 22.1853 50.6064L57.9988 43.5607C59.0826 43.3474 60.134 44.0532 60.3473 45.137C60.5605 46.2208 59.8547 47.2722 58.7709 47.4854L22.9574 54.5311C21.8736 54.7444 20.8222 54.0386 20.609 52.9548Z" fill="#10B981"/>
<path d="M54.7119 57.5715C63.39 55.9057 71.7754 61.5903 73.4411 70.2685C75.1069 78.9466 69.4223 87.332 60.7441 88.9978C52.066 90.6635 43.6806 84.9789 42.0149 76.3008C40.3491 67.6226 46.0337 59.2373 54.7119 57.5715Z" fill="#E7E5E4"/>
<path d="M64.5684 90.3503C77.5856 87.8516 90.1637 96.3786 92.6623 109.396C95.161 122.413 86.634 134.991 73.6168 137.49C60.5996 139.988 48.0216 131.461 45.5229 118.444C43.0242 105.427 51.5512 92.8489 64.5684 90.3503Z" fill="#E7E5E4"/>
<path d="M76.7119 141.571C85.39 139.906 93.7754 145.59 95.4411 154.268C97.1069 162.947 91.4223 171.332 82.7441 172.998C74.066 174.664 65.6806 168.979 64.0149 160.301C62.3491 151.623 68.0337 143.237 76.7119 141.571Z" fill="#E7E5E4"/>
<path d="M84.7119 175.571C93.39 173.906 101.775 179.59 103.441 188.268C105.107 196.947 99.4223 205.332 90.7441 206.998C82.066 208.664 73.6806 202.979 72.0149 194.301C70.3491 185.623 76.0337 177.237 84.7119 175.571Z" fill="#E7E5E4"/>
<path d="M92.7836 209.182C99.2922 207.933 105.581 212.196 106.831 218.705C108.08 225.213 103.816 231.502 97.3078 232.752C90.7992 234.001 84.5102 229.738 83.2608 223.229C82.0115 216.72 86.275 210.431 92.7836 209.182Z" fill="#E7E5E4"/>
<defs>
<clipPath id="clip0_9_468">
<rect width="32" height="32" fill="white" transform="matrix(1 0 0 -1 175.998 151.014)"/>
</clipPath>
<clipPath id="clip1_9_468">
<rect width="32" height="32" fill="white" transform="matrix(1 0 0 -1 178.998 195.014)"/>
</clipPath>
</defs>
</svg>
