<svg width="510" height="500" viewBox="0 0 510 500" fill="none" xmlns="http://www.w3.org/2000/svg">
<path fill-rule="evenodd" clip-rule="evenodd" d="M255 398.673L149.609 499.656L147.908 355.176L0.563965 353.508L103.549 250.165L0.563965 146.823L147.908 145.155L149.609 0.674713L255 101.658L360.391 0.674713L362.092 145.155L509.436 146.823L406.451 250.165L509.436 353.508L362.092 355.176L360.391 499.656L255 398.673Z" fill="#6D28D9"/>
<path fill-rule="evenodd" clip-rule="evenodd" d="M249.371 326.248L198.655 374.945L197.836 305.272L126.932 304.468L176.49 254.633L126.932 204.798L197.836 203.994L198.655 134.321L249.371 183.018L300.086 134.321L300.905 203.994L371.809 204.798L322.251 254.633L371.809 304.468L300.905 305.272L300.086 374.945L249.371 326.248Z" fill="#FCD34D"/>
</svg>
