<svg width="64" height="64" viewBox="0 0 64 64" fill="none" xmlns="http://www.w3.org/2000/svg">
<g clip-path="url(#clip0_278_7)">
<path d="M64 32C64 14.3269 49.6731 0 32 0C14.3269 0 0 14.3269 0 32C0 49.6731 14.3269 64 32 64C49.6731 64 64 49.6731 64 32Z" fill="#6F6FFB"/>
<path d="M18 42C20.7614 42 23 39.7614 23 37C23 34.2386 20.7614 32 18 32C15.2386 32 13 34.2386 13 37C13 39.7614 15.2386 42 18 42Z" fill="#F0BD70"/>
<path d="M18 41H35V65.87C35 65.87 31.357 68 26.5 68C21.643 68 18 64.523 18 64.523V41Z" fill="#F0BD70"/>
<path d="M34.9999 53.868C34.9999 59.522 34.1179 58.986 28.3829 58.986C22.6479 58.986 20.0019 54.403 20.0019 48.749C20.0019 43.095 19.7839 38 24.4119 38C37.4999 38.5 34.9999 48.214 34.9999 53.868Z" fill="#E9B05B"/>
<path d="M45.886 36.1C45.886 45.022 49.572 55.993 33.5 55.993C17.428 55.993 17.428 45.022 17.428 36.1C15 25.5 15.5 13 32 13C48.5 13 45.886 27.177 45.886 36.1Z" fill="#FFCB7E"/>
<path d="M38 41H37C36.4477 41 36 41.4477 36 42C36 42.5523 36.4477 43 37 43H38C38.5523 43 39 42.5523 39 42C39 41.4477 38.5523 41 38 41Z" fill="#F0BD70"/>
<path d="M38 60H16C11.0294 60 7 64.0294 7 69V74C7 78.9706 11.0294 83 16 83H38C42.9706 83 47 78.9706 47 74V69C47 64.0294 42.9706 60 38 60Z" fill="#E05A33"/>
<path fill-rule="evenodd" clip-rule="evenodd" d="M45.968 32.483C46.798 32.0146 47.4334 31.2651 47.7598 30.3697C48.0861 29.4742 48.0819 28.4916 47.748 27.599C48.6608 27.1589 49.3726 26.3887 49.7395 25.4441C50.1064 24.4994 50.1011 23.4507 49.7246 22.5099C49.3482 21.569 48.6286 20.8061 47.7113 20.3753C46.794 19.9445 45.7474 19.8779 44.783 20.189C46.2 23.863 46.096 28.407 45.968 32.483Z" fill="#47280B"/>
<path fill-rule="evenodd" clip-rule="evenodd" d="M36.297 22.76C35.3857 23.5611 34.2133 24.002 33 24C31.8934 24.0018 30.8177 23.6348 29.943 22.957C29.2939 23.6059 28.5232 24.1203 27.675 24.4709C26.8268 24.8215 25.9178 25.0013 25 25C24.307 25.0005 23.6179 24.898 22.955 24.696C22.6943 24.9813 22.3939 25.2275 22.063 25.427C22.4567 25.8954 22.7376 26.4479 22.8843 27.042C23.0309 27.636 23.0393 28.2558 22.9088 28.8536C22.7783 29.4514 22.5124 30.0113 22.1315 30.4902C21.7507 30.9691 21.2651 31.3542 20.712 31.616C20.8771 31.8421 20.9755 32.1099 20.9963 32.389C21.0171 32.6682 20.9594 32.9476 20.8296 33.1957C20.6999 33.4437 20.5033 33.6505 20.2621 33.7927C20.021 33.9348 19.7449 34.0066 19.465 34C18.9748 34.853 18.1874 35.4954 17.2534 35.8044C16.3194 36.1134 15.3043 36.0674 14.4021 35.6751C13.4999 35.2828 12.7738 34.5718 12.3628 33.678C11.9518 32.7842 11.8846 31.7703 12.174 30.83C11.8014 30.459 11.5058 30.018 11.3043 29.5323C11.1028 29.0466 10.9994 28.5258 11 28C11 26.894 11.449 25.893 12.174 25.17C11.9809 24.5383 11.9472 23.8686 12.076 23.2207C12.2047 22.5728 12.492 21.9668 12.912 21.457C12.3918 20.5403 12.0852 19.5181 12.0151 18.4664C11.945 17.4147 12.1131 16.3608 12.5071 15.3832C12.901 14.4056 13.5105 13.5295 14.2902 12.8203C15.0699 12.111 15.9996 11.5869 17.01 11.287C16.958 10.5683 17.1011 9.84899 17.4242 9.20494C17.7473 8.56089 18.2384 8.01607 18.8455 7.62805C19.4526 7.24002 20.1533 7.0232 20.8735 7.00048C21.5937 6.97777 22.3066 7.15001 22.937 7.49901C23.5513 6.43473 24.4351 5.55102 25.4995 4.93679C26.5638 4.32255 27.7711 3.99946 29 4.00001C30.373 4.00001 31.654 4.39501 32.735 5.07901C33.4775 4.27912 34.4095 3.67902 35.4449 3.33401C36.4804 2.98901 37.586 2.9102 38.6599 3.10486C39.7338 3.29952 40.7415 3.76138 41.59 4.44787C42.4384 5.13436 43.1005 6.02339 43.515 7.03301C44.044 7.10158 44.554 7.27528 45.0149 7.54388C45.4758 7.81247 45.8783 8.17055 46.1987 8.59703C46.5192 9.02351 46.7511 9.50977 46.8808 10.0272C47.0105 10.5446 47.0354 11.0828 46.954 11.61C48.809 12.984 50 15.112 50 17.5C50 21.642 46.418 25 42 25C39.767 25 37.748 24.142 36.297 22.76Z" fill="#47280B"/>
<path d="M28.929 46C28.929 45.7348 29.0343 45.4804 29.2218 45.2929C29.4094 45.1054 29.6637 45 29.929 45H39.072C39.3372 45 39.5915 45.1054 39.7791 45.2929C39.9666 45.4804 40.072 45.7348 40.072 46C40.072 47.3261 39.5452 48.5979 38.6075 49.5355C37.6698 50.4732 36.398 51 35.072 51H33.929C32.6029 51 31.3311 50.4732 30.3934 49.5355C29.4557 48.5979 28.929 47.3261 28.929 46Z" fill="#66253C"/>
<path fill-rule="evenodd" clip-rule="evenodd" d="M36.7549 50.71C36.2147 50.9027 35.6454 51.0008 35.0719 51H33.9289C32.6374 51 31.396 50.5003 30.4648 49.6056C29.5335 48.7108 28.9845 47.4905 28.9329 46.2C29.6969 45.914 30.8309 45.947 31.9499 45.98C32.3059 45.99 32.6599 46 32.9999 46C35.2099 46 36.9999 47.567 36.9999 49.5C36.9999 49.925 36.9129 50.333 36.7549 50.71Z" fill="#B03E67"/>
<path d="M30 45H40V46C40 46.2652 39.8946 46.5196 39.7071 46.7071C39.5196 46.8946 39.2652 47 39 47H31C30.7348 47 30.4804 46.8946 30.2929 46.7071C30.1054 46.5196 30 46.2652 30 46V45Z" fill="white"/>
<path d="M33 37.5C33 36.6716 32.3284 36 31.5 36C30.6716 36 30 36.6716 30 37.5V38.5C30 39.3284 30.6716 40 31.5 40C32.3284 40 33 39.3284 33 38.5V37.5Z" fill="#1B0B47"/>
<path d="M43 37.5C43 36.6716 42.3284 36 41.5 36C40.6716 36 40 36.6716 40 37.5V38.5C40 39.3284 40.6716 40 41.5 40C42.3284 40 43 39.3284 43 38.5V37.5Z" fill="#1B0B47"/>
<path d="M27.5 39H25.5C24.6716 39 24 39.6716 24 40.5C24 41.3284 24.6716 42 25.5 42H27.5C28.3284 42 29 41.3284 29 40.5C29 39.6716 28.3284 39 27.5 39Z" fill="#FF859B"/>
<path d="M45.5 39H44.5C43.6716 39 43 39.6716 43 40.5C43 41.3284 43.6716 42 44.5 42H45.5C46.3284 42 47 41.3284 47 40.5C47 39.6716 46.3284 39 45.5 39Z" fill="#FF859B"/>
</g>
<defs>
<clipPath id="clip0_278_7">
<rect width="64" height="64" rx="32" fill="white"/>
</clipPath>
</defs>
</svg>
