<svg width="64" height="64" viewBox="0 0 64 64" fill="none" xmlns="http://www.w3.org/2000/svg">
<g clip-path="url(#clip0_278_29)">
<path d="M64 32C64 14.3269 49.6731 0 32 0C14.3269 0 0 14.3269 0 32C0 49.6731 14.3269 64 32 64C49.6731 64 64 49.6731 64 32Z" fill="#70E0BF"/>
<path d="M18 42C20.7614 42 23 39.7614 23 37C23 34.2386 20.7614 32 18 32C15.2386 32 13 34.2386 13 37C13 39.7614 15.2386 42 18 42Z" fill="#F0BD70"/>
<path d="M18 41H35V65.87C35 65.87 31.357 68 26.5 68C21.643 68 18 64.523 18 64.523V41Z" fill="#F0BD70"/>
<path d="M34.8111 53.112C34.8111 58.497 33.9411 57.987 28.2781 57.987C22.6151 57.987 20.0021 53.622 20.0021 48.237C20.0021 42.853 19.7871 38 24.3571 38C37.2801 38.476 34.8111 47.727 34.8111 53.112Z" fill="#E9B05B"/>
<path d="M45.886 36.1C45.886 45.022 44.5 55.993 33.5 55.993C22.5 55.993 17.428 45.022 17.428 36.1C15 25.5 15.5 13 32 13C48.5 13 45.886 27.177 45.886 36.1Z" fill="#FFCB7E"/>
<path d="M38 41H37C36.4477 41 36 41.4477 36 42C36 42.5523 36.4477 43 37 43H38C38.5523 43 39 42.5523 39 42C39 41.4477 38.5523 41 38 41Z" fill="#F0BD70"/>
<path d="M38 60H16C11.0294 60 7 64.0294 7 69V74C7 78.9706 11.0294 83 16 83H38C42.9706 83 47 78.9706 47 74V69C47 64.0294 42.9706 60 38 60Z" fill="#FF4DD8"/>
<path d="M17 58H36V61C36 61 31 62 26.5 62C22 62 17 61 17 61V58Z" fill="#FF4DD8"/>
<path d="M17 58H36V60C36 60 33 61.5 26.5 61.5C20 61.5 17 60 17 60V58Z" fill="#D2499B"/>
<path d="M16.5 59C16.5 58.4696 16.7107 57.9609 17.0858 57.5858C17.4609 57.2107 17.9696 57 18.5 57H34.5C35.0304 57 35.5391 57.2107 35.9142 57.5858C36.2893 57.9609 36.5 58.4696 36.5 59C36.5 59 31.5 60 26.5 60C21.5 60 16.5 59 16.5 59Z" fill="#FF4DD8"/>
<path d="M22 28C21.371 31 23 34.981 23 35.743C23 36.505 19.069 38.768 18 39.5C16.931 40.232 16.5 32.5 16.5 32.5C13.5 32.5 13 38 13 38C13 38 10.756 37.26 10 33.5C9.49003 30.96 10.299 25.411 10.5 24C11 20.5 11.5 12.5 18 8.50001C24.5 4.50001 41 4.50001 45 5.50001C54.894 7.97301 56.218 21.486 53 26C48 31.5 34 25 29.5 25C25 25 22.63 25 22 28Z" fill="#AD3A20"/>
<path d="M28.929 46C28.929 45.7348 29.0343 45.4804 29.2218 45.2929C29.4094 45.1054 29.6637 45 29.929 45H39.072C39.3372 45 39.5915 45.1054 39.7791 45.2929C39.9666 45.4804 40.072 45.7348 40.072 46C40.072 47.3261 39.5452 48.5979 38.6075 49.5355C37.6698 50.4732 36.398 51 35.072 51H33.929C32.6029 51 31.3311 50.4732 30.3934 49.5355C29.4557 48.5979 28.929 47.3261 28.929 46Z" fill="#66253C"/>
<path fill-rule="evenodd" clip-rule="evenodd" d="M36.7549 50.71C36.2147 50.9027 35.6454 51.0008 35.0719 51H33.9289C32.6374 51 31.396 50.5003 30.4648 49.6056C29.5335 48.7108 28.9845 47.4905 28.9329 46.2C29.6969 45.914 30.8309 45.947 31.9499 45.98C32.3059 45.99 32.6599 46 32.9999 46C35.2099 46 36.9999 47.567 36.9999 49.5C36.9999 49.925 36.9129 50.333 36.7549 50.71Z" fill="#B03E67"/>
<path d="M30 45H40V46C40 46.2652 39.8946 46.5196 39.7071 46.7071C39.5196 46.8946 39.2652 47 39 47H31C30.7348 47 30.4804 46.8946 30.2929 46.7071C30.1054 46.5196 30 46.2652 30 46V45Z" fill="white"/>
<path d="M32 45.3C32 45.2204 32.0316 45.1441 32.0879 45.0879C32.1441 45.0316 32.2204 45 32.3 45H33.7C33.7796 45 33.8559 45.0316 33.9121 45.0879C33.9684 45.1441 34 45.2204 34 45.3V47.7C34 47.7796 33.9684 47.8559 33.9121 47.9121C33.8559 47.9684 33.7796 48 33.7 48H32.3C32.2204 48 32.1441 47.9684 32.0879 47.9121C32.0316 47.8559 32 47.7796 32 47.7V45.3Z" fill="#B03E67"/>
<path d="M43 37.5C43 37.8978 42.842 38.2794 42.5607 38.5607C42.2794 38.842 41.8978 39 41.5 39C41.1022 39 40.7206 38.842 40.4393 38.5607C40.158 38.2794 40 37.8978 40 37.5V36.273C40 36.123 40.122 36 40.273 36H42.727C42.877 36 43 36.122 43 36.273V37.5ZM33 37.5C33 37.8978 32.842 38.2794 32.5607 38.5607C32.2794 38.842 31.8978 39 31.5 39C31.1022 39 30.7206 38.842 30.4393 38.5607C30.158 38.2794 30 37.8978 30 37.5V36.273C30 36.123 30.122 36 30.273 36H32.727C32.877 36 33 36.122 33 36.273V37.5Z" fill="#1B0B47"/>
<path d="M39.5 36.5H43.5M29.5 36.5H33.5H29.5Z" stroke="#1B0B47" stroke-linecap="round"/>
<path d="M28 46C28 45.2044 28.3161 44.4413 28.8787 43.8787C29.4413 43.3161 30.2044 43 31 43H40C40.7956 43 41.5587 43.3161 42.1213 43.8787C42.6839 44.4413 43 45.2044 43 46H28Z" fill="#AD3A20"/>
</g>
<defs>
<clipPath id="clip0_278_29">
<rect width="64" height="64" rx="32" fill="white"/>
</clipPath>
</defs>
</svg>
