<svg width="64" height="64" viewBox="0 0 64 64" fill="none" xmlns="http://www.w3.org/2000/svg">
<g clip-path="url(#clip0_278_53)">
<path d="M64 32C64 14.3269 49.6731 0 32 0C14.3269 0 0 14.3269 0 32C0 49.6731 14.3269 64 32 64C49.6731 64 64 49.6731 64 32Z" fill="#F16063"/>
<path d="M18 42C20.7614 42 23 39.7614 23 37C23 34.2386 20.7614 32 18 32C15.2386 32 13 34.2386 13 37C13 39.7614 15.2386 42 18 42Z" fill="#EAC0B3"/>
<path d="M18 41H35V65.87C35 65.87 31.357 68 26.5 68C21.643 68 18 64.523 18 64.523V41Z" fill="#EAC0B3"/>
<path d="M34.8111 53.112C34.8111 58.497 33.9411 57.987 28.2781 57.987C22.6151 57.987 20.0021 53.622 20.0021 48.237C20.0021 42.853 19.7871 38 24.3571 38C37.2801 38.476 34.8111 47.727 34.8111 53.112Z" fill="#C99688"/>
<path d="M45.886 36.1C45.886 45.022 44.5 55.993 33.5 55.993C22.5 55.993 17.428 45.022 17.428 36.1C15 25.5 15.5 13 32 13C48.5 13 45.886 27.177 45.886 36.1Z" fill="#F5D0C5"/>
<path d="M38 41H37C36.4477 41 36 41.4477 36 42C36 42.5523 36.4477 43 37 43H38C38.5523 43 39 42.5523 39 42C39 41.4477 38.5523 41 38 41Z" fill="#EAC0B3"/>
<path d="M38 60H16C11.0294 60 7 64.0294 7 69V74C7 78.9706 11.0294 83 16 83H38C42.9706 83 47 78.9706 47 74V69C47 64.0294 42.9706 60 38 60Z" fill="#3633E0"/>
<path d="M17 58H36V61C36 61 31 62 26.5 62C22 62 17 61 17 61V58Z" fill="#3633E0"/>
<path d="M17 58H36V60C36 60 33 61.5 26.5 61.5C20 61.5 17 60 17 60V58Z" fill="#362ABC"/>
<path d="M16.5 59C16.5 58.4696 16.7107 57.9609 17.0858 57.5858C17.4609 57.2107 17.9696 57 18.5 57H34.5C35.0304 57 35.5391 57.2107 35.9142 57.5858C36.2893 57.9609 36.5 58.4696 36.5 59C36.5 59 31.5 60 26.5 60C21.5 60 16.5 59 16.5 59Z" fill="#3633E0"/>
<path fill-rule="evenodd" clip-rule="evenodd" d="M48 25C47.9995 20.2698 46.137 15.7298 42.8153 12.362C39.4937 8.99428 34.9798 7.0694 30.25 7.00369C25.5202 6.93799 20.9547 8.73675 17.5407 12.0109C14.1268 15.2851 12.1389 19.7716 12.007 24.5H12V65H23V34.597C25.485 34.119 29.78 33.067 35.208 30.841C40.672 28.6 44.081 26.482 45.876 25.204C46.118 27.728 46.034 30.364 45.956 32.814C45.92 33.96 45.885 35.064 45.885 36.099C45.885 36.507 45.877 36.917 45.86 37.328C46.091 37.255 46.307 37.175 46.499 37.088C47.999 36.404 47.999 35.491 47.999 35.491V25H48ZM15 33C14.282 33.5371 13.7223 34.2582 13.38 35.087C12.9554 36.1126 12.8841 37.2504 13.1774 38.3209C13.4707 39.3915 14.1119 40.3341 15 41V33Z" fill="#1B0B47"/>
<path d="M28.929 46C28.929 45.7348 29.0343 45.4804 29.2218 45.2929C29.4094 45.1054 29.6637 45 29.929 45H39.072C39.3372 45 39.5915 45.1054 39.7791 45.2929C39.9666 45.4804 40.072 45.7348 40.072 46C40.072 47.3261 39.5452 48.5979 38.6075 49.5355C37.6698 50.4732 36.398 51 35.072 51H33.929C32.6029 51 31.3311 50.4732 30.3934 49.5355C29.4557 48.5979 28.929 47.3261 28.929 46Z" fill="#66253C"/>
<path fill-rule="evenodd" clip-rule="evenodd" d="M36.7549 50.71C36.2147 50.9027 35.6454 51.0008 35.0719 51H33.9289C32.6374 51 31.396 50.5003 30.4648 49.6056C29.5335 48.7108 28.9845 47.4905 28.9329 46.2C29.6969 45.914 30.8309 45.947 31.9499 45.98C32.3059 45.99 32.6599 46 32.9999 46C35.2099 46 36.9999 47.567 36.9999 49.5C36.9999 49.925 36.9129 50.333 36.7549 50.71Z" fill="#B03E67"/>
<path d="M30 45H40V46C40 46.2652 39.8946 46.5196 39.7071 46.7071C39.5196 46.8946 39.2652 47 39 47H31C30.7348 47 30.4804 46.8946 30.2929 46.7071C30.1054 46.5196 30 46.2652 30 46V45Z" fill="white"/>
<path d="M33 37.5C33 36.6716 32.3284 36 31.5 36C30.6716 36 30 36.6716 30 37.5V38.5C30 39.3284 30.6716 40 31.5 40C32.3284 40 33 39.3284 33 38.5V37.5Z" fill="#1B0B47"/>
<path d="M43 37.5C43 36.6716 42.3284 36 41.5 36C40.6716 36 40 36.6716 40 37.5V38.5C40 39.3284 40.6716 40 41.5 40C42.3284 40 43 39.3284 43 38.5V37.5Z" fill="#1B0B47"/>
</g>
<defs>
<clipPath id="clip0_278_53">
<rect width="64" height="64" rx="32" fill="white"/>
</clipPath>
</defs>
</svg>
