<svg width="64" height="64" viewBox="0 0 64 64" fill="none" xmlns="http://www.w3.org/2000/svg">
<g clip-path="url(#clip0_278_99)">
<path d="M64 32C64 14.3269 49.6731 0 32 0C14.3269 0 0 14.3269 0 32C0 49.6731 14.3269 64 32 64C49.6731 64 64 49.6731 64 32Z" fill="#FFBAF8"/>
<path d="M18 42C20.7614 42 23 39.7614 23 37C23 34.2386 20.7614 32 18 32C15.2386 32 13 34.2386 13 37C13 39.7614 15.2386 42 18 42Z" fill="#EAC0B3"/>
<path d="M18 41H35V65.87C35 65.87 31.357 68 26.5 68C21.643 68 18 64.523 18 64.523V41Z" fill="#EAC0B3"/>
<path d="M34.9999 53.868C34.9999 59.522 34.1179 58.986 28.3829 58.986C22.6479 58.986 20.0019 54.403 20.0019 48.749C20.0019 43.095 19.7839 38 24.4119 38C37.4999 38.5 34.9999 48.214 34.9999 53.868Z" fill="#C99688"/>
<path d="M45.886 36.1C45.886 45.022 49.572 55.993 33.5 55.993C17.428 55.993 17.428 45.022 17.428 36.1C15 25.5 15.5 13 32 13C48.5 13 45.886 27.177 45.886 36.1Z" fill="#F5D0C5"/>
<path d="M38 41H37C36.4477 41 36 41.4477 36 42C36 42.5523 36.4477 43 37 43H38C38.5523 43 39 42.5523 39 42C39 41.4477 38.5523 41 38 41Z" fill="#EAC0B3"/>
<path d="M38 60H16C11.0294 60 7 64.0294 7 69V74C7 78.9706 11.0294 83 16 83H38C42.9706 83 47 78.9706 47 74V69C47 64.0294 42.9706 60 38 60Z" fill="#E05A33"/>
<path fill-rule="evenodd" clip-rule="evenodd" d="M24.0001 25C24.0001 25.53 23.8971 26.037 23.7101 26.5C23.9558 27.1073 24.0485 27.7657 23.9801 28.4173C23.9118 29.0689 23.6844 29.6937 23.3181 30.2368C22.9517 30.78 22.4575 31.2248 21.879 31.5322C21.3004 31.8397 20.6552 32.0003 20.0001 32C20.0001 33.0608 19.5786 34.0782 18.8285 34.8284C18.0783 35.5785 17.0609 36 16.0001 36C14.9392 36 13.9218 35.5785 13.1716 34.8284C12.4215 34.0782 12.0001 33.0608 12.0001 32C12.0001 30.954 12.0651 29.218 12.3681 27.679C12.0436 26.978 11.929 26.198 12.0382 25.4333C12.1474 24.6685 12.4757 23.9518 12.9834 23.3696C13.4912 22.7874 14.1566 22.3647 14.8994 22.1526C15.6421 21.9404 16.4304 21.9478 17.1691 22.174C17.7282 21.6138 18.4409 21.2321 19.2171 21.0772C19.9932 20.9223 20.7979 21.0011 21.5292 21.3036C22.2605 21.6062 22.8857 22.1189 23.3255 22.7769C23.7653 23.4349 24.0001 24.2085 24.0001 25ZM45.8491 33.893C46.4098 33.7597 46.9351 33.5069 47.3891 33.1518C47.8431 32.7967 48.215 32.3478 48.4795 31.8357C48.7439 31.3236 48.8946 30.7605 48.9213 30.1847C48.948 29.609 48.85 29.0343 48.6341 28.5C48.8615 27.9379 48.9582 27.3314 48.9168 26.7265C48.8754 26.1215 48.697 25.5339 48.3951 25.008C48.0932 24.4822 47.6757 24.0318 47.1742 23.691C46.6726 23.3503 46.1002 23.128 45.5001 23.041C46.0931 26.181 45.9821 29.652 45.8821 32.815L45.8491 33.893Z" fill="#1B0B47"/>
<path d="M28.929 46C28.929 45.7348 29.0343 45.4804 29.2218 45.2929C29.4094 45.1054 29.6637 45 29.929 45H39.072C39.3372 45 39.5915 45.1054 39.7791 45.2929C39.9666 45.4804 40.072 45.7348 40.072 46C40.072 47.3261 39.5452 48.5979 38.6075 49.5355C37.6698 50.4732 36.398 51 35.072 51H33.929C32.6029 51 31.3311 50.4732 30.3934 49.5355C29.4557 48.5979 28.929 47.3261 28.929 46Z" fill="#66253C"/>
<path fill-rule="evenodd" clip-rule="evenodd" d="M36.7549 50.71C36.2147 50.9027 35.6454 51.0008 35.0719 51H33.9289C32.6374 51 31.396 50.5003 30.4648 49.6056C29.5335 48.7108 28.9845 47.4905 28.9329 46.2C29.6969 45.914 30.8309 45.947 31.9499 45.98C32.3059 45.99 32.6599 46 32.9999 46C35.2099 46 36.9999 47.567 36.9999 49.5C36.9999 49.925 36.9129 50.333 36.7549 50.71Z" fill="#B03E67"/>
<path d="M30 45H40V46C40 46.2652 39.8946 46.5196 39.7071 46.7071C39.5196 46.8946 39.2652 47 39 47H31C30.7348 47 30.4804 46.8946 30.2929 46.7071C30.1054 46.5196 30 46.2652 30 46V45Z" fill="white"/>
<path d="M32 45.3C32 45.2204 32.0316 45.1441 32.0879 45.0879C32.1441 45.0316 32.2204 45 32.3 45H33.7C33.7796 45 33.8559 45.0316 33.9121 45.0879C33.9684 45.1441 34 45.2204 34 45.3V47.7C34 47.7796 33.9684 47.8559 33.9121 47.9121C33.8559 47.9684 33.7796 48 33.7 48H32.3C32.2204 48 32.1441 47.9684 32.0879 47.9121C32.0316 47.8559 32 47.7796 32 47.7V45.3Z" fill="#B03E67"/>
<path d="M33 37.5C33 36.6716 32.3284 36 31.5 36C30.6716 36 30 36.6716 30 37.5V38.5C30 39.3284 30.6716 40 31.5 40C32.3284 40 33 39.3284 33 38.5V37.5Z" fill="#1B0B47"/>
<path d="M43 37.5C43 36.6716 42.3284 36 41.5 36C40.6716 36 40 36.6716 40 37.5V38.5C40 39.3284 40.6716 40 41.5 40C42.3284 40 43 39.3284 43 38.5V37.5Z" fill="#1B0B47"/>
<path fill-rule="evenodd" clip-rule="evenodd" d="M37.5 43C31 44.5 26.5 45 26.5 45C26.5 45 27.5 47.5 30 47C32 46.6 36 45.667 37.5 45V43ZM38 43C44 44 48 44.756 48 44.756C48 44.756 46.881 46.939 44.5 46.5L44.18 46.441C42.256 46.088 39.35 45.553 38 45V43Z" fill="#1B0B47"/>
</g>
<defs>
<clipPath id="clip0_278_99">
<rect width="64" height="64" rx="32" fill="white"/>
</clipPath>
</defs>
</svg>
