<svg width="64" height="64" viewBox="0 0 64 64" fill="none" xmlns="http://www.w3.org/2000/svg">
<g clip-path="url(#clip0_278_120)">
<path d="M64 32C64 14.3269 49.6731 0 32 0C14.3269 0 0 14.3269 0 32C0 49.6731 14.3269 64 32 64C49.6731 64 64 49.6731 64 32Z" fill="#E4ECF7"/>
<path d="M18 42C20.7614 42 23 39.7614 23 37C23 34.2386 20.7614 32 18 32C15.2386 32 13 34.2386 13 37C13 39.7614 15.2386 42 18 42Z" fill="#836055"/>
<path d="M18 41H35V65.87C35 65.87 31.357 68 26.5 68C21.643 68 18 64.523 18 64.523V41Z" fill="#836055"/>
<path d="M35 53.868C35 59.522 31.5 60 28.383 58.986C25.267 57.974 19 49.154 19 43.5C19 37.846 19.784 38 24.413 38C37.5 38.5 35 48.214 35 53.868Z" fill="#553329"/>
<path d="M45.886 36.1C45.886 45.022 41.998 55 35.498 56.5C25.998 55.5 17.428 45.022 17.428 36.1C15 25.5 15.5 13 32 13C48.5 13 45.886 27.177 45.886 36.1Z" fill="#836055"/>
<path d="M38 41H37C36.4477 41 36 41.4477 36 42C36 42.5523 36.4477 43 37 43H38C38.5523 43 39 42.5523 39 42C39 41.4477 38.5523 41 38 41Z" fill="#68463C"/>
<path d="M38 60H16C11.0294 60 7 64.0294 7 69V74C7 78.9706 11.0294 83 16 83H38C42.9706 83 47 78.9706 47 74V69C47 64.0294 42.9706 60 38 60Z" fill="#E05A33"/>
<path d="M-0.000926733 9.99801C7.99607 2.00201 13.0001 12.999 13.0001 12.999L10.9981 20.999C10.9981 20.999 8.99807 23.499 10.9981 30.999C12.9981 38.499 8.49807 42.499 8.49807 42.499C8.49807 42.499 4.99807 45 1.99807 43C-1.00193 41 -1.39893 39.078 -1.00193 35.5C-0.501927 31 0.998073 32.498 0.998073 27.998C0.998073 23.498 -7.99893 17.994 -0.00192666 9.99801H-0.000926733Z" fill="#1B0B47"/>
<path d="M13.0301 13.181L18.5381 15.563L14.9661 23.823L9.45906 21.443C9.45906 21.443 8.49906 19.5 9.99906 16.501C11.4961 13.501 13.0311 13.181 13.0311 13.181H13.0301Z" fill="#FF6C98"/>
<path fill-rule="evenodd" clip-rule="evenodd" d="M18.0001 41L16.6771 32.177C15.5088 32.4964 14.4961 33.2291 13.8272 34.2389C13.1584 35.2487 12.8788 36.467 13.0405 37.6674C13.2021 38.8678 13.7941 39.9687 14.7063 40.7656C15.6185 41.5624 16.7889 42.0011 18.0001 42V50.3C16.415 48.8937 15.04 47.2671 13.9171 45.47C12.2171 42.766 11.0291 39.666 10.4351 36.377C9.84148 33.079 9.85503 29.7002 10.4751 26.407C11.0951 23.124 12.3081 20.037 14.0311 17.352C15.7531 14.668 17.9461 12.449 20.4611 10.846C22.9751 9.24202 25.7531 8.29102 28.6081 8.05702C29.2294 8.00618 29.853 7.98948 30.4761 8.00702C33.136 7.93666 35.7839 8.38677 38.2711 9.33202C40.5761 10.212 42.6711 11.501 44.4351 13.126C46.1776 14.7206 47.5788 16.6518 48.5541 18.803C49.2959 20.4477 49.7609 22.2037 49.9301 24H50.0001V28.286C50.0001 28.286 49.6711 28.438 49.0021 28.652V37.14C49.0021 37.14 49.0021 38.544 47.5021 39.596C46.9821 39.961 46.2841 40.241 45.5921 40.452C45.7882 39.0093 45.8875 37.555 45.8891 36.099C45.8891 35.065 45.9241 33.96 45.9601 32.815C45.9961 31.697 46.0331 30.54 46.0401 29.374C44.1881 29.713 41.6731 30 38.4621 30C30.6141 30 26.0001 28.286 26.0001 28.286V27.287C25.3201 28.351 24.5841 29.637 24.0001 31C23.2501 32.75 23.2501 34.544 23.2501 36.051C23.2501 37.559 23.2501 38.781 22.5001 39.386C21.0001 40.596 18.0001 41 18.0001 41Z" fill="#1B0B47"/>
<path d="M33 37.5C33 36.6716 32.3284 36 31.5 36C30.6716 36 30 36.6716 30 37.5V38.5C30 39.3284 30.6716 40 31.5 40C32.3284 40 33 39.3284 33 38.5V37.5Z" fill="#1B0B47"/>
<path d="M43 37.5C43 36.6716 42.3284 36 41.5 36C40.6716 36 40 36.6716 40 37.5V38.5C40 39.3284 40.6716 40 41.5 40C42.3284 40 43 39.3284 43 38.5V37.5Z" fill="#1B0B47"/>
<path d="M27.5 39H25.5C24.6716 39 24 39.6716 24 40.5C24 41.3284 24.6716 42 25.5 42H27.5C28.3284 42 29 41.3284 29 40.5C29 39.6716 28.3284 39 27.5 39Z" fill="#FF859B"/>
<path d="M45.5 39H44.5C43.6716 39 43 39.6716 43 40.5C43 41.3284 43.6716 42 44.5 42H45.5C46.3284 42 47 41.3284 47 40.5C47 39.6716 46.3284 39 45.5 39Z" fill="#FF859B"/>
</g>
<defs>
<clipPath id="clip0_278_120">
<rect width="64" height="64" rx="32" fill="white"/>
</clipPath>
</defs>
</svg>
