<svg width="64" height="64" viewBox="0 0 64 64" fill="none" xmlns="http://www.w3.org/2000/svg">
<g clip-path="url(#clip0_278_158)">
<path d="M64 32C64 14.3269 49.6731 0 32 0C14.3269 0 0 14.3269 0 32C0 49.6731 14.3269 64 32 64C49.6731 64 64 49.6731 64 32Z" fill="#68DBF2"/>
<path d="M18 42C20.7614 42 23 39.7614 23 37C23 34.2386 20.7614 32 18 32C15.2386 32 13 34.2386 13 37C13 39.7614 15.2386 42 18 42Z" fill="#EAC0B3"/>
<path d="M18 41H35V65.87C35 65.87 31.357 68 26.5 68C21.643 68 18 64.523 18 64.523V41Z" fill="#EAC0B3"/>
<path d="M34.8111 53.112C34.8111 58.497 33.9411 57.987 28.2781 57.987C22.6151 57.987 20.0021 53.622 20.0021 48.237C20.0021 42.853 19.7871 38 24.3571 38C37.2801 38.476 34.8111 47.727 34.8111 53.112Z" fill="#C99688"/>
<path d="M45.886 36.1C45.886 45.022 44.5 55.993 33.5 55.993C22.5 55.993 17.428 45.022 17.428 36.1C15 25.5 15.5 13 32 13C48.5 13 45.886 27.177 45.886 36.1Z" fill="#F5D0C5"/>
<path d="M38 41H37C36.4477 41 36 41.4477 36 42C36 42.5523 36.4477 43 37 43H38C38.5523 43 39 42.5523 39 42C39 41.4477 38.5523 41 38 41Z" fill="#EAC0B3"/>
<path d="M38 60H16C11.0294 60 7 64.0294 7 69V74C7 78.9706 11.0294 83 16 83H38C42.9706 83 47 78.9706 47 74V69C47 64.0294 42.9706 60 38 60Z" fill="#E05A33"/>
<path fill-rule="evenodd" clip-rule="evenodd" d="M28.9649 26.201C34.5749 28.064 42.3539 30.646 50.4999 22.5C54.4999 18.5 36.4999 1.49998 21.9999 11C10.6669 12.679 11.3139 19.47 11.8139 24.71C11.9099 25.713 11.9999 26.658 11.9999 27.5C11.9999 28.033 12.0699 28.432 12.1999 28.718C12.0653 29.8068 11.9985 30.9029 11.9999 32C11.9999 33.0608 12.4213 34.0783 13.1715 34.8284C13.9216 35.5786 14.9391 36 15.9999 36C17.0608 36 18.0782 35.5786 18.8283 34.8284C19.5785 34.0783 19.9999 33.0608 19.9999 32C20.6106 32.0001 21.2132 31.8603 21.7615 31.5914C22.3098 31.3226 22.7893 30.9317 23.1632 30.4489C23.5371 29.966 23.7954 29.4039 23.9184 28.8058C24.0415 28.2076 24.0259 27.5892 23.8729 26.998L23.9999 27C25.2239 27 26.3189 26.45 27.0529 25.585C27.6569 25.767 28.2959 25.979 28.9649 26.201Z" fill="#1B0B47"/>
<path d="M30.269 40.538C32.6267 40.538 34.538 38.6267 34.538 36.269C34.538 33.9113 32.6267 32 30.269 32C27.9113 32 26 33.9113 26 36.269C26 38.6267 27.9113 40.538 30.269 40.538Z" stroke="black" stroke-width="2"/>
<path d="M44.269 40.538C46.6267 40.538 48.538 38.6267 48.538 36.269C48.538 33.9113 46.6267 32 44.269 32C41.9113 32 40 33.9113 40 36.269C40 38.6267 41.9113 40.538 44.269 40.538Z" stroke="black" stroke-width="2"/>
<path d="M33.9849 35.104L40.9849 35" stroke="black" stroke-width="2"/>
<path d="M28 46C28 45.2044 28.3161 44.4413 28.8787 43.8787C29.4413 43.3161 30.2044 43 31 43H40C40.7956 43 41.5587 43.3161 42.1213 43.8787C42.6839 44.4413 43 45.2044 43 46H28Z" fill="#1B0B47"/>
</g>
<defs>
<clipPath id="clip0_278_158">
<rect width="64" height="64" rx="32" fill="white"/>
</clipPath>
</defs>
</svg>
